<svg width="10" height="10" viewBox="0 0 10 10" fill="none" xmlns="http://www.w3.org/2000/svg">
    <path d="M10 9.45018L7.42754 6.84539C7.92772 6.23517 8.24597 5.49336 8.34509 4.70672C8.4442 3.92008 8.32007 3.12112 7.98722 2.40329C7.65437 1.68545 7.12656 1.07842 6.46551 0.653169C5.80446 0.227922 5.0375 0.00204371 4.25433 0.00194982C3.70184 -0.0151425 3.1516 0.080283 2.63622 0.282567C2.12084 0.484851 1.65083 0.789873 1.25406 1.17954C0.857287 1.56922 0.541838 2.0356 0.326419 2.55103C0.111001 3.06647 0 3.62046 0 4.18015C0 4.73984 0.111001 5.29383 0.326419 5.80927C0.541838 6.32471 0.857287 6.79109 1.25406 7.18076C1.65083 7.57043 2.12084 7.87545 2.63622 8.07774C3.1516 8.28002 3.70184 8.37545 4.25433 8.35835C5.21561 8.36028 6.14684 8.01928 6.88455 7.3952L9.45701 10L10 9.45018ZM4.25433 7.57848C3.58984 7.57925 2.94006 7.38038 2.38724 7.00705C1.83442 6.63372 1.40342 6.10271 1.14877 5.48123C0.894134 4.85975 0.827308 4.17575 0.956757 3.5158C1.08621 2.85585 1.40611 2.24962 1.87597 1.77385C2.34584 1.29808 2.94454 0.974153 3.5963 0.843077C4.24806 0.712001 4.92357 0.779667 5.53733 1.03751C6.15109 1.29535 6.67551 1.73178 7.04421 2.29155C7.4129 2.85131 7.6093 3.50926 7.60854 4.1821C7.6065 5.08224 7.25246 5.94493 6.62387 6.58143C5.99527 7.21792 5.1433 7.57642 4.25433 7.57848Z" fill="white"></path>
</svg>