<svg xmlns="http://www.w3.org/2000/svg" xmlns:xlink="http://www.w3.org/1999/xlink">
<defs><style>#blog-sign{fill:#fbb02b;}#discuss-sign{fill:#1997c2;}#do-sign{fill:#dd6902;}#group-sign{fill:#71a330;}#talk-sign{fill:#cf246c;}#poll-sign{fill:#2bbbc0;}</style></defs>
  <symbol id="blog-sign" viewBox="0 0 24 24">
    <title>blog sign</title>
    <path d="M12,2.5A9.5,9.5,0,1,1,2.5,12,9.51,9.51,0,0,1,12,2.5M12,0A12,12,0,1,0,24,12,12,12,0,0,0,12,0h0Z"/>
    <path d="M15.52,6.14L8.44,13.21a0.61,0.61,0,0,0,0,.87l1.81,1.81a0.61,0.61,0,0,0,.87,0l7.08-7.08a0.61,0.61,0,0,0,0-.87L16.38,6.14A0.61,0.61,0,0,0,15.52,6.14Zm1,2.3L13.6,11.3l-0.66-.67L15.8,7.77Z"/><polygon class="cls-blog" points="7.56 14.34 9.85 16.63 6.67 17.54 7.56 14.34"/>
  </symbol>
  <symbol id="discuss-sign" viewBox="0 0 24 24">
      <title>Discuss sign</title>
      <path class="cls-discuss" d="M12,2.5A9.5,9.5,0,1,1,2.5,12,9.51,9.51,0,0,1,12,2.5M12,0A12,12,0,1,0,24,12,12,12,0,0,0,12,0h0Z"/>
      <path class="cls-discuss" d="M17.85,8.52H9.11a0.68,0.68,0,0,0-.68.68V16.3a0.68,0.68,0,0,0,.68.68h4.73l1.68,2,0.06-2h2.26a0.68,0.68,0,0,0,.68-0.68V9.21A0.68,0.68,0,0,0,17.85,8.52Zm-1.3,6.55H10.41V10.51h6.13v4.57Z"/>
      <path class="cls-discuss" d="M15.94,8V6.68A0.68,0.68,0,0,0,15.26,6H6.53a0.68,0.68,0,0,0-.68.68v7.09a0.68,0.68,0,0,0,.68.68h1.3V8.88A0.9,0.9,0,0,1,8.73,8h7.22Z"/>
  </symbol>
  <symbol id="do-sign" viewBox="0 0 24 24">
      <title>Do sign</title>
      <path class="cls-do" d="M12,2.5A9.5,9.5,0,1,1,2.5,12,9.51,9.51,0,0,1,12,2.5M12,0A12,12,0,1,0,24,12,12,12,0,0,0,12,0h0Z"/>
      <polygon class="cls-do" points="5.49 13.74 8.01 11.29 10.22 13.74 17.15 7 19.68 9.42 10.06 18.71 5.49 13.74"/>
  </symbol>
  <symbol id="group-sign" viewBox="0 0 24 24">
      <title>Groups sign</title>
      <path class="cls-group" d="M12,2.5A9.5,9.5,0,1,1,2.5,12,9.51,9.51,0,0,1,12,2.5M12,0A12,12,0,1,0,24,12,12,12,0,0,0,12,0h0Z"/>
      <polygon class="cls-group" points="18.41 13.55 15.67 13.55 17.21 16 19.95 16 18.41 13.55"/>
      <polygon class="cls-group" points="5.96 13.55 4.42 16 7.16 16 8.7 13.55 5.96 13.55"/>
      <path class="cls-group" d="M17,13a2,2,0,0,0,1.78-2.21A2,2,0,0,0,17,8.57,1.55,1.55,0,0,0,16,9c0,0.17,0,.35,0,0.52a5.29,5.29,0,0,1-.55,2.38A1.76,1.76,0,0,0,17,13Z"/>
      <path class="cls-group" d="M7.43,13A1.76,1.76,0,0,0,9,11.88a5.29,5.29,0,0,1-.55-2.38c0-.18,0-0.35,0-0.52a1.55,1.55,0,0,0-1-.4,2,2,0,0,0-1.78,2.21A2,2,0,0,0,7.43,13Z"/>
      <ellipse class="cls-group" cx="12.23" cy="9.49" rx="2.82" ry="3.49"/>
      <polygon class="cls-group" points="9.36 13.55 7.82 16 16.61 16 15.07 13.55 9.36 13.55"/>
  </symbol>
  <symbol id="poll-sign" viewBox="0 0 24 24">
      <title>Poll sign</title>
      <path d="M12,2.5A9.5,9.5,0,1,1,2.5,12,9.51,9.51,0,0,1,12,2.5M12,0A12,12,0,1,0,24,12,12,12,0,0,0,12,0h0Z"/>
      <path d="M17.43,7H6.24a0.57,0.57,0,0,0-.57.57v9.06a0.57,0.57,0,0,0,.57.57H17.43A0.57,0.57,0,0,0,18,16.63V7.57A0.57,0.57,0,0,0,17.43,7ZM17,16.24H6.63V8H17v8.28Z"/>
      <rect x="14.63" y="10.52" width="1.6" height="4.81"/>
      <rect x="7.42" y="11.67" width="1.6" height="3.66"/>
      <rect x="12.23" y="12.62" width="1.6" height="2.71"/>
      <rect x="9.82" y="8.92" width="1.6" height="6.41"/>
  </symbol>
  <symbol id="talk-sign" viewBox="0 0 24 24">
      <title>Talk</title>
      <path d="M12,2.5A9.5,9.5,0,1,1,2.5,12,9.51,9.51,0,0,1,12,2.5M12,0A12,12,0,1,0,24,12,12,12,0,0,0,12,0h0Z"/>
      <path d="M12.36,14.15A1.75,1.75,0,0,0,14.1,12.4V6.69a1.75,1.75,0,1,0-3.49,0V12.4a1.75,1.75,0,0,0,1.75,1.75h0Zm0.05,0.18"/>
      <path d="M16.15,10.61H15.69a0.27,0.27,0,0,0-.27.27v0.95a3,3,0,0,1-6,0V10.87a0.27,0.27,0,0,0-.27-0.27H8.67a0.27,0.27,0,0,0-.27.27v0.95a4.07,4.07,0,0,0,3.51,4V18H9.83a0.27,0.27,0,0,0-.27.27v0.46a0.27,0.27,0,0,0,.27.27H15a0.27,0.27,0,0,0,.27-0.27V18.27A0.27,0.27,0,0,0,15,18H12.91V15.8a4.07,4.07,0,0,0,3.51-4V10.87a0.27,0.27,0,0,0-.27-0.27h0Zm0,0"/>
  </symbol>

  <symbol id="edit-sign" viewBox="0 0 40 40">
      <title>edit-icon</title>
	  <path class="cls-1" d="M24.87,6.74L33,14.88l-20.6,20.6L4.28,27.34Zm14.31-2L35.56,1.15a3.6,3.6,0,0,0-5.09,0L27,4.63l8.14,8.14,4.05-4.05A2.77,2.77,0,0,0,39.18,4.78ZM0,38.77a0.93,0.93,0,0,0,1.12,1.1l9.07-2.2L2.08,29.54Z"/>
  </symbol>


 <symbol id="strip-blog" viewBox="0 0 24 24">
      <title>blog</title>
	  <style type="text/css">.st0{fill:#FFFFFF;}</style>
	<path class="st0" d="M18.4,1L5.5,14c-0.4,0.4-0.4,1.1,0,1.6l3.3,3.3c0.4,0.4,1.1,0.4,1.6,0L23.3,5.9c0.4-0.4,0.4-1.1,0-1.6L20,1   C19.5,0.6,18.8,0.6,18.4,1z M20.1,5.2l-5.2,5.2l-1.2-1.2L18.9,4L20.1,5.2z"/>
	<polygon class="st0" points="3.9,16 8.1,20.2 2.3,21.8  "/>
  </symbol>

  <symbol id="strip-discuss" viewBox="0 0 24 24">
      <title>discuss</title>
	 <style type="text/css">.st0{fill:#FFFFFF;}</style>
	 <path class="st0" d="M22.4,4.7H6.3C5.6,4.7,5.1,5.3,5.1,6V19c0,0.7,0.6,1.3,1.3,1.3H15l3.1,3.7l0.1-3.7h4.2c0.7,0,1.3-0.6,1.3-1.3   V6C23.7,5.3,23.1,4.7,22.4,4.7z M20,16.8H8.7V8.4H20V16.8z"/>
	<path class="st0" d="M18.9,3.7V1.3c0-0.7-0.6-1.3-1.3-1.3H1.6C0.9,0,0.3,0.6,0.3,1.3v13.1c0,0.7,0.6,1.3,1.3,1.3H4V5.4   c0-0.9,0.7-1.7,1.7-1.7H18.9z"/>
  </symbol>

  <symbol id="strip-do" viewBox="0 0 24 24">
      <title>do</title>
	 <style type="text/css">.st0{fill:#FFFFFF;}</style>
	 <polygon class="st0" points="0,13.5 4.3,9.4 8,13.5 19.7,2.1 24,6.2 7.7,21.9 "/>
  </symbol>

  <symbol id="strip-groups" viewBox="0 0 24 24">
      <title>groups</title>
	 <style type="text/css">.st0{fill:#FFFFFF;}</style>
	<polygon class="st0" points="21.6,15.9 17.4,15.9 19.8,19.7 24,19.7  "/>
	<polygon class="st0" points="2.4,15.9 0,19.7 4.2,19.7 6.6,15.9  "/>
	<path class="st0" d="M19.4,15.1c1.5,0,2.7-1.5,2.7-3.4c0-1.9-1.2-3.4-2.7-3.4c-0.6,0-1.1,0.2-1.6,0.6c0,0.3,0,0.5,0,0.8   c0,1.4-0.3,2.6-0.9,3.7C17.5,14.4,18.4,15.1,19.4,15.1z"/>
	<path class="st0" d="M4.7,15.1c1,0,1.9-0.7,2.4-1.7C6.5,12.3,6.2,11,6.2,9.7c0-0.3,0-0.5,0-0.8c-0.4-0.4-1-0.6-1.6-0.6   c-1.5,0-2.7,1.5-2.7,3.4C1.9,13.5,3.1,15.1,4.7,15.1z"/>
	<ellipse class="st0" cx="12.1" cy="9.7" rx="4.4" ry="5.4"/>
	<polygon class="st0" points="7.6,15.9 5.3,19.7 18.8,19.7 16.5,15.9  "/>
  </symbol>

  <symbol id="strip-poll" viewBox="0 0 24 24">
      <title>poll</title>
	 <style type="text/css">.st0{fill:#FFFFFF;}</style>
	<path class="st0" d="M22.8,2.1H1.2c-0.6,0-1.1,0.5-1.1,1.1v17.5c0,0.6,0.5,1.1,1.1,1.1h21.6c0.6,0,1.1-0.5,1.1-1.1V3.2   C23.9,2.6,23.4,2.1,22.8,2.1z M22.1,20H1.9V4h20.1V20z"/>
	<rect x="17.4" y="8.9" class="st0" width="3.1" height="9.3"/>
	<rect x="3.5" y="11.2" class="st0" width="3.1" height="7.1"/>
	<rect x="12.8" y="13" class="st0" width="3.1" height="5.2"/>
	<rect x="8.1" y="5.8" class="st0" width="3.1" height="12.4"/>
  </symbol>

  <symbol id="strip-talk" viewBox="0 0 24 24">
      <title>talk</title>
	 <style type="text/css">.st0{fill:#FFFFFF;}</style>
	<path class="st0" d="M11.9,15.7c1.6,0,3-1.3,3-3V3c0-1.6-1.3-3-3-3c-1.6,0-3,1.3-3,3v9.8C8.9,14.4,10.3,15.7,11.9,15.7L11.9,15.7z    M12,16"/>
	<path class="st0" d="M18.4,9.7h-0.8c-0.3,0-0.5,0.2-0.5,0.5v1.6c0,2.8-2.3,5.1-5.1,5.1c-2.8,0-5.1-2.3-5.1-5.1v-1.6   c0-0.3-0.2-0.5-0.5-0.5H5.6c-0.3,0-0.5,0.2-0.5,0.5v1.6c0,3.4,2.6,6.4,6,6.8v3.7H7.6c-0.3,0-0.5,0.2-0.5,0.5v0.8   c0,0.3,0.2,0.5,0.5,0.5h8.8c0.3,0,0.5-0.2,0.5-0.5v-0.8c0-0.3-0.2-0.5-0.5-0.5h-3.5v-3.7c3.4-0.4,6-3.4,6-6.8v-1.6   C18.9,9.9,18.6,9.7,18.4,9.7L18.4,9.7z M18.4,9.7"/>
  </symbol>

  <symbol id="strip-user" viewBox="0 0 24 24">
      <title>user</title>
	 <style type="text/css">.st0{fill:#FFFFFF;}</style>
	<path class="st0" d="M11.9,15.7c1.6,0,3-1.3,3-3V3c0-1.6-1.3-3-3-3c-1.6,0-3,1.3-3,3v9.8C8.9,14.4,10.3,15.7,11.9,15.7L11.9,15.7z    M12,16"/>
	<path class="st0" d="M12,12.7c3,0,5.4-2.8,5.4-6.3c0-4.8-2.4-6.3-5.4-6.3c-3,0-5.4,1.5-5.4,6.3C6.6,9.9,9,12.7,12,12.7z"/>
		<path class="st0" d="M23.9,22l-2.7-6.1c-0.1-0.3-0.3-0.5-0.6-0.7L16.3,13c-0.1,0-0.2,0-0.3,0c-1.2,0.9-2.6,1.4-4.1,1.4    c-1.5,0-2.9-0.5-4.1-1.4C7.9,13,7.8,13,7.7,13l-4.2,2.2c-0.3,0.1-0.5,0.4-0.6,0.7L0.1,22c-0.2,0.4-0.1,0.9,0.1,1.3    c0.3,0.4,0.7,0.6,1.1,0.6h21.3c0.5,0,0.9-0.2,1.1-0.6C24,22.9,24.1,22.4,23.9,22z"/>
  </symbol>




  <symbol id="strip-blog-hover" viewBox="0 0 24 24">
      <title>blog hover</title>
	  <style type="text/css">.blog-hover{fill:#fba714;}</style>
	<path class="blog-hover" d="M18.4,1L5.5,14c-0.4,0.4-0.4,1.1,0,1.6l3.3,3.3c0.4,0.4,1.1,0.4,1.6,0L23.3,5.9c0.4-0.4,0.4-1.1,0-1.6L20,1   C19.5,0.6,18.8,0.6,18.4,1z M20.1,5.2l-5.2,5.2l-1.2-1.2L18.9,4L20.1,5.2z"/>
	<polygon class="blog-hover" points="3.9,16 8.1,20.2 2.3,21.8  "/>
  </symbol>

  <symbol id="strip-discuss-hover" viewBox="0 0 24 24">
      <title>discuss hover</title>
	 <style type="text/css">.discuss-hover{fill:#008bbb;}</style>
	 <path class="discuss-hover" d="M22.4,4.7H6.3C5.6,4.7,5.1,5.3,5.1,6V19c0,0.7,0.6,1.3,1.3,1.3H15l3.1,3.7l0.1-3.7h4.2c0.7,0,1.3-0.6,1.3-1.3   V6C23.7,5.3,23.1,4.7,22.4,4.7z M20,16.8H8.7V8.4H20V16.8z"/>
	<path class="discuss-hover" d="M18.9,3.7V1.3c0-0.7-0.6-1.3-1.3-1.3H1.6C0.9,0,0.3,0.6,0.3,1.3v13.1c0,0.7,0.6,1.3,1.3,1.3H4V5.4   c0-0.9,0.7-1.7,1.7-1.7H18.9z"/>
  </symbol>

  <symbol id="strip-do-hover" viewBox="0 0 24 24">
      <title>do hover</title>
	 <style type="text/css">.do-hover{fill:#dc6800;}</style>
	 <polygon class="do-hover" points="0,13.5 4.3,9.4 8,13.5 19.7,2.1 24,6.2 7.7,21.9 "/>
  </symbol>

  <symbol id="strip-groups-hover" viewBox="0 0 24 24">
      <title>groups hover</title>
	 <style type="text/css">.group-hover{fill:#71a330;}</style>
	<polygon class="group-hover" points="21.6,15.9 17.4,15.9 19.8,19.7 24,19.7  "/>
	<polygon class="group-hover" points="2.4,15.9 0,19.7 4.2,19.7 6.6,15.9  "/>
	<path class="group-hover" d="M19.4,15.1c1.5,0,2.7-1.5,2.7-3.4c0-1.9-1.2-3.4-2.7-3.4c-0.6,0-1.1,0.2-1.6,0.6c0,0.3,0,0.5,0,0.8   c0,1.4-0.3,2.6-0.9,3.7C17.5,14.4,18.4,15.1,19.4,15.1z"/>
	<path class="group-hover" d="M4.7,15.1c1,0,1.9-0.7,2.4-1.7C6.5,12.3,6.2,11,6.2,9.7c0-0.3,0-0.5,0-0.8c-0.4-0.4-1-0.6-1.6-0.6   c-1.5,0-2.7,1.5-2.7,3.4C1.9,13.5,3.1,15.1,4.7,15.1z"/>
	<ellipse class="group-hover" cx="12.1" cy="9.7" rx="4.4" ry="5.4"/>
	<polygon class="group-hover" points="7.6,15.9 5.3,19.7 18.8,19.7 16.5,15.9  "/>
  </symbol>

  <symbol id="strip-poll-hover" viewBox="0 0 24 24">
      <title>poll hover</title>
	 <style type="text/css">.poll-hover{fill:#14b3b9;}</style>
	<path class="poll-hover" d="M22.8,2.1H1.2c-0.6,0-1.1,0.5-1.1,1.1v17.5c0,0.6,0.5,1.1,1.1,1.1h21.6c0.6,0,1.1-0.5,1.1-1.1V3.2   C23.9,2.6,23.4,2.1,22.8,2.1z M22.1,20H1.9V4h20.1V20z"/>
	<rect x="17.4" y="8.9" class="poll-hover" width="3.1" height="9.3"/>
	<rect x="3.5" y="11.2" class="poll-hover" width="3.1" height="7.1"/>
	<rect x="12.8" y="13" class="poll-hover" width="3.1" height="5.2"/>
	<rect x="8.1" y="5.8" class="poll-hover" width="3.1" height="12.4"/>
  </symbol>

  <symbol id="strip-talk-hover" viewBox="0 0 24 24">
      <title>talk hover</title>
	 <style type="text/css">.talk-hover{fill:#ca0c5c;}</style>
	<path class="talk-hover" d="M11.9,15.7c1.6,0,3-1.3,3-3V3c0-1.6-1.3-3-3-3c-1.6,0-3,1.3-3,3v9.8C8.9,14.4,10.3,15.7,11.9,15.7L11.9,15.7z    M12,16"/>
	<path class="talk-hover" d="M18.4,9.7h-0.8c-0.3,0-0.5,0.2-0.5,0.5v1.6c0,2.8-2.3,5.1-5.1,5.1c-2.8,0-5.1-2.3-5.1-5.1v-1.6   c0-0.3-0.2-0.5-0.5-0.5H5.6c-0.3,0-0.5,0.2-0.5,0.5v1.6c0,3.4,2.6,6.4,6,6.8v3.7H7.6c-0.3,0-0.5,0.2-0.5,0.5v0.8   c0,0.3,0.2,0.5,0.5,0.5h8.8c0.3,0,0.5-0.2,0.5-0.5v-0.8c0-0.3-0.2-0.5-0.5-0.5h-3.5v-3.7c3.4-0.4,6-3.4,6-6.8v-1.6   C18.9,9.9,18.6,9.7,18.4,9.7L18.4,9.7z M18.4,9.7"/>
  </symbol>

  <symbol id="strip-user-hover" viewBox="0 0 24 24">
      <title>user hover</title>
	 <style type="text/css">.st-hover{fill:#188686;}</style>
	<path class="st-hover" d="M11.9,15.7c1.6,0,3-1.3,3-3V3c0-1.6-1.3-3-3-3c-1.6,0-3,1.3-3,3v9.8C8.9,14.4,10.3,15.7,11.9,15.7L11.9,15.7z    M12,16"/>
	<path class="st-hover" d="M12,12.7c3,0,5.4-2.8,5.4-6.3c0-4.8-2.4-6.3-5.4-6.3c-3,0-5.4,1.5-5.4,6.3C6.6,9.9,9,12.7,12,12.7z"/>
		<path class="st-hover" d="M23.9,22l-2.7-6.1c-0.1-0.3-0.3-0.5-0.6-0.7L16.3,13c-0.1,0-0.2,0-0.3,0c-1.2,0.9-2.6,1.4-4.1,1.4    c-1.5,0-2.9-0.5-4.1-1.4C7.9,13,7.8,13,7.7,13l-4.2,2.2c-0.3,0.1-0.5,0.4-0.6,0.7L0.1,22c-0.2,0.4-0.1,0.9,0.1,1.3    c0.3,0.4,0.7,0.6,1.1,0.6h21.3c0.5,0,0.9-0.2,1.1-0.6C24,22.9,24.1,22.4,23.9,22z"/>
  </symbol>

  <symbol id="act_bg_blog" viewBox="0 0 24 24">
      <title>Activity blog icon with background</title>
	 <style type="text/css">.act_blog{fill:#71A330;}.act_blog1{fill:#FFFFFF;}</style>
	<circle class="act_blog" cx="12" cy="12" r="12"/>
    <path class="act_blog1" d="M16.7,4.8l-8.8,8.8c-0.3,0.3-0.3,0.8,0,1.1l2.2,2.2c0.3,0.3,0.8,0.3,1.1,0L20,8.1c0.3-0.3,0.3-0.8,0-1.1   l-2.2-2.2C17.5,4.5,17,4.5,16.7,4.8z M17.9,7.7l-3.6,3.6l-0.8-0.8L17,6.8L17.9,7.7z"/>
	<polygon class="act_blog1" points="6.8,15 9.6,17.9 5.7,19  "/>
  </symbol>

  <symbol id="act_bg_groups" viewBox="0 0 24 24">
      <title>Activity group icon with background</title>
	 <style type="text/css">.act_group{fill:#71A330;}.act_group1{fill:#FFFFFF;}</style>
	<circle class="act_group" cx="12" cy="12" r="12"/>
        <polygon class="act_group1" points="19.4,14.7 16.2,14.7 18,17.6 21.3,17.6  "/>
        <polygon class="act_group1" points="4.6,14.7 2.8,17.6 6,17.6 7.8,14.7  "/>
        <path class="act_group1" d="M17.7,14.1c1.2,0,2.1-1.2,2.1-2.6c0-1.5-1-2.6-2.1-2.6c-0.5,0-0.9,0.2-1.2,0.5c0,0.2,0,0.4,0,0.6             c0,1-0.2,2-0.7,2.8C16.2,13.5,16.9,14.1,17.7,14.1z"/>
        <path class="act_group1" d="M6.3,14.1c0.8,0,1.5-0.5,1.8-1.3c-0.4-0.8-0.7-1.8-0.7-2.8c0-0.2,0-0.4,0-0.6C7.2,9,6.8,8.8,6.3,8.8             c-1.2,0-2.1,1.2-2.1,2.6C4.2,12.9,5.2,14.1,6.3,14.1z"/>
        <ellipse class="act_group1" cx="12" cy="9.9" rx="3.4" ry="4.2"/>
        <polygon class="act_group1" points="8.6,14.7 6.8,17.6 17.3,17.6 15.4,14.7  "/>
  </symbol>

  <symbol id="act_bg_blog" viewBox="0 0 24 24">
      <title>Activity blog icon with background</title>
	 <style type="text/css">.act_blog{fill:#FBB02B;}.act_blog1{fill:#FFFFFF;}</style>
	<circle class="act_blog" cx="12" cy="12" r="12"/>
   <path class="act_blog1" d="M16.7,4.8l-8.8,8.8c-0.3,0.3-0.3,0.8,0,1.1l2.2,2.2c0.3,0.3,0.8,0.3,1.1,0L20,8.1c0.3-0.3,0.3-0.8,0-1.1   l-2.2-2.2C17.5,4.5,17,4.5,16.7,4.8z M17.9,7.7l-3.6,3.6l-0.8-0.8L17,6.8L17.9,7.7z"/>
	<polygon class="act_blog1" points="6.8,15 9.6,17.9 5.7,19  "/>
  </symbol>
  <symbol id="act_bg_discuss" viewBox="0 0 24 24">
      <title>Activity Discuss icon with background</title>
	 <style type="text/css">.act_discuss{fill:#1997C2;}.act_discuss1{fill:#FFFFFF;}</style>
	<circle class="act_discuss" cx="12" cy="12" r="12"/>
	<path class="act_discuss1" d="M19.4,7.6H8C7.5,7.6,7.1,8,7.1,8.5v9.3c0,0.5,0.4,0.9,0.9,0.9h6.2l2.2,2.6l0.1-2.6h3c0.5,0,0.9-0.4,0.9-0.9   V8.5C20.3,8,19.9,7.6,19.4,7.6z M17.7,16.2h-8v-6h8V16.2z"/>
	<path class="act_discuss1" d="M16.9,6.9V5.2c0-0.5-0.4-0.9-0.9-0.9H4.6c-0.5,0-0.9,0.4-0.9,0.9v9.3c0,0.5,0.4,0.9,0.9,0.9h1.7V8.1   c0-0.6,0.5-1.2,1.2-1.2H16.9z"/>
  </symbol>

  <symbol id="act_bg_do" viewBox="0 0 24 24">
      <title>Activity Do icon with background</title>
	 <style type="text/css">.act_do{fill:#E07719;}.act_do1{fill:#FFFFFF;}</style>
	<circle class="act_do" cx="12" cy="12" r="12"/>
    <polygon class="act_do1" points="2.3,14.2 5.6,10.9 8.5,14.2 17.6,5.3 20.9,8.5 8.2,20.7 "/>
  </symbol>

  <symbol id="act_bg_poll" viewBox="0 0 24 24">
      <title>Activity Poll icon with background</title>
	 <style type="text/css">.act_poll{fill:#2BBBC0;}.act_poll1{fill:#FFFFFF;}</style>
	<circle class="act_poll" cx="12" cy="12" r="12"/>
	<path class="act_poll1" d="M20.1,5.2H5c-0.4,0-0.8,0.3-0.8,0.8v12.2c0,0.4,0.3,0.8,0.8,0.8h15.1c0.4,0,0.8-0.3,0.8-0.8V5.9   C20.8,5.5,20.5,5.2,20.1,5.2z M19.6,17.6h-14V6.4h14V17.6z"/>
	<rect x="16.3" y="9.9" class="act_poll1" width="2.2" height="6.5"/>
	<rect x="6.6" y="11.5" class="act_poll1" width="2.2" height="4.9"/>
	<rect x="13.1" y="12.7" class="act_poll1" width="2.2" height="3.6"/>
	<rect x="9.8" y="7.7" class="act_poll1" width="2.2" height="8.6"/>
  </symbol>
<symbol id="act_bg_talk" viewBox="0 0 24 24">
      <title>Activity Talk icon with background</title>
	 <style type="text/css">.act_talk{fill:#CF246C;}.act_talk1{fill:#FFFFFF;}</style>
	<circle class="act_talk" cx="12" cy="12" r="12"/>
	<path class="act_talk1" d="M12.4,14.8c1.3,0,2.3-1,2.3-2.3V5.1c0-1.3-1-2.3-2.3-2.3c-1.3,0-2.3,1-2.3,2.3v7.4   C10.2,13.8,11.2,14.8,12.4,14.8L12.4,14.8z M12.5,15.1"/>
	<path class="act_talk1" d="M17.4,10.2h-0.6c-0.2,0-0.4,0.2-0.4,0.4v1.2c0,2.2-1.8,3.9-3.9,3.9c-2.2,0-3.9-1.8-3.9-3.9v-1.2   c0-0.2-0.2-0.4-0.4-0.4H7.6c-0.2,0-0.4,0.2-0.4,0.4v1.2c0,2.6,2,4.9,4.6,5.2v2.9H9.1c-0.2,0-0.4,0.2-0.4,0.4v0.6   c0,0.2,0.2,0.4,0.4,0.4h6.7c0.2,0,0.4-0.2,0.4-0.4v-0.6c0-0.2-0.2-0.4-0.4-0.4h-2.7V17c2.6-0.3,4.6-2.6,4.6-5.2v-1.2   C17.7,10.4,17.6,10.2,17.4,10.2L17.4,10.2z M17.4,10.2"/>
  </symbol>

  <symbol id="facebook_white" viewBox="279.213 155.907 283.465 283.465">
   <title>Facebook white icon</title>
	<path fill="#ffffff" d="M390.903,439.393V310.674h-43.381v-52.547h43.381v-44.129c0-32.095,26.018-58.111,58.112-58.111h45.353  v47.251h-32.453c-10.197,0-18.466,8.267-18.466,18.465v36.525h50.104l-6.925,52.547h-43.179v128.718"/>
  </symbol>
  <symbol id="twitter_white" viewBox="0 0 20 20">
   <title>Twitter white icon</title>
	<!-- <path fill="#FFFFFF" d="M473.17,209.614c-10.557,4.631-21.805,7.701-33.535,9.191c12.066-7.204,21.275-18.524,25.605-32.168  c-11.25,6.707-23.67,11.444-36.908,14.088c-10.681-11.373-25.904-18.417-42.513-18.417c-32.222,0-58.163,26.153-58.163,58.216  c0,4.613,0.39,9.049,1.348,13.272c-48.386-2.36-91.202-25.551-119.963-60.878c-5.022,8.712-7.967,18.685-7.967,29.419  c0,20.157,10.379,38.024,25.852,48.369c-9.351-0.177-18.524-2.892-26.296-7.168c0,0.178,0,0.408,0,0.639  c0,28.283,20.175,51.775,46.63,57.187c-4.738,1.295-9.901,1.917-15.26,1.917c-3.726,0-7.487-0.214-11.019-0.994  c7.541,23.048,28.939,39.993,54.384,40.544c-19.802,15.49-44.944,24.822-72.163,24.822c-4.773,0-9.35-0.211-13.929-0.799  c25.781,16.627,56.335,26.119,89.285,26.119c107.099,0,165.653-88.717,165.653-165.617c0-2.573-0.088-5.058-0.213-7.524  C455.551,231.634,465.258,221.396,473.17,209.614z"/> -->
  <path d="M15.2033 1.875H17.96L11.9375 8.75833L19.0225 18.125H13.475L9.13 12.4442L4.15833 18.125H1.4L7.84167 10.7625L1.045 1.875H6.73333L10.6608 7.0675L15.2033 1.875ZM14.2358 16.475H15.7633L5.90333 3.43833H4.26417L14.2358 16.475Z" fill="white"/>
  </symbol>
  <symbol id="youtube_white" viewBox="279.213 155.907 283.465 283.465">
   <title>Youtube white icon</title>
	<path fill="#FFFFFF" d="M559.789,236.529c0,0-2.932-21.022-11.242-30.311c-10.756-12.222-22.979-12.222-28.357-12.711  c-39.6-2.933-99.244-3.422-99.244-3.422s-59.644,0.489-99.244,3.422c-5.378,0.489-17.6,0.978-28.356,12.711  c-8.8,9.29-11.244,30.311-11.244,30.311s-2.934,24.934-2.934,49.867v22.978c0,24.935,2.934,49.379,2.934,49.379  s2.933,21.021,11.244,30.311c10.756,12.223,24.934,11.733,31.289,13.2c22.488,2.443,96.311,2.933,96.311,2.933  s59.645,0,99.244-3.422c5.379-0.489,17.602-0.978,28.357-12.711c8.311-9.289,11.242-30.312,11.242-30.312s2.934-24.934,2.934-49.378  v-22.978C562.722,261.462,559.789,236.529,559.789,236.529z M386.723,354.352V248.262l92.888,54.266L386.723,354.352z"/>
  </symbol>
  <symbol id="instagram_white" viewBox="279.213 155.907 283.465 283.465">
   <title>Instagram white icon</title>
	<path fill="#FFFFFF" d="M478.232,155.907H363.659c-46.563,0-84.446,37.882-84.446,84.446v114.573   c0,46.563,37.883,84.445,84.446,84.445h114.573c46.563,0,84.445-37.882,84.445-84.445V240.354   C562.677,193.789,524.796,155.907,478.232,155.907z M534.162,354.927c0,30.889-25.041,55.929-55.93,55.929H363.659   c-30.888,0-55.93-25.04-55.93-55.929V240.354c0-30.89,25.042-55.93,55.93-55.93h114.573c30.889,0,55.93,25.04,55.93,55.93V354.927   L534.162,354.927z"/>
	<path fill="#FFFFFF" d="M420.945,224.326c-40.426,0-73.313,32.888-73.313,73.313c0,40.425,32.888,73.313,73.313,73.313   s73.313-32.889,73.313-73.313C494.259,257.214,461.371,224.326,420.945,224.326z M420.945,342.438   c-24.741,0-44.797-20.056-44.797-44.798c0-24.741,20.057-44.797,44.797-44.797c24.742,0,44.798,20.056,44.798,44.797   C465.743,322.38,445.685,342.438,420.945,342.438z"/>
	<circle fill="#FFFFFF" cx="494.402" cy="224.876" r="17.567"/>
  </symbol>

  <symbol id="facebook" viewBox="279.213 155.907 283.465 283.465">
   <title>Facebook icon</title>
	<path fill="#3A559F" d="M390.903,439.393V310.674h-43.381v-52.547h43.381v-44.129c0-32.095,26.018-58.111,58.112-58.111h45.353  v47.251h-32.453c-10.197,0-18.466,8.267-18.466,18.465v36.525h50.104l-6.925,52.547h-43.179v128.718"/>
  </symbol>
  <symbol id="twitter" viewBox="0 0 20 20">
   <title>twitter icon</title>
	<!-- <path fill="#03A9F4" d="M473.17,209.614c-10.557,4.631-21.805,7.701-33.535,9.191c12.066-7.204,21.275-18.524,25.605-32.168  c-11.25,6.707-23.67,11.444-36.908,14.088c-10.681-11.373-25.904-18.417-42.513-18.417c-32.222,0-58.163,26.153-58.163,58.216  c0,4.613,0.39,9.049,1.348,13.272c-48.386-2.36-91.202-25.551-119.963-60.878c-5.022,8.712-7.967,18.685-7.967,29.419  c0,20.157,10.379,38.024,25.852,48.369c-9.351-0.177-18.524-2.892-26.296-7.168c0,0.178,0,0.408,0,0.639  c0,28.283,20.175,51.775,46.63,57.187c-4.738,1.295-9.901,1.917-15.26,1.917c-3.726,0-7.487-0.214-11.019-0.994  c7.541,23.048,28.939,39.993,54.384,40.544c-19.802,15.49-44.944,24.822-72.163,24.822c-4.773,0-9.35-0.211-13.929-0.799  c25.781,16.627,56.335,26.119,89.285,26.119c107.099,0,165.653-88.717,165.653-165.617c0-2.573-0.088-5.058-0.213-7.524  C455.551,231.634,465.258,221.396,473.17,209.614z"/> -->
   <path d="M15.2033 1.875H17.96L11.9375 8.75833L19.0225 18.125H13.475L9.13 12.4442L4.15833 18.125H1.4L7.84167 10.7625L1.045 1.875H6.73333L10.6608 7.0675L15.2033 1.875ZM14.2358 16.475H15.7633L5.90333 3.43833H4.26417L14.2358 16.475Z" fill="black"/>
  </symbol>
  <symbol id="youtube" viewBox="279.213 155.907 283.465 283.465">
   <title>youtube icon</title>
	<path fill="#D8362A" d="M559.789,236.529c0,0-2.932-21.022-11.242-30.311c-10.756-12.222-22.979-12.222-28.357-12.711   c-39.6-2.933-99.244-3.422-99.244-3.422l0,0c0,0-59.644,0.489-99.244,3.422c-5.378,0.489-17.6,0.978-28.356,12.711   c-8.8,9.29-11.244,30.311-11.244,30.311s-2.934,24.934-2.934,49.867v22.978c0,24.935,2.934,49.379,2.934,49.379   s2.933,21.021,11.244,30.311c10.756,12.223,24.934,11.733,31.289,13.2c22.488,2.443,96.311,2.933,96.311,2.933   s59.645,0,99.244-3.422c5.379-0.489,17.602-0.978,28.357-12.711c8.311-9.289,11.242-30.312,11.242-30.312   s2.934-24.934,2.934-49.378v-22.978C562.722,261.462,559.789,236.529,559.789,236.529"/>
	<polygon fill="#FFFFFF" points="386.723,248.262 386.723,354.352 479.611,302.529  "/>
  </symbol>
  <symbol id="instagram" viewBox="279.213 155.907 283.465 283.465">
   <title>Instagram icon</title>
	<linearGradient id="SVGID_1_" gradientUnits="userSpaceOnUse" x1="252.427" y1="454.969" x2="252.427" y2="195.3757" gradientTransform="matrix(1.0803 0 0 1.0803 148.2496 -52.9543)">
		<stop offset="0" style="stop-color:#E09B3D"/>
		<stop offset="0.3" style="stop-color:#C74C4D"/>
		<stop offset="0.6" style="stop-color:#C21975"/>
		<stop offset="1" style="stop-color:#7024C4"/>
	</linearGradient>
	<path fill="url(#SVGID_1_)" d="M478.232,155.907H363.659c-46.563,0-84.446,37.882-84.446,84.446v114.573   c0,46.563,37.883,84.445,84.446,84.445h114.573c46.563,0,84.445-37.882,84.445-84.445V240.354   C562.677,193.789,524.796,155.907,478.232,155.907z M534.162,354.927c0,30.889-25.041,55.929-55.93,55.929H363.659   c-30.888,0-55.93-25.04-55.93-55.929V240.354c0-30.89,25.042-55.93,55.93-55.93h114.573c30.889,0,55.93,25.04,55.93,55.93V354.927   L534.162,354.927z"/>

		<linearGradient id="SVGID_2_" gradientUnits="userSpaceOnUse" x1="252.427" y1="454.968" x2="252.427" y2="195.3772" gradientTransform="matrix(1.0803 0 0 1.0803 148.2496 -52.9543)">
		<stop offset="0" style="stop-color:#E09B3D"/>
		<stop offset="0.3" style="stop-color:#C74C4D"/>
		<stop offset="0.6" style="stop-color:#C21975"/>
		<stop offset="1" style="stop-color:#7024C4"/>
	</linearGradient>
	<path fill="url(#SVGID_2_)" d="M420.945,224.326c-40.426,0-73.313,32.888-73.313,73.313c0,40.425,32.888,73.313,73.313,73.313   s73.313-32.889,73.313-73.313C494.259,257.214,461.371,224.326,420.945,224.326z M420.945,342.438   c-24.741,0-44.797-20.056-44.797-44.798c0-24.741,20.057-44.797,44.797-44.797c24.742,0,44.798,20.056,44.798,44.797   C465.743,322.38,445.685,342.438,420.945,342.438z"/>

		<linearGradient id="SVGID_3_" gradientUnits="userSpaceOnUse" x1="320.4231" y1="454.9661" x2="320.4231" y2="195.377" gradientTransform="matrix(1.0803 0 0 1.0803 148.2496 -52.9543)">
		<stop offset="0" style="stop-color:#E09B3D"/>
		<stop offset="0.3" style="stop-color:#C74C4D"/>
		<stop offset="0.6" style="stop-color:#C21975"/>
		<stop offset="1" style="stop-color:#7024C4"/>
	</linearGradient>
	<circle fill="url(#SVGID_3_)" cx="494.402" cy="224.876" r="17.567"/>
  </symbol>
<symbol id="hours" viewBox="0 0 16 16">
  <path fill="#223D7B" d="M8,0C3.6,0,0,3.6,0,8s3.6,8,8,8c4.4,0,8-3.6,8-8S12.4,0,8,0z M8,14.3c-3.5,0-6.3-2.8-6.3-6.3     S4.5,1.7,8,1.7s6.3,2.8,6.3,6.3S11.5,14.3,8,14.3z"/>
  <path fill="#223D7B" d="M12.2,7.8H8.6V3.4c0-0.4-0.3-0.7-0.7-0.7S7.3,3.1,7.3,3.4v5c0,0.4,0.3,0.7,0.7,0.7h4.3     c0.4,0,0.7-0.3,0.7-0.7C12.8,8,12.5,7.8,12.2,7.8z"/>
</symbol>

<symbol id="fb-whitebg" viewBox="0 0 20 20">
  <path fill="#FFFFFF" d="M10,0C4.5,0,0,4.5,0,10s4.5,10,10,10s10-4.5,10-10S15.5,0,10,0z M12.75,6.125c0,0-1,0-1.375,0    s-0.5,0.125-0.5,0.625c0,0.375,0,1.125,0,1.125h1.875L12.625,10h-1.75v6.125H8.5V10H7.25V7.875H8.5c0,0,0-0.25,0-1.625    c0-1.5,0.875-2.375,2.625-2.375c0.25,0,1.625,0,1.625,0V6.125z"/>
</symbol>
<symbol id="tw-whitebg" viewBox="0 0 20 20">
  <path fill="#FFFFFF" d="M10,0L10,0C4.5,0,0,4.5,0,10s4.5,10,10,10l0,0c5.5,0,10-4.5,10-10S15.5,0,10,0z M14.25,7.875    c0.125,3.125-2.125,6.5-6.25,6.5c-1.25,0-2.375-0.375-3.375-1C5.75,13.5,7,13.25,7.875,12.5c-1,0-1.75-0.625-2-1.5    c0.375,0.125,0.625,0,1,0c-1.125-0.375-1.75-1.25-1.75-2.25C5.375,8.875,5.75,9,6.125,9c-1-0.625-1.25-1.875-0.625-2.875    C6.625,7.5,8.25,8.375,10,8.375C9.625,7,10.625,5.625,12,5.625c0.625,0,1.25,0.25,1.625,0.75c0.5-0.125,1-0.25,1.375-0.5    c-0.125,0.5-0.5,1-1,1.25c0.5,0,0.875-0.125,1.25-0.375C15,7.125,14.625,7.5,14.25,7.875z"/>
</symbol>
<symbol id="campaign" viewBox="0 0 20 20">
<circle fill="#460DD9" cx="10" cy="10" r="10"/>
<path fill="#FFFFFF" d="M3,6.833c-0.25,0-0.5,0.25-0.5,0.5l0,0v3.833c0,0.25,0.25,0.5,0.5,0.5l0,0  c0.25,0,0.5-0.25,0.5-0.5l0,0V7.333C3.5,7.083,3.333,6.833,3,6.833L3,6.833z M13.084,4h-2c-0.25,0-0.5,0.25-0.5,0.5l0,0V5  L4.25,6.833c-0.167,0.083-0.333,0.333-0.333,0.5v3.833c0,0,0,0,0,0.084l0,0c0,0,0,0,0,0.084l1.333,4.332  C5.333,15.834,5.5,16,5.75,16c0,0,0.083,0,0.167,0l1.917-0.666c0.083,0,0.25-0.084,0.25-0.25c0.083-0.084,0.083-0.25,0-0.334  L7.5,12.5l3.166,0.916v0.418c0,0.25,0.25,0.5,0.5,0.5l0,0h2c0.25,0,0.5-0.25,0.5-0.5l0,0V4.5C13.584,4.25,13.334,4,13.084,4z   M7.083,14.584L6,14.916l-0.917-3.082l1.25,0.332L7.083,14.584z M6.917,11.334L6.917,11.334L4.833,10.75V7.667l5.75-1.75V12.5  L6.917,11.334z M12.584,13.416h-1V5h1V13.416z M16.75,11.916l-2.084-1.082c-0.25-0.084-0.5,0-0.666,0.25l0,0  c-0.084,0.25,0,0.5,0.25,0.666l2.084,1.084c0.082,0,0.166,0,0.25,0c0.166,0,0.332-0.084,0.416-0.25  C17.084,12.334,17,12.084,16.75,11.916L16.75,11.916z M14.5,7.583c0.084,0,0.166,0,0.25,0L16.834,6.5  c0.25-0.083,0.332-0.417,0.25-0.667c-0.168-0.25-0.418-0.333-0.668-0.25l0,0l-2.082,1.083C14.084,6.75,14,7.083,14.084,7.333  C14.166,7.5,14.334,7.583,14.5,7.583L14.5,7.583z M17,8.75h-1.75c-0.25,0-0.5,0.25-0.416,0.5c0,0.25,0.25,0.417,0.416,0.417H17  c0.25,0,0.5-0.25,0.416-0.5C17.416,8.917,17.25,8.75,17,8.75z"/>
</symbol>

<symbol id="whatsapp" viewBox="0 0 20 20">
<path d="M10.0021 0H9.99742C4.48336 0 -0.000231848 4.48516 -0.000231848 10C-0.00354569 12.1063 0.663237 14.159 1.90367 15.8613L0.657189 19.5762L4.50094 18.3477C6.13146 19.4292 8.04552 20.0041 10.0021 20C15.5162 20 19.9998 15.5137 19.9998 10C19.9998 4.48633 15.5162 0 10.0021 0Z" fill="#4CAF50"/>
<path d="M15.8204 14.121C15.5794 14.8022 14.622 15.3675 13.8579 15.5323C13.3356 15.6436 12.6532 15.7323 10.3556 14.78C7.41768 13.5624 5.5251 10.5761 5.37744 10.3823C5.23643 10.187 4.18994 8.80107 4.18994 7.3663C4.18994 5.93154 4.91885 5.23232 5.2126 4.93232C5.454 4.68622 5.85244 4.57372 6.23525 4.57372C6.35869 4.57372 6.46963 4.57997 6.57002 4.58505C6.86377 4.59755 7.01143 4.61474 7.20518 5.0788C7.44619 5.66005 8.03369 7.09482 8.10361 7.24247C8.17353 7.39013 8.2458 7.58974 8.1458 7.78349C8.05205 7.98349 7.96963 8.07255 7.82236 8.24247C7.6751 8.4124 7.53486 8.54247 7.38721 8.7249C7.25205 8.88349 7.09971 9.0538 7.27002 9.34755C7.43994 9.63505 8.02744 10.5936 8.89268 11.3636C10.0087 12.3573 10.9138 12.6749 11.2364 12.8089C11.4778 12.9089 11.7653 12.8851 11.9415 12.6976C12.1653 12.4561 12.4415 12.0561 12.7228 11.6624C12.9228 11.38 13.1751 11.3448 13.4403 11.4448C13.7103 11.5386 15.1388 12.2448 15.4325 12.3913C15.7263 12.5378 15.92 12.6089 15.9915 12.7323C16.063 12.8558 16.0626 13.4374 15.8204 14.121Z" fill="#FAFAFA"/>
</symbol>
<symbol id="linkdin" viewBox="0 0 20 22">
<path d="M20.9302 12.2503V19.99H16.443V12.7689C16.443 10.9553 15.7939 9.71725 14.171 9.71725C13.6626 9.72116 13.1679 9.88297 12.7555 10.1803C12.343 10.4776 12.0332 10.8958 11.8688 11.3769C11.7533 11.7285 11.7023 12.0981 11.7183 12.4678V19.99H7.23105C7.23105 19.99 7.29128 7.75975 7.23105 6.4949H11.7183V8.40555C11.7183 8.42229 11.6982 8.43567 11.6915 8.4524H11.7183V8.40555C12.1253 7.7005 12.7173 7.12018 13.4304 6.72738C14.1434 6.33457 14.9503 6.14426 15.7638 6.17701C18.7151 6.17701 20.9302 8.10775 20.9302 12.2503ZM2.53974 0C1.00385 0 0 1.00385 0 2.34231C0 3.68078 0.973733 4.68462 2.4795 4.68462H2.50962C4.07228 4.68462 5.04601 3.64731 5.04601 2.34231C5.04601 1.03731 4.07228 0 2.53974 0ZM0.264347 20H4.75155V6.4949H0.264347V20Z" fill="#007AB9"/>
</symbol>
<symbol id="messenger" viewBox="0 0 20 20">
<path d="M0 9.25781C0 12.1715 1.45352 14.7703 3.72578 16.468V20L7.13086 18.1316C8.06543 18.3894 9.03054 18.5197 10 18.5191C15.5223 18.5191 20 14.3742 20 9.26133C20 4.14844 15.5227 0 10 0C4.47734 0 0 4.14492 0 9.25781ZM8.94531 6.66484L11.5539 9.38047L16.4594 6.66484L10.9926 12.4676L8.44648 9.75234L3.47656 12.4684L8.94531 6.66484Z" fill="#2196F3"/>
</symbol>
<symbol id="podcast" viewBox="0 0 20 20">
<defs><style>.podcastbg-1{fill:#0d4ad4;}.podcastbg-2{fill:#fff;}</style></defs><title>menu-podcast-icon</title>
<circle class="podcastbg-1" cx="10" cy="10" r="10"/><path class="podcastbg-2" d="M13.93,12.55a.46.46,0,0,0,.64-.12l0,0a5.45,5.45,0,0,0,.92-3.07,5.51,5.51,0,0,0-11,0,5.45,5.45,0,0,0,.92,3.07.46.46,0,1,0,.76-.51h0a4.59,4.59,0,1,1,7.62,0,.46.46,0,0,0,.12.64l0,0Z"/>
<path class="podcastbg-2" d="M4.13,13.74a.46.46,0,1,0,.73-.55A6.42,6.42,0,1,1,16.42,9.34a6.36,6.36,0,0,1-1.29,3.85.46.46,0,0,0,.09.64h0a.46.46,0,0,0,.64-.09A7.34,7.34,0,1,0,2.66,9.34a7.28,7.28,0,0,0,1.47,4.4Z"/>
<path class="podcastbg-2" d="M10.17,14.38a1.66,1.66,0,0,1-1.66-1.66V7.36a1.66,1.66,0,0,1,3.31,0v5.42a1.65,1.65,0,0,1-1.66,1.6Z"/>
<path class="podcastbg-2" d="M7.41,11.79h.35A.2.2,0,0,1,8,12v.69a2.21,2.21,0,0,0,4.41,0V12a.2.2,0,0,1,.21-.21h.35a.2.2,0,0,1,.21.21v.69a3,3,0,0,1-2.6,2.94v1.6h1.51a.2.2,0,0,1,.21.21v.35a.2.2,0,0,1-.21.21H8.27a.2.2,0,0,1-.21-.21v-.35a.2.2,0,0,1,.21-.21H9.78v-1.6a3,3,0,0,1-2.6-2.94V12a.25.25,0,0,1,.22-.21Z"/>
</symbol>

<use xlink:href="#blog-sign" width="35" height="35" x="0" y="0"/>
<use xlink:href="#discuss-sign" width="35" height="35" x="0" y="36"/>
<use xlink:href="#do-sign" width="35" height="35" x="0" y="72"/>
<use xlink:href="#group-sign" width="35" height="35" x="0" y="108"/>
<use xlink:href="#poll-sign" width="35" height="35" x="0" y="144"/>
<use xlink:href="#talk-sign" width="35" height="35" x="0" y="180"/>
<use xlink:href="#edit-sign" width="35" height="35" x="0" y="220"/>


<use xlink:href="#strip-blog" width="16" height="16" x="50" y="0"/>
<use xlink:href="#strip-discuss" width="16" height="16" x="50" y="30"/>
<use xlink:href="#strip-do" width="16" height="16" x="50" y="70"/>
<use xlink:href="#strip-groups" width="16" height="16" x="50" y="100"/>
<use xlink:href="#strip-poll" width="16" height="16" x="50" y="130"/>
<use xlink:href="#strip-talk" width="16" height="16" x="50" y="160"/>
<use xlink:href="#strip-user" width="16" height="16" x="50" y="190"/>

<use xlink:href="#strip-blog-hover" width="16" height="16" x="90" y="0"/>
<use xlink:href="#strip-discuss-hover" width="16" height="16" x="90" y="30"/>
<use xlink:href="#strip-do-hover" width="16" height="16" x="90" y="70"/>
<use xlink:href="#strip-groups-hover" width="16" height="16" x="90" y="100"/>
<use xlink:href="#strip-poll-hover" width="16" height="16" x="90" y="130"/>
<use xlink:href="#strip-talk-hover" width="16" height="16" x="90" y="160"/>
<use xlink:href="#strip-user-hover" width="16" height="16" x="90" y="190"/>

<use xlink:href="#act_bg_blog" width="16" height="16" x="120" y="0"/>
<use xlink:href="#act_bg_discuss" width="16" height="16" x="120" y="40"/>
<use xlink:href="#act_bg_do" width="16" height="16" x="120" y="80"/>
<use xlink:href="#act_bg_groups" width="16" height="16" x="120" y="120"/>
<use xlink:href="#act_bg_poll" width="16" height="16" x="120" y="160"/>
<use xlink:href="#act_bg_talk" width="16" height="16" x="120" y="200"/>

<use xlink:href="#facebook_white" width="16" height="16" x="150" y="0"/>
<use xlink:href="#twitter_white" width="16" height="16" x="150" y="40"/>
<use xlink:href="#youtube_white" width="16" height="16" x="150" y="80"/>
<use xlink:href="#instagram_white" width="16" height="16" x="150" y="120"/>

<use xlink:href="#facebook" width="16" height="16" x="180" y="0"/>
<use xlink:href="#twitter" width="16" height="16" x="180" y="40"/>
<use xlink:href="#youtube" width="16" height="16" x="180" y="80"/>
<use xlink:href="#instagram" width="16" height="16" x="180" y="120"/>

<use xlink:href="#hours" width="16" height="16" x="180" y="150"/>
<use xlink:href="#fb-whitebg" width="16" height="16" x="180" y="180"/>
<use xlink:href="#tw-whitebg" width="16" height="16" x="180" y="210"/>
<use xlink:href="#campaign" width="20" height="20" x="88" y="220"/>
<use xlink:href="#podcast" width="20" height="20" x="88" y="250"/>
<use xlink:href="#whatsapp" width="20" height="20" x="88" y="280"/>
<use xlink:href="#linkdin" width="20" height="20" x="88" y="310"/>
<use xlink:href="#messenger" width="20" height="20" x="88" y="340"/>

<view id="blog-sign-view" viewBox="0 0 35 35"/>
<view id="discuss-sign-view" viewBox="0 36 35 35"/>
<view id="do-sign-view" viewBox="0 72 35 35"/>
<view id="group-sign-view" viewBox="0 108 35 35"/>
<view id="poll-sign-view" viewBox="0 144 35 35"/>
<view id="talk-sign-view" viewBox="0 180 35 35"/>

<view id="strip-blog-view" viewBox="50 0 16 16"/>
<view id="strip-discuss-view" viewBox="50 30 16 16"/>
<view id="strip-do-view" viewBox="50 70 16 16 "/>
<view id="strip-groups-view" viewBox="50 100 16 16"/>
<view id="strip-poll-view" viewBox="50 130 16 16"/>
<view id="strip-talk-view" viewBox="50 160 16 16"/>
<view id="strip-user-view" viewBox="50 190 16 16"/>

<view id="strip-blog1-view" viewBox="90 0 16 16"/>
<view id="strip-discuss1-view" viewBox="90 30 16 16"/>
<view id="strip-do1-view" viewBox="90 70 16 16"/>
<view id="strip-groups1-view" viewBox="90 100 16 16"/>
<view id="strip-poll1-view" viewBox="90 130 16 16"/>
<view id="strip-talk1-view" viewBox="90 160 16 16"/>
<view id="strip-user1-view" viewBox="90 190 16 16"/>

<view id="act-blog-view" viewBox="120 0 16 16"/>
<view id="act-discuss-view" viewBox="120 40 16 16"/>
<view id="act-do-view" viewBox="120 80 16 16"/>
<view id="act-groups-view" viewBox="120 120 16 16"/>
<view id="act-poll-view" viewBox="120 160 16 16"/>
<view id="act-talk-view" viewBox="120 200 16 16"/>

<view id="facebook_white-view" viewBox="150 0 16 16"/>
<view id="twitter_white-view" viewBox="150 40 16 16"/>
<view id="youtube_white-view" viewBox="150 80 16 16"/>
<view id="instagram_white-view" viewBox="150 120 16 16"/>

<view id="facebook-view" viewBox="180 0 16 16"/>
<view id="twitter-view" viewBox="180 40 16 16"/>
<view id="youtube-view" viewBox="180 80 16 16"/>
<view id="instagram-view" viewBox="180 120 16 16"/>
<view id="hours-view" viewBox="180 150 16 16"/>
<view id="fb-whitebg-view" viewBox="180 180 16 16"/>
<view id="tw-whitebg-view" viewBox="180 210 16 16"/>
<view id="campaign-view" viewBox="88 220 20 20"/>
<view id="podcast-view" viewBox="88 250 20 20"/>
<view id="whatsapp-view" viewBox="88 280 20 20"/>
<view id="linkdin-view" viewBox="88 310 20 20"/>
<view id="messenger-view" viewBox="88 340 20 20"/>



</svg>