<svg xmlns="http://www.w3.org/2000/svg" width="24" height="24 " viewBox="0 0 64 65" fill="none" style="display: flex; justify-content: center;">
<g clip-path="url(#clip0_2690_16458)">
<path d="M15.001 0.370206C14.8641 0.407551 14.3039 0.519586 13.7562 0.619173C7.90546 1.72707 2.85144 6.18358 0.897049 11.9347C0.0132172 14.5364 0.0630106 13.2916 0.0630106 32.1633C0.0630106 48.0971 0.075459 49.2175 0.287081 50.2133C1.75598 57.0973 6.93449 62.2758 13.8184 63.7447C14.8143 63.9563 15.9346 63.9688 31.8685 63.9688C47.8024 63.9688 48.9227 63.9563 49.9186 63.7447C56.8025 62.2758 61.981 57.0973 63.4499 50.2133C63.6616 49.2175 63.674 48.0971 63.674 32.1633C63.674 16.2294 63.6616 15.109 63.4499 14.1132C62.1553 8.02593 57.8731 3.14618 52.0971 1.1918C49.4953 0.307964 50.9518 0.370206 32.1797 0.345309C22.8684 0.332861 15.1379 0.345309 15.001 0.370206ZM51.2008 8.88487C53.2547 9.51973 54.7734 11.5737 54.7734 13.7273C54.7734 15.6319 53.6033 17.412 51.8107 18.2585C51.151 18.5697 50.7775 18.6568 50.0057 18.6942C48.4621 18.7688 47.3044 18.3456 46.209 17.2999C44.6778 15.8435 44.2422 13.5156 45.1509 11.5986C46.2588 9.25832 48.7609 8.13797 51.2008 8.88487ZM34.6445 15.0468C36.3997 15.358 37.8064 15.8186 39.3997 16.5904C41.3541 17.5489 42.7732 18.5821 44.2795 20.1257C48.6738 24.6569 50.2422 30.9931 48.4746 37.1177C48.0762 38.4995 47.1302 40.4912 46.2214 41.8605C45.3127 43.2423 43.3459 45.2465 41.9766 46.2299C41.379 46.6531 40.2213 47.3253 39.3997 47.7361C36.9101 48.9436 34.6569 49.4664 31.8685 49.4664C29.0801 49.4664 26.8269 48.9436 24.3373 47.7361C22.3829 46.7776 20.9638 45.7444 19.4575 44.2008C15.0633 39.6696 13.5072 33.3583 15.2624 27.2088C15.6732 25.7773 16.8434 23.4121 17.8019 22.0552C18.7853 20.6859 20.7895 18.7191 22.1713 17.8103C24.2252 16.4535 26.5904 15.4949 29.0054 15.0592C30.3125 14.8227 33.3001 14.8227 34.6445 15.0468Z" fill="#5D3E00"/>
<path d="M49.0975 12.3707C48.612 12.5699 48.3008 13.1052 48.3008 13.7525C48.3008 14.2504 48.363 14.3998 48.6867 14.7235C49.0103 15.0471 49.1597 15.1094 49.6825 15.1094C50.4792 15.1094 51.027 14.6612 51.1266 13.9143C51.2759 12.7566 50.1929 11.9226 49.0975 12.3707Z" fill="#5D3E00"/>
<path d="M29.6161 18.5848C24.2259 19.5807 20.0433 23.3774 18.5868 28.6306C18.2632 29.7759 18.2383 30.0373 18.2383 32.1659C18.2383 34.2946 18.2632 34.556 18.5868 35.7013C19.9188 40.5063 23.5288 44.1163 28.3339 45.4483C29.4791 45.772 29.7405 45.7969 31.8692 45.7969C33.9979 45.7969 34.2593 45.772 35.4045 45.4483C40.2096 44.1163 43.8196 40.5063 45.1516 35.7013C45.4752 34.556 45.5001 34.2946 45.5001 32.1659C45.5001 30.0373 45.4752 29.7759 45.1516 28.6306C43.8196 23.8505 40.2096 20.2155 35.4668 18.896C34.4709 18.6222 33.9854 18.5724 32.2427 18.535C31.1099 18.5101 29.9273 18.535 29.6161 18.5848Z" fill="#5D3E00"/>
</g>
<defs>
<clipPath id="clip0_2690_16458">
<rect width="63.7355" height="63.7355" fill="white" transform="translate(0 0.296875)"/>
</clipPath>
</defs>
</svg>