<svg width="148" height="81" fill="none" xmlns="http://www.w3.org/2000/svg"><g clip-path="url(#a)"><path d="M69.5 17.1c0-2.1-.1-3.9-.1-5.4h4.5l.2 2.3h.1c.7-1.1 2.2-2.7 5.2-2.7 2.2 0 4 1.1 4.7 2.9h.1c.6-.9 1.4-1.6 2.2-2 .9-.6 2-.8 3.3-.8 3.3 0 5.8 2.3 5.8 7.3v9.1h-5.2v-8.3c0-2.4-.8-3.9-2.5-3.9-1.2 0-2.1.8-2.5 1.8-.1.4-.2.9-.2 1.3v9h-5.2v-8.6c0-2.1-.8-3.6-2.5-3.6-1.4 0-2.2 1-2.5 1.9-.2.4-.2.9-.2 1.3v9h-5.2V17.1z" fill="#8EC850"/><path d="m100.8 11.5 2.6 8.3c.3 1 .6 1.4.8 2.3h.1c.2-.9.5-1.3.8-2.3l2.1-8.3h5.7l-4 10.2c-2.4 6.7-3.5 9.1-5.2 11-2 2.2-4.2 2.6-9.1 1.6l2-3.6c.7-.1 1.5-.4 2.3-.9.8-.4 1.7-1.2 2.2-2.1.2-.2.3-.5.3-.8 0-.2 0-.4-.2-.9l-6.3-14.5h5.9z" fill="#428DCB"/><path d="M100.7 51.6c-1.7.5-4.8 1.3-7.9 1.3-4.3 0-7.4-1-9.6-3-2.2-1.9-3.4-4.9-3.3-8.2 0-7.5 5.7-11.8 13.5-11.8 3.1 0 6 1.1 8-2.2 0 0 .1 3.8-2.6 5.3-1.9 1.1-2.8 1.1-5.4 1.1-4.5 0-7.8 2.4-7.8 7.3 0 4.6 3.1 7.4 7.4 7.4 1.2 0 2.2-.1 2.6-.3v-5.1h-3.7V39h8.8v12.6z" fill="#2AB998"/><path d="M100.7 51.6c-1.7.5-4.8 1.3-7.9 1.3-4.3 0-7.4-1-9.6-3-2.2-1.9-3.4-4.9-3.3-8.2 0-7.5 5.7-11.8 13.5-11.8 3.1 0 6 1.1 8-2.2 0 0 .1 3.8-2.6 5.3-1.9 1.1-2.8 1.1-5.4 1.1-4.5 0-7.8 2.4-7.8 7.3 0 4.6 3.1 7.4 7.4 7.4 1.2 0 2.2-.1 2.6-.3v-5.1h-3.7V39h8.8v12.6z" stroke="#2AB998" stroke-width=".567" stroke-miterlimit="10"/><path d="M125.7 41.1c0 7.4-4.7 11.9-11.6 11.9-7 0-11.1-5-11.1-11.5 0-6.7 4.5-11.8 11.5-11.8 7.2 0 11.2 5.2 11.2 11.4zm-17.1.3c0 4.4 2.2 7.5 5.8 7.5 3.6 0 5.7-3.3 5.7-7.7 0-4-2-7.5-5.7-7.5-3.7.1-5.8 3.4-5.8 7.7z" fill="#C2579B"/><path d="M125.7 41.1c0 7.4-4.7 11.9-11.6 11.9-7 0-11.1-5-11.1-11.5 0-6.7 4.5-11.8 11.5-11.8 7.2 0 11.2 5.2 11.2 11.4zm-17.1.3c0 4.4 2.2 7.5 5.8 7.5 3.6 0 5.7-3.3 5.7-7.7 0-4-2-7.5-5.7-7.5-3.7.1-5.8 3.4-5.8 7.7z" stroke="#C2579B" stroke-width=".567" stroke-miterlimit="10"/><path d="m132.3 52.6-7.6-22.5h5.9l2.9 9.5c.8 2.7 1.5 5.2 2.1 8h.1c.6-2.7 1.3-5.4 2.1-8l3-9.6h5.7l-7.9 22.5-6.3.1z" fill="#EC7026"/><path d="m132.3 52.6-7.6-22.5h5.9l2.9 9.5c.8 2.7 1.5 5.2 2.1 8h.1c.6-2.7 1.3-5.4 2.1-8l3-9.6h5.7l-7.9 22.5-6.3.1z" stroke="#EC7026" stroke-width=".567" stroke-miterlimit="10"/><path d="M79 60.4v10.5h-1.1v-5.6h-4V67c0 .1 0 .1-.1.1l-.2.1h-.3c-.2 0-.3-.1-.5-.2l-.8-.7c-.3-.3-.5-.6-.7-.9-.1-.2-.2-.4-.2-.6l.1-.3.2-.2h.1l.2-.1h.9v-3.9h-2.8v-.9h10.7v.9l-1.5.1zm-1.1 0h-4v3.9h4v-3.9z" fill="#4B4B4B"/><path d="m77.5 59.4-4.6-4.7.8-.8 4.5 5.6-.7-.1zM86.7 60.3v2.9c0 .6-.2 1.2-.7 1.6-.1.1-.2.2-.4.2-.1 0-.2.1-.4.2-.3.1-.6.2-.9.2h-.4l-.4-.1 1.6 2.3.6.8.8.9.3.4.5.5-.8.8c-.3-.1-.7-.5-1.2-1.2-.8-.9-1.5-1.9-2.1-2.9l-.7-1-.9-1.5-.2-.4-.5-.8.9-.7.9 1.5c.2.4.6.6 1.3.6.6 0 .9-.1 1.1-.4.1-.1.2-.3.3-.5l.1-.6v-2.8h-6.1v-.9h9v.9h-1.7z" fill="#4B4B4B"/><path d="M90.9 60.3v10.5h-1.1V60.3h-1.9v-.9h1.6c.1-.1 0-.4-.3-.8-.4-.6-.9-1.2-1.4-1.9-.7-.8-1.3-1.2-1.8-1.2-.7 0-1.1.4-1.4 1.2l-.1.7.1.6.3.7.3.6.2.2h-1.3l-.4-.5-.2-.4-.2-.5-.1-.5V57c0-.2.1-.3.2-.5.3-.8.8-1.4 1.4-1.7.3-.1.7-.2 1.1-.2.5 0 1.1.2 1.6.6.7.5 1.3 1.1 1.7 1.8l.7 1 .8 1.4h2.1v.9h-1.9zM111.7 60.3v10.5h-1.1v-5.7h-3.1l-.8-.9h3.9v-3.8h-4.1v3.7c-.1.2-.1.4-.2.7-.1.2-.2.4-.5.6-.2.1-.4.2-.7.3H104.2c-.2 0-.3 0-.3-.1l1.4 2.1.6.8 1.1 1.2.5.5-.9.8c-.3-.1-.6-.5-1.1-1.1l-2.7-3.9-.6-1-.4-.7-.4-.7.9-.6.7 1c.2.5.7.8 1.3.8l.5-.1c.1 0 .2-.1.3-.2l.2-.3v-3.8h-5.2v-.9h13.4v.9l-1.8-.1z" fill="#4B4B4B"/><path d="M119.8 60.3v2.9c0 .6-.2 1.2-.7 1.6-.1.1-.2.2-.4.2-.1 0-.2.1-.4.2-.3.1-.6.2-.9.2h-.4l-.4-.1 1.6 2.3.6.8.8.9.3.4.5.5-.8.8c-.3-.1-.7-.5-1.2-1.2-.8-.9-1.5-1.9-2.1-2.9l-.7-1-.9-1.5-.2-.4-.5-.8.9-.7.9 1.5c.2.4.6.6 1.3.6.6 0 .9-.1 1.1-.4.1-.1.2-.3.3-.5l.1-.6v-2.8h-6.1v-.9h9v.9h-1.7z" fill="#4B4B4B"/><path d="M128.8 60.3v3.3l.4-.4.2-.2.5-.3c.2-.1.3-.2.5-.2h.6c.9 0 1.6.3 2.2.8.6.6.8 1.2.8 2s-.4 1.7-1.1 2.7l-.5.6-.7.7-1-.7c.1 0 .2-.1.4-.2l.7-.8c.7-.8 1-1.6 1-2.3 0-.6-.1-1-.4-1.3-.1-.1-.3-.3-.6-.4-.2-.1-.4-.1-.7-.1-.6 0-1.2.3-1.7 1-.4.6-.6 1.1-.6 1.7v4.7h-1.1v-3.3c-.5.5-1.2.8-2 .8-1.4 0-2.4-.6-2.9-1.8-.2-.4-.3-.8-.3-1.2 0-.5.1-.9.3-1.3.3-.7.9-1.2 1.6-1.5.4-.1.8-.2 1.2-.2l.6.1.6.2v.9l-.2-.1-.1-.1-.2-.1H125.7c-.3 0-.6.1-.8.2-.4.2-.8.6-1 1.2l-.1.5v.4c0 1 .4 1.6 1.1 1.9.2.1.5.2.8.2.5 0 .9-.2 1.3-.5.4-.4.7-.7.7-1.2v-5.5H121v-.9h14.2v.9l-6.4-.2z" fill="#4B4B4B"/><path d="M137.8 60.3v10.5h-1.1V60.3h-2.1v-.9h5.4v.9h-2.2z" fill="#4B4B4B"/><path d="M146 60.3v2.9c0 .6-.2 1.2-.7 1.6-.1.1-.2.2-.4.2-.1 0-.2.1-.4.2-.3.1-.6.2-.9.2h-.4l-.4-.1 1.6 2.3.6.8.8.9.3.4.5.5-.8.8c-.3-.1-.7-.5-1.2-1.2-.8-.9-1.5-1.9-2.1-2.9l-.7-1-.9-1.5-.2-.4-.5-.8.9-.7.9 1.5c.2.4.6.6 1.3.6.6 0 .9-.1 1.1-.4.1-.1.2-.3.3-.5l.1-.6v-2.8h-6.1v-.9h9v.9H146zM37.5 59c.1-.5.2-1.1.3-1.6.5 0 .7-.4.7-.9 0-.7-.2-1-.6-.9 0-.4-.1-.8-.2-1.1 0-.5-.1-.9-.2-1.2V59zm-.1-36.5c0-.1.1-.1.2-.2.7-.2.7-1 1.1-1.5.4 0 .5-.4.7-.5.1 0 .2-.1.3-.3.3 0 .4-.3.6-.5.3-.2.5-.6.7-1.1-.1-1.2-1.3-1.8-1.5-2.7 0-2.4-1.1-2.1-2-2.3v.6c.4.1 1 .2 1.3.5.6.6.1 1.9.9 2.5.4.3.9 1 .8 1.3-.2 0-.4.3-.5.4-.3-.2-.2-.6-.8-.9-.2-.1-.5.2-.4.4.3.3.6-.1 1 .7 0 .2.2.4-.1.5-.1-.2-.6-.9-.9-.8-.1-.1-.1.1 0 .2.2.1.8.9.4 1-.1-.1-.3-.6-.6-.6.1.2.5 1 0 1-.3-.2-.5-.5-.7-.9l.2.1c.3.1 0-.8-.5-1.3v.6c.1.2.3.3.2.5-.1-.1-.2-.2-.2-.3v.7c.1.1.1.1 0 .2v.6c.1-.1.1-.3.3-.3.1.1.2.2.3.4-.1.1-.2.3-.3.3-.1.1-.2.1-.2.2s0 .1.1.2c.3 0 .3-.6.7-.5.1.1 0 .4-.1.5-.1.1-.3.2-.4.2-.2.1 0 .3.1.4-.1 0-.2 0-.3-.1l-.4.8zm0-5.6v-.1h.1c.3 0 1.3.7 1 1.2 0 .1-.2.2-.3.2-.3 0-.5-.1-.3-.4.1-.4 0-.7-.5-.9.1 0 .1 0 0 0zm0-.6v-.5c.2-.4.4-.8.8-1 .2-.1.4.1.5.2.4.5 0 .8-.1 1.1.2.3 0 .3 0 .5-.2.3.1.4 0 .6l-.9-.4.1-.1.6-.4c0-.3 0-.5-.3-.6-.2-.2-.3.4-.7.6.1-.1.1-.1 0 0zM36.3 61c.1-.1.1-.3.2-.5.4-.3.8-.9 1-1.6v-5.6c-.1-.2-.3-.4-.5-.6-.2-.5-.3-.7-.5-.8 0-.3-.1-.5-.2-.6v1.5c.2.1.1.2 0 .3v.3c.1.1.2 0 .2.2-.2.4.1.4.1.6-.3.4.1.3.1.6.1.2-.3.2-.2.3.2.2.1.6 0 .7.2.2.2.5.1.6.1.2.1.5 0 .6v.4c.1.2.1.4 0 .5 0 .3 0 .3-.1.4.1.1.1.3 0 .4 0 .2.2.2-.1.5 0 .2 0 .6-.1.8v1zm0-37.5c.3 0 .7-.1.9-.7.2-.1.2-.2.3-.3v-.8c-.1-.1-.3-.2-.3-.3-.2-.4-.3-.5-.7-.7h-.1v.5c.2 0 .1-.1.2-.2.2 0 .3.2.3.3-.4 0 0 .7.2.9.2.5-.3.5-.7.5l-.1.8zm1.1-10.1c-.3-.1-.6-.2-.8-.4 0-.5-.1-.9-.4-1.3v1.8c.4.1.6.3 1 .4h.1l.1-.5zm0 2.4v.5c-.1 0-.2.1-.2.1.1-.2.1-.4.2-.6zm0 1v.1-.1zm0 1.3v.6s-.1-.1-.2-.1l-.2.1c0 .1.1.1.3.3v.7c-.1-.1-.5-.3-.6-.3l-.1.1c0 .1.5.1.7.4v.6c-.1.1-.1.3-.2.3-.2 0-.1-.1 0-.2 0-.1-.1-.2-.3-.2l-.1.2c-.1 0-.1.1-.1-.1 0-.1 0-.2.1-.2-.1-.2-.2-.2-.4-.2-.1.1 0 .4-.1.4v-.8c.2-.2.3-.9.6-1.1.2-.2.1-.2 0-.2-.2.1-.4.4-.6.6v-.8c.1-.1.3-.2.5-.2.3-.2.5-.1.7.1zm-1.1-1.9v-.5c.1.1.3.3.4.3.3.1.1.4 0 .4-.1-.1-.3-.2-.4-.2zm-.6 45.5c.2-.2.4-.4.6-.7v-1c-.1.2-.1.4-.2.4 0-1.2.1-2.4 0-3.7-.1-1 0-2.1-.1-3.1-.1-.3-.2-.7-.1-1 .1 0 .2-.1.3-.1.2.2 0 .2 0 .3-.1.1 0 .1 0 .1h.2v-1.5l-.1-.1c-.2 0-.5-.3-.4-.5.2-.3.3-.4.3-.9 0-.4-.2-.5-.3-.7V55c0 .2.1.4.1.6v1.5c0 .6 0 1.1-.1 1.6l-.2 3zm0-31.3c.1-.3.1-.7 0-1 .5-.9.8-1.7.2-2.2.4-1.2-.1-1.4-.1-1.8.2-.5 0-.9-.2-1.2v3.4l.1 2.8zm0-7.2c.2.2.4.3.6.3v-.8h-.1c-.5-.1-.2-.7-.5-1.1v1.6zm.6-11.4c-.2-.2-.4-.5-.6-.6v1.1c.2.1.1.7 0 1v.7c.1-.1.2-.3.3-.4H36.3v-1.8zm0 3.9v.5c-.2-.1-.4-.1-.6-.1v-.5c.2-.2.4-.1.6.1zm0 2.4v.9c-.1.3-.1.6-.5 1v-.3c.1 0 .1-.1.2-.1-.1-.8-.1-1.3.3-1.5zm0 1.4c-.1.2-.2.2-.3.4-.1.4.1.4.3.4v-.8zm0 1.1v.5h-.1c-.2 0-.4 0-.5-.1v-.6c.1.2.4.2.6.2zm0 32.6v.3s0-.1-.1-.1c0-.1.1-.2.1-.2zm-.6-34.7c.3-.2.5-.5.6-.7-.1 0-.3.1-.6.2v.5zm0 43.3c0-.1 0-.1 0 0l.1-3c0 .2 0 .3-.1.5v2.5zm0-12.6-.1 5.3c0 .2 0 .4.1.5v-5.8zm-.1-18.6c0-.1 0-.1.1-.2v-2.7c0 .1 0 .1-.1.2v2.7zm.1-6.4s-.1 0 0 0l-.1 3.1c0 .1.1.1.1.2v-3.3zm-.1-1.1s.1.1 0 0l.1-1.6-.1-.1v1.7zm.1-12s-.1 0 0 0l-.1 1.1.1-1.1zm0 2.1v.7s0 .1-.1.1v-.7s.1 0 .1-.1zm0 2.3v.5h-.1l.1-.5c-.1.1-.1.1 0 0 0 .1 0 0 0 0zm0 2.5v.5h-.1l.1-.5c-.1 0 0 0 0 0zm0 1.6v.3l-.1.1.1-.4zm0 .9v.6h-.1l.1-.6c-.1-.1 0 0 0 0zm-.5 41.6c.2-.1.3-.2.5-.3v-2.5c0 .2 0 .4-.1.6-.1.3 0 .6-.1.7 0 .2-.2.3-.2-.1v-1c0-.1.1-.9-.2-.8l.1 3.4zm.5-12.9c-.2-.1-.3-.2-.5-.4v.8c.2.1.4.2.4.5 0 .1 0 .7-.2.6l.1-.7c-.1-.1-.2-.1-.3-.1v5-1.8h.2c.3.3.2.6.3 1.3v.3-5.5zM35.2 32v-.4.4zm0-.6c.2-.3.4-.5.5-.8v-2.8c-.1.2-.3.3-.5.4v1h.2c0 .2-.1.2-.2.2v2zm.4-7.3c-.1-.1-.2-.2-.3-.2 0-.2 0-.4-.1-.7 0-.1-.1-.1-.1-.2v4.4c.2-.2.4-.4.5-.1v-3.2zm-.4-2v-.8c.2 0 .3.1.4.1V23c-.1-.1-.2-.2-.2-.3-.1-.3-.1-.4-.2-.6 0 0 0 .1 0 0zm.4-11c-.1-.1-.3-.2-.5-.3V12c.1-.1.2-.3.2-.3s.1 0 0 .1c.1.4-.3.7 0 .8.1-.1.2-.3.3-.4v-1.1zm0 2.2v.7c-.1.2-.3.3-.5.4v-.7c.2-.1.3-.2.5-.4 0 .1 0 0 0 0zm0 2.3v.5c-.2 0-.3 0-.5.1v-.5c.2 0 .4 0 .5-.1zm0 2.4v.6c-.1.1-.3.2-.5.3v-.7c.2-.1.4-.1.5-.2zm0 1.7v.4c0 .1-.1.1-.1.2s0 .1.1.1v.7c-.2-.1-.4-.2-.5-.3v-1l.1-.1v.2c.2 0 .3-.1.4-.2zm-.8 42.6c.1-.1.3-.1.4-.2v-3.3c0 .1 0 .3-.1.4 0 .5 0 1-.1 1.5 0 .2 0 .3-.2.2l-.1-1.3.1 2.7zm.4-13.5c-.1-.1-.2-.3-.2-.5-.1-.2-.1-.3-.2-.4v1.5c.1.1.3.1.4.1v-.7zm-.4-16.2c.2-.2.3-.4.4-.6v-2.5h-.1c-.1 0-.2-.1-.3-.1v3.2zm.4-9.5c-.1-.2-.3-.3-.4-.5v2c.1.1.2.1.3.2 0 .1-.1.1-.3.1v1.3c.1-.1.2-.2.2-.3.1.1.2.1.2.3v-3.1zm-.4-1c.1-.1.2-.1.4.1v-.8h-.4v.7zm.3-11.3c-.1-.1-.3-.1-.4-.2v.9c.1.2.1.4.1.6 0 .2.2 0 .3-.2v-1.1zm0 2.9v.7h-.2c-.1 0-.2.1-.2.3v-1.2c.1 0 .2.1.2.1.1.1.2.1.2.1zm0 2v.5c-.2.1-.3.1-.4.3v-1.3.1l.4.4zm0 2.4v.7c-.1 0-.3.1-.4.1V18c.2.1.3.1.4.1zm.1 1.7v1c-.2-.2-.3-.5-.2-.8l.2-.2zm0 6.4v1.2l-.3.3c-.1.1-.1.1-.1.2v-1c.2-.2.3-.5.4-.7zm0 2v1h-.3c-.1 0-.1 0-.1-.1v-.4c.1-.2.2-.4.4-.5zm0 21.7v4.9c-.2-.5-.2-.9-.2-1.4 0-.1 0-.5-.2-.6V51c.1 0 .1-.1.2-.2 0-.2-.1-.4-.1-.6 0-.2.1-.3.3-.3zm-.4-32.2v-1c0 .2.1.3.1.5-.1.2-.1.4-.1.5zm-.7 44.8c.2-.1.5-.2.7-.3v-3.6h-.2l-.1 1.6c-.2.1-.1-.4-.1-.4 0-.1-.1-.2-.1-.3-.2-.3.3-1.2.4-1.5v-.4c-.2-.1-.4-.6-.6-1v.4c.1.2.1.3.2.5s.2.5 0 .8c0 .1 0 .2-.1.3 0 .2-.1.3-.2.4v.8-.1c.1 0 .1.3.1.3v1c-.1 0 0 .3-.1.4 0 .1.1.2.1.2h.1c.1 0 .2.1.2.1 0 .4.1.3-.2.3l-.1-.2-.1-.1.1.8zm.7-14.6c-.2-.2-.4-.4-.7-.4v.3s.1 0 .1.1c.4.2.1 1 .4 1.4l.2.2v-1.6zm-.7-14.1c.2-.3.3-.6.2-.9.2-.1.3-.2.5-.4v-3.3c-.3-.2-.4-.5-.3-.9-.1 0-.2-.1-.3-.1-.1 0-.2 0-.2-.1v2.4c.3-.3.3-.7.4-.9 0-.2 0-.1.2-.1.3.4.2.9-.2 1.2-.1.1-.3.2-.3.3v.7c.1.1.2.1.4.1 0 0 .4-.1.2-.1-.1.2-.2.3-.5.3h-.1v1.8zm.7-11.2c0-.1-.1-.1 0 0-.1-.3-.1-.4 0-.5v-.8l-.2-.7c.2-.7.2-1.1 0-1.8.1 0 .2.1.3.1v-5.4c-.2-.1-.4-.2-.6.3v1l.3-.3c.2-.1.2-.1.2.1-.2.1-.3.2-.3.5s0 .5-.2.7h-.1v.6c.1-.1.2-.1.3-.1l.1.1c-.1.4-.4.6-.3 1.2 0 .1-.1.2-.1.3v.8c.3-.1.1.7.1.8 0 .1-.1.2-.1.3v3.5c.1-.1.2-.2.2-.4.2 0 .3.3.4.5-.2.3-.2.6-.2.8.1.1.2.3.3.4l-.1-2zm0-12c-.2-.1-.5-.1-.7-.2v.6c.3.1.6.3.7.5v-.9zm0 14.2v1.3c-.2.3-.6.5-.7.7v-.9c.1 0 .1-.1.2-.2.4-.5.1-.4-.2-.7v-.9s0 .1.1.1c0 .3.4.6.6.6zm0 2.1v1c-.1.2-.1.3-.3.3 0 0-.1 0-.1-.1-.3-.2-.1-.6.1-.8.1-.1.2-.3.3-.4zm0 1.8v.4c-.1-.1-.1-.3 0-.4zm0 22.3v1.8c0-.1-.1-.1-.2-.1h-.1l.1 2.5c-.1 0-.1 0-.1-.1 0-.2-.1-.3-.2-.4 0-.3-.1-.9-.1-1.3-.1 0-.1 0-.2.1v-4.4c.1.2.1.3.3.4.2.3.6.8.3 1.1 0 .2.1.4.2.4zM34 23.8v-.3c.1 0 .1 0 .2-.1.1 0 .1.1 0 .2 0 .1-.1.2-.2.2zm-.4 38.8c.2 0 .3-.1.5-.1v-.8c-.1 0-.1 0-.1-.1-.3 0 0 .3 0 .7-.1 0-.3 0-.3-.1s-.1-.2-.1-.3v.7zm.5-15.1h-.5v.3h.5v-.3zm-.5-12.7c.1-.2.2-.4.2-.7l.3-.3v-1.7c-.3-.1-.3-.5-.5-.5v3.2zm.4-24.3h-.5v.5c.2 0 .3 0 .5.1v-.6zm0 5.3v.6c-.2.1-.4.2-.5.4v.4V16c.2-.1.4-.2.5-.2zm0 2v.8c-.2.3-.3.4-.5.5v-.9c.3 0 .4-.1.5-.4zm0 2v1.5c-.2.1-.4.1-.5.2v-1h.2c.1-.3.3-.5.3-.7zm0 1.8v1.7c-.1.1-.2.1-.3 0-.1-.1-.1-.2-.2-.3v-.6c.1-.2.3-.3.4-.5.1-.2.1-.2.1-.3zm0 1.9v.3c-.1.1-.1.1 0 .3v.9h-.1c-.2-.1-.2.1-.3.2l-.1.1v-1.9c.2.1.4.2.5.1zm0 2.4v.9c0 .1 0 .2-.1.2v.2c0 .2-.2.3-.4.2v-1.1c.2-.1.4-.3.5-.4zm.1 2.3c-.3-.2-.2-.6-.5-.7v1.3c.1 0 .1.3 0 .7V31.4c.1 0 .1-.1.2-.2 0-.2.1-.5.2-.6 0 0 .1 0 .1-.1v-2.3zm0 2.9v.7c-.1-.1-.1-.2-.1-.4 0-.1 0-.2.1-.3zm0 18v4.4c-.2.2-.1.9-.1 1.1v1.8c0 .1.1.2.1.3v.3c-.1-.2-.3-.3-.5-.4v-.4c.1 0 .1 0 .2.1l-.1-2.6c0-.2-.1-.2-.1-.2v-2.6c.1.1.2.1.3 0 0-.3-.2-.7-.1-.9-.2-.3-.1-.9-.1-1.4h-.1v-.3c.3.2.4.5.4.8 0-.1 0-.1.1 0zm0 9.8v.8c-.1.1-.4.3-.4.3 0 .2 0 .4.1.6v.2s-.1.2-.2.2v-1.2c.2-.2.2-.3.2-.6l.3-.3zm-.5-8.5v-.5.5zm-.1-32.7v-.4l.1.1c.1.2 0 .2-.1.3zm0-2.3v-.7c.1-.1.1-.2.2-.3.1-.2.2-.2.2-.1v.3c.1.4-.1.6-.4.8zm-.7 49c.5-.5.5-1 .3-1.7.1 0 .3 0 .4-.1v-.7c-.2-.1 0-.7 0-.8v-1.4c-.3.4-.6.4-.6 1 0 .1-.1.1-.1.2v3.5zm.8-16.8c-.1 0-.3.1-.4.1-.1 0-.2-.1-.3-.2v.6c.3 0 .5.1.7.3v-.3c-.1-.1-.2-.1-.3-.2.1 0 .2-.1.3-.1v-.2zM32.8 36c.2-.2.2-.4.2-.7.2-.2.4-.4.5-.6v-3.2h-.1c-.2-.1-.3-.2-.4-.4-.1-.2-.2-.5-.2-.8v2.3c.1-.1.2-.3.1-.5v-.2c.1-.1.2.1.3.2.2.1-.1.6-.3.8-.1.1-.2.2-.2.3v1.2l.1.1h-.1l.1 1.5zm.7-25.6c-.2 0-.5.1-.7.1v.6c.2-.1.4-.1.6-.1h.1v-.6zm0 4.3v.7c-.2.2-.5.3-.7.4v-.9c.1 0 .3-.1.5-.1.1.1.2 0 .2-.1zm0 1.3v1.3c-.1 0-.2 0-.4-.2-.1-.3-.1-.7.2-.9.1-.1.2-.1.2-.2zm0 1.4h-.3c-.2 0-.3-.1-.4-.2v.7c.2.1.5 0 .7-.2v-.3zm0 .9v.9H33s-.1 0-.2.1v-.7c.1 0 .2-.1.3-.1.2-.2.3-.2.4-.2zm0 2.2v1c-.1.1-.2.1-.2.3-.3.5-.4.7-.2 1.3.1.2.3.3.4.4v1.9c-.4.5-.4.7-.4 1-.1.1-.2.1-.3.1v-1.2l.3-.3c.2-.1.3-.3.3-.7-.2-.2-.3-.3-.5-.1l-.1.1v-2.4c.1 0 .1 0 0-.1v-1c.2-.2.5-.3.7-.3zm0 1.8c-.1.1-.1.3 0 .5v.1-.6zm.1 4c-.2.2-.3.4-.3.7 0 .1.1.2.1.3 0 .1.1.1.1.1l.1-1.1zm0 1.2v1.3h-.1c-.2.3-.5.7-.6 1.1 0 .1 0 .2-.1.2v-3.5h.1c.2.3.3.8.7.9zm0 2.2v1.8h-.1c-.3-.2-.4-.5-.4-.9.1-.3.3-.6.5-.9zm0 20.2v3.4c-.1 0-.1.2-.2.1-.2-.1-.3-.2-.1-.4 0-.2-.3-.3-.5-.2v-2.2h.2c.1 0 .2-.1.2-.3 0-.2 0-.4-.3-.5v-.7c.1.2.3.3.6.4 0 .1 0 .3.1.4zm0 6.1v.4c-.2-.1-.5-.1-.7-.1V56h.7zm-.8 3.7v-.4c.2-.2.4-.4.4-.3.1.1-.2.4-.2.4 0 .1-.1.2-.2.3zm0-.6c.1-.1.2-.1.2-.2.1-.2.2-.3.2-.5-.1.1-.3.2-.4.3v.4zm0-8.6c.1 0 .1-.1 0-.3v.3zm0-30.4v-.7c.1 0 .2-.1.3-.1.4.1.3.3.2.4-.1.2-.3.3-.5.4zm-.5 44.7c.2-.1.4-.3.6-.4v-3.5c-.1.2-.2.5-.1.6-.1 0-.3 0-.4.1l-.1 3.2zm.5-17.3-.3-.3c-.1-.3-.2-.6-.3-1v2.9c.1.3.2.5.6.8v-.7c-.2-.3-.3-.7-.3-1h.3v-.7zm-.6-7.2c.1-1.2 0-2.1.1-3.2.3-.3.5-.6.4-1 0 0 .1 0 .1-.1v-1.5c-.2-.1-.5-.3-.5-.5 0 0-.1 0-.1-.1v6.4zm.6-29.7c-.2.1-.4.1-.6.2v.8c.2-.2.4-.4.6-.5v-.5zm0 4.4v.9c-.1 0-.2.1-.3.2v.7c0 .2.1.4.3.5v.7c-.2-.1-.4-.2-.5-.4v-1.2s.1 0 .1-.1c-.1-.3-.1-.6.1-.9 0-.3.1-.4.3-.4zm0 3.5v.7c-.2.1-.5.1-.5-.2 0-.2.2-.4.5-.5zm0 .9v.7c-.2.1-.5.3-.6.7v-1.2h.1c.2 0 .3-.1.5-.2zm0 1.3-.3.3c-.1.2.1.4.3.6v.1-1zm0 1.1v2.4c-.2.2-.4.3-.6.5v-.8h.1c.3-.3.5-.5.3-1h-.1c-.1.2-.2.2-.4.3v-1.8c.2.2.3.4.7.4-.1 0 0 0 0 0zm0 3.4v1.2c-.1 0-.3-.1-.4-.3 0-.4.2-.7.4-.9zm0 1.4c-.2-.1-.4-.2-.6-.4v1.9s.1-.1.1-.2c.2-.3.2-.4.2-.8.2.1.3.3.3.5v-1zm0 1.4V32.7c-.2.2-.5.4-.5.9 0 .2.1.3-.1.3v-2c.1-.2.1-.4 0-.5v-.8c.1.1.3.1.5.2-.2-.2-.4-.3-.5-.5v-.8c.1-.2.3-.4.4-.6.1-.4.2-.7.2-.9zm0 5.2v1.2c-.2-.2-.2-.4-.2-.7.1-.2.1-.3.2-.5zm0 17.1v.3c-.2 0-.2-.1-.3-.1-.1 0-.1-.1-.2.1 0 .1.2.2.4.2V53c-.2 0 0-.3-.2-.3s-.1.3-.4.1v-2.3c.1-.1.1-.2.2-.2h.2c.2-.2.3-.1.3 0zm0 5.7v.3h-.4c-.1 0-.2.1-.2.1v-2c-.1-.3.2-.3.3-.2.1.1.1.3-.1.3h-.2c0 .2.3.3.2.5-.2.5-.3.9.4 1zm0 2.7v.4c-.2.2-.4.2-.6.3V59c.1 0 .2-.1.3-.1.2-.1.3-.1.3-.2zm0 .6-.6.3v.2c0 .1.1.1.1.2 0 0 0 .1-.1.1v.8c0-.1.1-.1.1-.1.1-.4.3-.7.5-1v-.5zm-.6-45.1v-.5c.1 0 .1 0 .1.3 0 .1-.1.1-.1.2zM31.9 65c.1 0 .2-.1.3-.2v-3.2h-.3v.2l.1.1v.2l-.1 2.9zm.3-18.8c-.1-.4-.2-.9-.3-1.4v2c.1.2.1.4.2.6l-.1-.1v.4c.2.1.3.3 0 .2v.3h.1c.2.2.1.5.2.8l-.1-2.8zm-.3-4.2c.1-.3.2-.6.2-.9 0-.3.1-.5.1-.8v-4.1c0 .2-.2.2-.3.1V42zm.3-31.2c-.1.1-.2.1-.3.2v1.2l.3-.6v-.8zm0 2.9v.5l-.3.6v-.6c0-.1.1-.1.1-.2s.1-.3.2-.3zm0 2.6v1.2c-.1.1-.2.2-.3.4v-.6l.1-.1h-.1v-1c.1.2.2.2.3.1zm0 3.3v3.5c-.1.1-.2.1-.3.1v-.7h.1c.3-.1 0-.3-.1-.4v-2.7c.1 0 .2.1.3.2zm0 4.2v.8c-.1.1-.1.2-.2.3 0 .2 0 .3-.1.3V24c.1 0 .2-.1.3-.2zm0 2.5v1.9c-.1.2-.3.4-.3.6v-3.3s0 .1.1.2c0 .2.1.4.2.6zm0 3v.8c-.1-.2-.1-.4-.1-.6.1 0 .1-.1.1-.2zm0 1.3c-.1-.1-.2-.2-.3-.4v-.1 1.5c.1-.1.1-.2.1-.3.1 0 .1.1.2.1v-.8zm0 1.2v2h-.1c-.1-.1-.2-.1-.2-.1v-1.4l.1-.1c.1-.1.2-.3.2-.4zm0 2.1v2.2c-.1 0-.2 0-.3-.1v-.8c.2-.2.3-.4.3-.7-.1-.2-.2 0-.3.1v-.8c.1.1.2.1.3.1zm0 16.5v2.3c-.1-.1.1-.3-.1-.4-.1 0-.1-.1-.2-.1v-3c.1.2.1.5.2.7-.1.1-.2.4-.1.5l.1.1.1-.1zm0 4.1v2c-.1.1-.1.2-.3.2v-1.5c.1-.1.2-.2.2-.3 0-.2 0-.4-.2-.5v-.1c.1 0 .2.1.3.2zm0 4.5v.4h-.3V59h.3zm.1.6v.2c-.1-.1-.1-.2 0-.2zm0 .5v.8l-.3.6V61c.1-.1.2-.1.3-.3 0-.1-.1-.2-.1-.3-.1-.3 0-.3.1-.3zm-.4-30.8V29c0 .2.1.3 0 .3zm-1.7 35.8h1.4c.1 0 .2-.1.3-.1V62h.1v-.2c-.1 0-.1-.1 0-.3V61c-.1.1-.1.2-.3.4-.2.1-.2.1-.3.2 0 .1.1.2-.1.2h-.4c-.1-.3.1-.2.2-.2 0-.5-.3.1-.3-.2l.1-.2c.1 0 .2 0 .3-.1-.1-.1.1-.3-.2-.3-.1.1-.2.3-.2.2 0-.2.1-.4.1-.6.2-.2.3-.4.2-.8 0-.4.1-.3.4-.2.1 0 .2.1.3.1V59c-.3 0-.4-.2-.6-.1.2-.3.3-.7.4-1.1.1-.4.2-.9-.1-1.3-.2-.2-.2-.1-.2.1.1.3-.2 1.4-.7 1.9 0 .2-.1.3.1.3.1.2-.1.3 0 .5 0 .3 0 .4-.2.6 0 .3-.1.5-.1.7.1.4.1.5-.1.6v.3H30v.5l.1.1V62.4H30v-.2l.2 2.9zm1.7-20.3c-.1-.4-.3-.8-.5-1.1.1-.6.3-1.2.5-1.8v-5.7h-.1c-.8-.3-.4-1-.4-1.1-.3.1-.7.2-1-.1-.1-.1-.2-.3-.2-.4v2.5c.2.7.3 1.5.3 2.2 0 1.6-.2 3.1-.2 4.6.3-1.4.6-2.9.6-4.5v-2.7c.3-.9.9 1.1.8 2 .1 1.3-.2 2.5-.5 3.6 0 .8-.2 1.1 0 1.8.2.4.3.8.3 1.2.1.5.3 1.1.4 1.6v-2.1zm0-33.8c-.3.2-.6.5-.9.9h-.8v.6l.6-.3.1.1c-.1.1-.3.1-.2.3.5-.1.6 0 1 .1l.2-.6V11zm0 3.2v.6c-.1.1-.2.3-.3.4-.2.3-.4.9-.1 1 .1 0 .2.1.3.1v1c-.5 0-.7-.2-.9-.5-.2.2-.5.3-.8.3v-.6h.4c.2 0 .3-.1.4-.3.1-.3.3-1 .4-1.1.1-.1 0-.4 0-.5v-.1c-.1.5-.6 1-.9 1-.1 0-.2 0-.3.1v-.7c.3 0 .7-.1.8-.4.1-.2 0-.2.2-.3-.2-.4.1-.7.1-1.1.2 0 .3.2.3.4-.1.1.2.5.4.7-.1 0 0 0 0 0zm0 3.1v.6c-.1.1-.1.3-.1.4 0 .3 0 .7.1.9v2.7c-.1-.2-.1-.5-.4-.1-.4.1-.4.1-.6.1-.1 0-.2.2-.2.3 0 .1 0 .2-.2.2v-.3c0-.7.4-.6.9-.8.2-.1.7-.7.4-1-.1 0-.2-.1-.2-.1-.3.1-.5.2-.8.2-.4.1-.2.2-.1.2.1.1 0 .4-.1.5-.1.1-.2.1-.3.2v-1.2c.2-.3.6 0 1-.5v-.9c0-.3-.5.2-.9.2v-.7c.4 0 .8-.1 1.1-.3 0-.2.2-.4.4-.6zm0 5.2v.7h-.2c-.3 0-.4.1-.5.4-.1 0-.2-.1-.2-.3 0-.3.3-.7.6-.7 0 0 .2-.1.3-.1zm0 1.5v1.2h-.1c-.1-.1-.2-.2-.2-.4 0-.1.1-.5.3-.8zm0 1.5c-.1-.1-.2-.1-.4-.2 0-.3-.7-.3-.4-1.5-.7-.5-.4-.7-.5-1.3l-.3-.3v3.9c.1-.3.3-.5.5-.7.2.2.3.3.3.6-.4.3-.6.6-.6.9.1.5.4.8.6.6.1-.5.3-.8.5-1.2.2.1.3.4.2.7-.1.4-.3.8-.6 1.1-.2.5 0 .8.1.9.1.2.3.2.4.3h.1v-.5l.1-3.3zm0 4.5v1.5c-.2.4-.6.6-.7 1-.2.2-.4-.2-.5-.4-.1-.2-.1-.3 0-.5.1-.3.3-.4.5-.6.1 0 .2-.2.2-.4-.1-.2-.2-.5-.2-.7h-.1c-.1.1-.2.4-.3.6-.2 0-.2.3-.3.3-.2.2 0 .2-.2.3 0 .1-.1.1-.1.1V30l.3-.3c.4-.9-.2-.9-.1-1.5 0-.1-.1-.1-.2-.2v-.7c.1.1.2.3.3.3.1.1.2.1.3.2-.1.5.1 1 .4 1.4.2.2.2.2.4.2s.3.3.3.6zm0 2.3c-.3.3-.5.7-.2 1.1 0 .2.1.3.3.3l-.1-1.4zm0 1.6v.8l-.1.1c-.5-.3-.3 0-.6.2-.5.4-.9-.5-.6-.8.1-.1.5-.3.4-.4 0-.1-.1-.2-.1-.3-.2.1-.3.3-.5.4h-.2v-2.6h.2c0 .6 0 .7.2 1 .2.4.3.2.6.3 0 0 0 .1.1.1-.1.6.2.9.6 1.2zm0 1.3v.8c-.2-.1-.4-.2-.2-.6.1 0 .1-.1.2-.2zm0 12.1v.4s-.1 0-.1-.1c-.2-.3-.6-.7-.4-1.1.2.3.3.7.5.8zm0 .6v.3c-.7-.1-1.2-.4-1.3-1.3l-.1-1.5c.2.9.6 2 1.2 2.4.1.1.2.1.2.1zm0 1.3v3h-.3c-.4 0-.8-.1-1.1-.1 0 .3.2.6.3.9.1.2.1.3.1.5-.1 0-.1.1-.2.1-.1.1-.4.2-.2-.1.1 0 .3-.3.1-.6-.1 0-.3.1-.2-.1v-3.4.2c.3.2.6.4.7.9.1 0 .4 0 .5.1-.2-.3.2-1 .3-1.5-.1-.1 0 0 0 .1zm0 5c-.2-.1-.4-.2-.5-.3.1 0 .2-.2.1-.3-.1-.1-.2-.1-.3 0-.1.1 0 .3 0 .4H31c-.1 0-.2.1-.2.1-.2-.1 0-.3-.3-.2-.1.3-.1.6-.3.8l-.1.1v.4c.1 0 .1-.1.2-.1.2-.1.3-.4.5-.5.2-.2.5-.3.7-.3.1 0 .2 0 .3.1v-.2h.1zm0 1v1.4l-.4-.6c0-.4.2-.5.4-.8zm-1.7 5.2v-.2.2zm-.4 4.7h.4V62.3c0 .1 0 0 0 0l-.4-.3h.4v-.3h-.4v3.4zm.4-53.1c-.1 0-.3.1-.4.1v.7c.1-.1.3-.1.4-.2V12zm0 2.8v.7c-.2 0-.3-.1-.4-.2v-.5c.1.1.2 0 .4 0zm0 1.6v.6h-.1c-.2.2-.3.2-.3.4v-.9c.1-.1.2-.1.4-.1zm0 1.7v.7h-.4v-.6c.1 0 .1-.1.2-.1h.2zm0 1.9v1.2s-.1 0-.1.1c0 .4 0 .6.1.9v3.9c-.1.2-.1.3-.2.5 0 .2.1.4.2.7v.7l-.2-.2c0 .2-.1.4-.2.5v-3.5c0-.1.1-.2.1-.4 0-.1 0-.4-.1-.4v-3.5c.2.2.6.2.3-.2 0-.1 0-.2.1-.3zm0 10v1.2c-.1 0-.3-.1-.4-.2v-.6c.1-.1.3-.2.4-.4zm0 1.3v2.6c-.2 0-.3-.1-.4-.2v-.8l.3-.3c-.1-.2-.1-.4-.2-.7-.1 0-.1.1-.2.2v-.9c.1 0 .1.1.3.1h.2zm0 2.8v3c-.1-.3-.2-.7-.4-1V34h.1c.1.1.3 0 .3.1zm0 15.2v3c0-.2-.1-.3-.3-.4 0 0-.1 0-.1-.1v-3.2c.2.3.4.5.4.7zm0 5.5v.4c-.1.1-.3.1-.4.2V55c.2-.1.3-.1.4-.2zm0 5.4v.4l-.1-.1v-.1H30V60.1l-.1-.1v-.8.1l.1.2.1.2.1.2v.3zm-.4 1.1c.1-.2.1-.5 0-.7v.7zm0-2.9v-.5c.1-.2.1-.3.2-.4.1 0 .1.4 0 .6-.1.3-.1.3-.2.3zm0-1V57c.1-.2.2-.3.3-.4-.1.2-.2.4-.2.6 0 .1 0 .1-.1.2zm0-1.4v-.3l.1-.1s.1 0 .1.1c0 0-.1.1-.2.3zm0-3.2c.1-.2.1-.4 0-.6v.6zm0-23.3c.1-.2.3-.5.3-.9-.1-.4-.2-.1-.2 0s-.1.1-.1.2v.7zm0-9.9c.1-.1.2-.2.2-.3.1-.2.3-.6-.1-.4 0 .1-.1.1-.2.1l.1.6zm-.5 45.5h.5v-3.5h-.2c-.2 0 0-.1 0-.2.1 0 .1-.1.2-.2V60.3c-.1-.3-.4.7-.3.7-.1 0-.1 0-.2.1v4zm.5-53c-.2.1-.4.2-.5.3v.8c.1-.1.3-.2.5-.3v-.8zm0 2.8v.5c-.1-.1-.1-.1-.2-.1 0 .1.1.4-.1.6-.1.2-.2.2-.3.2v-.5c.1.1.2 0 .2-.1-.1-.3.1-.5.4-.6zm0 1.6v1c-.5.1-.5.3-.5.6V17h.3c-.1-.1-.1-.4.1-.4 0 0 0-.1.1-.1zm0 1.7v.6c-.3-.2-.3-.4 0-.6zm0 .8c-.2 0-.4-.2-.5-.4v4.2c.2-.1.4.1.2.3-.1.2-.1.4-.2.5v.9c.2-.2.3-.4.4-.6h.1v-3.5l-.1-.1c-.2-.5-.1-.7.1-.8V19zm0 5.8v3.5c-.1.1-.1.2-.1.2-.2 0-.1-.1-.1-.3 0-.1.1-.5.1-.5v-.1c0 .3-.3.4-.2.7.1.3.1.5 0 .7 0 .2-.1.3-.2.4v-3.9c.1-.2.2-.3.3-.4.1-.1.2-.2.2-.3zm0 4c-.1.3-.3.5-.5.7v2.1c.1.1.2.2.1.3l-.1.1v3.8c.1.1.3.2.5.3V34c-.2-.1-.2-.2-.3-.4-.1-.1-.2-.4.1-.8.1-.2.1-.4.2-.6v-.9c-.1 0-.1-.1-.2-.1-.4-.5 0-1 .1-1.5l.1-.1v-.8zm0 1.6v.6-.1c-.1-.2-.1-.2 0-.5 0 .1 0 .1 0 0zm0 2.5v.8c-.1-.1-.2-.3-.2-.4 0-.1.1-.3.2-.4zm0 15.8v3.2h-.1c0 .1.1.2.1.3v.6l-.1.1c-.2 0-.3.1-.4.1v-.3h.2c0-.1.1-.1.1-.2v-.3l-.2-.1h-.1v-.3s.1-.1 0-.2V47.4c0 .1.1.1.1.2.2.1.3.5.3.7 0 .2-.1.3.1.4zm0 5.3c0 .3-.3.5-.5.4h-.1v-.2c.1-.1.2 0 .2-.1.2-.1 0-.4-.2-.2v-.2h.1c.3 0 .5 0 .5.3zm0 1v.4c-.2.2-.4.4-.5.7v-.3c.1-.2.2-.4.3-.5 0-.1-.2-.2-.3-.2-.1-.1.2-.1.4-.1h.1zm0 .7c-.2.2-.4.5-.5.8v.3s.1 0 .1-.1c.2-.1.3-.4.4-.7v-.3zm0 1.3v.4c-.1.1-.1.2-.2.2-.2 0-.1-.1-.1-.2.1-.1.2-.2.3-.4zm0 .9v.5h-.1c0-.2.1-.3.1-.5zm0 1.4v.8h-.1v.1l-.1-.1V60l.1-.2.1-.1v-.6l.1-.1v.2l-.1.1zm-.5 1.6v-.5c.1-.1.1-.1.1 0s-.1.3-.1.5zm0-1.7c.1 0 .2-.1.2-.2.1-.1.1-.4-.1-.3-.1.1-.1.1-.2.1l.1.4zm0-1V58h.1c0 .1-.1.1-.1.2zm0-.9v-.2c.1-.2.3-.4.4-.4 0 .1.1.2-.1.3-.1.2-.2.2-.3.3zm0-3.6v-.3c.1 0 .3 0 .4.1-.1 0-.3.1-.4.2zm-.7 11.4h.7v-4c-.1.1-.1.3-.1 0 0-.1-.1-.2.1-.2v-.5c0 .1-.2.3-.3.4 0 .2-.1.2-.2.2-.1.2-.1.4-.2.5v3.6zm.7-52.8-.1.1-.2-.1c-.1-.6-.2-1-.4-1.2v4.7c0-.2.1.1.1.1 0 .2-.1.4-.2.7v2.7c.1-.1.3.1.3.2-.2.3-.1.5-.2.9 0 .2-.1.3-.2.4v.8c.2-.1.3-.4.4-.5.4-.1 0 1.1-.2 1.2-.1.1-.2.2-.2.3v1.1c.3-.5.6-.4.6-.9v-4.2c-.1-.1-.1-.2 0-.3V17.1s-.1 0-.1-.1c-.1-.2-.2-.6 0-.8h.1v-.5h-.1c-.2-.2-.3-.2-.4-.4 0-.3 0-.3-.1-.5-.2-.3 0-.7.2-1.1.1-.1.2-.3.4-.4l.3-1zm0 11.3v.9l-.2.2c-.2.6-.2.5 0 .8-.1.2-.2.1-.2 0-.2-.2-.3-.8-.2-1.2.2-.2.4-.4.6-.7zm0 1.9c-.2.4-.4.9-.4 1.4 0 .1.1.2.1.3-.1.1-.1.2-.1.3-.1-.2-.1-.4-.2-.6V31c.3.3.5.5.7.6v-2.1c0 .1-.1.1-.1.2-.1.3-.1.2-.3 0 .2-.1.3-.2.4-.3l-.1-3.9zm0 6.5v3.8c-.1-.1-.2-.3-.3-.5-.1-.2 0-.5-.3-.4h-.1v-1.6c.2-.1.3 0 .4-.2-.2-.4 0-.8.3-1.1zm0 15.3v4.1c0-.1-.1-.4-.3-.5-.2-.1-.3-.2-.4-.3v-.8c0 .1 0 .1.1.2 0 .2.1.1.2.1V50c-.3-.3.1-.6-.2-.9v-4.4c.1.1.1.2.2.3.1.8 0 1.5.4 2.3zm0 4.4v.3s-.1 0-.1.1v.6l.1.1v.2H29c-.2 0-.3-.6-.2-.7.1-.2.1-.5.4-.6h.1zm0 1.7v.3c-.1.1-.3.1-.4.1-.1-.2.2-.2.4-.4-.1 0 0 0 0 0zm0 .3c-.2.1-.3.3-.2.4 0 .1.1 0 .1 0 0-.1.1-.1.1-.2v-.2zm0 .5v.2c-.1 0-.1-.1 0-.2zm0 1.6v.3h-.1c0-.1.1-.2.1-.3zm0 .6v.3h-.1c0-.1.1-.2.1-.3zm0 .7v.2c-.2.1-.4.2-.4.5 0 .1-.2.1-.2.1v-.3c.2-.1.3-.3.6-.5-.1.1 0 .1 0 0zm0 .9v.2c-.1.2-.3.3-.3.5.1.1.1.1.3.1v.3c-.1 0-.3 0-.4-.1-.1.3 0 .7-.1 1-.1.2-.1.2-.2.3v-2.2c.3.2.3.1.6-.1 0 .1 0 0 .1 0zm-.7-.6s.1 0 0 0c.1-.1.3-.3.3-.4.1-.1 0-.2-.1-.2 0 .1-.1.2-.2.3h-.1l.1.3zm0-.6v-.2h.1c.2 0 .1-.3.3-.1 0 .1-.2.2-.4.3zm0-.5v-.2c.1-.1.2-.1.3-.1 0 .1-.1.2-.3.3zm0-.6v-.3c.1-.1.1-.2.1-.2.1-.1.1.2.2.1.1 0 .2-.2.3.1-.2.1-.3.3-.5.3h-.1zm0-3.9c.1-.1.4-.2.6-.2v-.1c-.2-.1-.4.1-.6 0v-.1.4zm0-25.5v-.6.6zm-.3 38.8h.3v-3.6c0 .1-.1.1-.1.2h-.1v.6c.1.1.2.2.2.3 0 .2-.1.3-.2.4l-.1 2.1zm.3-54-.3-.3v5.8c.1-.3.2-.4.3-.7v-4.8zm0 5.5v1.3s-.1-.1-.1 0-.1.2-.2.2v-.3c.1-.1.2-.2.2-.3 0-.1-.3-.3-.1-.6.1-.1.1-.2.2-.3zm0 1.5c-.1.2-.1.3-.1.4 0 .3 0 .5-.2.7v.5l.3-.3v-1.3zm0 2.7v.8c-.1 0-.1.1-.2.1 0 0-.1.2-.1.3v-.9c.1 0 .2-.1.3-.3zm0 1.8v1.1c-.2-.4-.3-.7 0-1.1zm0 3.1v.6c0 .1-.1.3-.2.4.1 0 .1.1.2.2V31c-.1-.1-.2-.2-.3-.4v-1.8c.1-.1.2-.3.2-.7 0-.1-.1-.2-.2-.2v-3l.1.1c.1.2.2.5.2.7zm0 7.6v1.6c-.1 0-.2-.1-.3-.2v-1.1c.1-.2.2-.3.3-.3zm0 11.5v4.4c-.1-.1-.2 0-.3 0v-4.9c.1.1.2.3.3.5zm0 5.1v.8c-.1 0-.2-.1-.3-.1v-.4c.1 0 .1 0 .2-.1-.1-.1-.1-.2-.2-.3v-.5c.1-.1.3-.2.2 0 0 .3.1.4.1.6zm0 1.5v.4c-.1.1-.1.1-.1.2-.1.4-.2.7.1 1.1v.1c-.1 0-.2.1-.2.2v-2.3s.2.2.2.3zm0 4.1v.3c-.1 0-.3.1-.3.1v-.3c.2-.1.3-.1.3-.1zm0 .5v.2c-.1 0-.1 0-.2.1l-.1.1V56c.1.2.2.1.3 0zm0 .6v.2c-.1 0-.2.1-.3.1v-.4c.1.1.2.1.3.1zm0 .5v.2c-.1 0-.3.1-.3.1s0 .2.3.2v.3c-.1 0-.2 0-.1.1 0 .1.1.2.1.2v2.2c-.1.1-.1.1-.1.2 0 .2-.1.3-.2.4v-3.8h.1c0-.1.1-.1.2-.1zm-.3-1.8v-.1l.1-.1-.1-.1v-.3c.1 0 .2.1.2.3.1.1.1.2 0 .3h-.2zm0-.7v-.2l.1.1s0 .1-.1.1c.1 0 0 0 0 0zm0-22.1v-.6c.1.1.3-.1.3.1-.1.2-.2.3-.3.5zM28 65.1h.4v-2.2h-.1c-.1 0-.2-.1-.2-.2l-.1 2.4zm.3-54.3c-.1-.1-.2-.1-.2-.2v-.2c.1-.5.1-1-.1-1.3v-.2V12c0 .1 0 .1.1.2.1.4.1.7-.1.9v.5c.2.2.2.7.1 1-.1.2.2.6 0 .9-.2.3.1.7-.1 1h-.1v1.7l.3-.9c0-.3 0-.5.1-.7v-5.8zm0 7v.3c-.1.1-.3.2-.2 0 .1-.1.1-.2.2-.3zm0 1.4v.5c-.3.3-.4.7-.3 1.2v-1.3l.2-.2c0-.1 0-.1.1-.2zm0 2v.9c-.1.2-.2.3-.2.3V22c-.1-.4.1-.6.2-.8zm0 3.7v3c-.1-.1-.2-.2-.4-.3v-4.5c.3.4.4.8.3 1.4.1.1 0 .3.1.4zm0 3.9v1.8c-.1-.1-.2-.3-.2-.4-.4.5.3 1.1.1 1.6 0 .1 0 .2.1.2v.6c-.1.2-.2.3-.4.5v-4.6c.1 0 .3.1.2.2 0 .1-.1.2-.2.3 0 .1.3-.1.4-.2zm0 4.8v1.1c-.2-.2-.2-.5-.1-.8 0-.1.1-.2.1-.3zm0 10.6v4.9s-.1 0-.1-.1v-.3c-.1 0-.2-.1-.3-.3v-5l.4.8zm0 5.2v.5l-.1-.1c0-.2 0-.4.1-.4zm0 .8H28c0-.5 0-.9-.1-1.1V52h.2c-.1 0 .1.4-.2.2v.2s.1 0 .2-.1v.5h-.2v.2h.1c.1-.1.2-.2.2.1-.1.1-.2.3-.3.4V54.7c.1-.1.2-.1.4-.1v-.2c-.1-.1-.1-.2-.1-.3-.1-.3-.1-.5.1-.7v-2.3c-.2-.2-.4-.3-.3-.4h.3v-.5zm0 4.6v.2l-.1.1.1.1v.1c-.1 0-.2 0-.4-.1v-.5h.1c.2 0 .3 0 .3.1zm0 .7V60.9c-.2.1-.3.3-.3.4v-6c.1.2.2.2.3.2zm0 6.1v.6c-.1-.1-.2-.1-.4-.2v-.4c.2.1.3 0 .4 0zM28 38.3v-3.2c.2 1.1.1 2.2 0 3.2zm-.3 26.8h.3v-2.4c-.1-.2-.1-.5-.2-.8.1 0 .1 0 .2.1v-.4h-.2c0-.1.1-.1.2-.2v-6c-.1 0-.2-.1-.2-.2l.1-.1s.1 0 .2.1v-.5H28s0-.1.1-.1v-.4c-.1.1-.1.2-.1.3-.1 0-.1.1-.2.2l-.1 10.4zm.2-56.3c0-.2-.1-.4-.3-.6v3.2c.1.1.2.3.3.5V8.8zm0 4.2v.5c-.2 0-.2 0-.1-.3 0-.1.1-.2.1-.2zm0 3.4v1.7c0 .1-.1.1-.1.2-.1.1-.1.2-.2.3V17c.3-.1.2-.5.3-.6zm0 3.2v1.3c-.2 0-.2-.2-.2-.3 0-.4 0-.7.2-1zm0 3.5v4.5c-.1 0-.2-.1-.3 0v-6.1c.1.2.3.4.2.8 0 .3-.3.7-.1.8.1-.1.2 0 .2 0zm0 5.3V33l-.2.2c0 .6.4.9 0 1.2.1.3.2.5.2.7v3.2l-.3 1.8V28.2c.2 0 .3.1.3.2zm.1 15.1v5c0-.2.1-.7-.3-.7V42.6c.1.4.2.7.3.9zm0 5.5-.3-.6v.8c.1.2.1.4.1.5 0 .2-.1.3-.1.3v1.8h.3V49zm0 3.1v.2s-.1 0-.1-.1c0 0-.1-.1.1-.1zm0 .7v.2c-.1-.1-.2-.2 0-.2zm0 .7v.8c-.2-.4-.1-.6 0-.8zm-.6 11.6h.3V54.7c-.1.1-.1.3-.2.2 0-.1-.1-.2-.1-.4v10.6zm.2-56.9-.2-.2c.1-.4 0-.8-.1-1.1v2.4c.1.2.1.3.1.5 0 .1 0 .1-.1.2v1.1s.1 0 .1.1l.2.2V8.2zm0 8.7v1.6c-.1.3 0 .7-.1.9-.1.2-.1.3-.2.4v-1.9c.1-.2 0-.6 0-.9v-.6l.3.5zm0 4.5v6.1c-.1 0-.2.1-.3.2v-7.4c.1.1.2.2.2.4 0 .4 0 .5.1.7zm0 6.7V40c-.1.6-.2 1.2-.1 1.9 0 .2.1.5.1.7v3.3-.2c0-.6-.1-1.2-.3-1.8V28c.1 0 .2.1.3.1zm.1 19.2v.5h-.2c.1.3.2.5.2.7v.8c0-.1-.1-.2-.1-.2-.1-.1-.2-.1-.2-.1v-1.7h.3zm0 2.8c-.1 0-.1-.2 0-.4 0-.2 0-.3-.3-.4v2.6h.3v-1.8zm-.4-36.7v-.6c.1.1.1.3 0 .6zm-.9 51.7h1V54.6c-.2-.5-.3-.8-.3-1.1-.3-.3-.7-.7-.7-1.1v-.3.9c.6.9 1 2 1 3.2 0 1.2-.3 2.3-.9 3.2v4.4h.7v.2c0 .1 0 .5-.1.5v.1c-.1 0-.2.1-.2.1h-.2s-.1 0-.1-.1l-.2.5zM27.3 7c-.2-.4-.5-.6-1-.7V7c.2.1.7.6.2 1-.1 0-.1 0-.2.1v1s.1 0 .1.1c.1.1.1.2.2.1 0-.2-.5-.7-.2-.9 0-.2.2-.1.3-.1.3 0 .3.3.2.4 0 .2.1.3.2.4.1.1.2.2.2.3V7zm0 3.1v1.1c-.1-.1-.1-.2-.1-.4.1-.1-.2-.1-.2 0-.1 0-.1.2-.1-.1.1-.3.3-.5.4-.6zm0 2.6c-.1-.4-.4-.6-.8-1.3-.2-.6.1-.6.1-1.2-.1-.3-.2-.5-.4-.7v1.7c0 .1.1.2.1.3.2.3.2.6.4.9.1.2.2.6-.3.7-.1.1-.1.1-.2.1v5l.1.1c.2 0 .3.2.5-.1-.1-.2-.4-.2-.4-.4l.1-.1.7.6v-.5l-.7-.5c.1-.4-.2-.5-.2-1.2 0-.2-.1-.9.2-.6.1.1.3.3.1-.1-.1-.3-.1-.4-.1-.9.2-.3.5-.4.6-.8 0-.1.1-.2.1-.3l.1-.7zm0 3.7v.6-.1c0-.2-.1-.3-.1-.5h.1zm0 2.7v.7c-.1.3-.1.4 0 .5v7.4s-.1.1-.1.2c0 0 .1 0 .1.1v8.4c0-.5-.1-1-.2-1.3-.1 1-.2 2-.4 3-.1 1-.3 1.9-.4 2.8v-2.1c.2-.4.3-.9.3-1.5v-1.1c0-.5-.1-.9-.3-1.3v-3.1.1c0 .2 0 .4.1.3.2-.1.2-.3.2-.6-.1-.2-.2-.3-.3-.4v-.5c.1 0 .2-.1.2-.2.2-.4.3-.8-.1-1.2l-.1-.1v-.6h.1c.1-.3.2-.3.1-.7 0-.1 0-.2.1-.2 0-.2-.2-.2-.3-.2v-.6c.1 0 .2-.1.4-.3.1-.2.1-.3-.1-.5-.1-.2-.2-.3-.3-.4v-1.5c.2.1.4.3.3.8 0 0-.2.1-.2.3.2 0 .5 0 .7-.1.4-.4 0-.8-.2-1.2-.2-.4-.3-.2-.3-.2-.1.1-.2.1-.3.1v-3.7c.2-.3.4-.3.7-.5.2-.1.3-.4.3-.6zm.1 18c0 .6-.1 1.3-.1 2-.2 1.3-.5 2.7-.9 3.8v4.7h.2c.7.2.4.9.3 1.3 0 .3.2.3.2.1 0-.1.2-.2.4-.1v-1.7c-.2 0-.3-.1-.5-.3 0-.5 0-1.1-.2-1.9 0-.7.3-1.1.4-2 .1.3.1.5.2.8v-6.7zm0 12.1v2.6l-1-.1v-3.3c0 .1.1.2.2.3.2.4 0 .7 0 1.1l.3-.5c.1.1 0 .3.1.4.1.3.3.2.2-.1-.2 0-.1-.3.2-.4zm-1 8.9V56.4l-.1-.1h-.1V56h.1V54.3l.2.6.2.8v.8l-.1.4v.4l-.1.4-.1.4zm-.1-39.2v-.5c.2.2.4.5.3.9 0 .2-.1.3-.2.4 0 0-.1 0-.1-.1.1-.2.1-.5 0-.7zm-.1 46.2h.2v-.7c-.1 0-.1-.1-.2-.2v-.3 1.2zm.1-58.8h-.2V7h.2v-.7zm0 1.8v1c-.1 0-.1-.1-.2-.1v-.9h.2zm0 1.4v1.7c0-.1-.1-.3 0-.5-.1-.1-.1-.2-.2-.3v-1c.1 0 .1 0 .2.1zm0 3.7v1.7c0-.1-.1-.1-.1-.2h-.1v-1.3c.1-.1.1-.2.2-.2zm0 1.9v3.1c-.1 0-.1 0-.1.1l.1.1v.5c0-.1-.1-.2-.2-.2 0 0 0-.1-.1-.1v-3.2c.2-.1.3-.2.3-.3zm0 5.2V24c-.1 0-.1 0-.2.1v-3.5c.1-.1.2-.3.2-.3zm0 4v1.5c-.1-.1-.2-.1-.2-.2v-1.4c.1.1.2.1.2.1zm0 2.7v.6h-.1s0-.1-.1-.1v-.4c.1-.1.1-.1.2-.1zm0 1.6v.6c-.1 0-.1-.1-.2-.1v-.4c.1 0 .2-.1.2-.1zm0 2v.5l-.2-.2v-.3c.1.1.2.1.2 0zm0 1.2v3.1c-.1-.1-.1-.2-.2-.3v-3c.1-.1.2 0 .2.2zm0 7v2.1c-.1.7-.1 1.5-.1 2.2 0-.1 0-.1.1-.2v4.7c-.1 0-.2-.1-.2-.1v-.8c.1 0 .2-.2.2-.3 0-.5 0-1-.2-1.5v-5.5c.1-.2.2-.4.2-.6zm0 9.7v3.3h-.2v-2c.1-.3.1-.6 0-.8v-1.1c.1.2.2.5.2.6zm0 3.6v.9c-.1-.1-.1-.2-.2-.3v-.6h.2zm0 2.1v.8h-.2v-.2h.1v-.1h-.1V54l.2.3v-.1zm.1 1.1v.3h-.1l.1-.3zm0 .7v.2h-.2V56h.2zm0 .6v.4l-.1-.1-.1-.1v-.2h.2zm0 .6v.9l-.2.5v.1-.8h.1v-.1h.1v-.2l-.2-.1v-.3h.2zm0 2.1v4.4h-.2v-4.1c0-.1.1-.2.2-.3zm-.3-28.8v-.6c.1.1.1.1.1.2s0 .2.1.2l-.2.2zm0-2.1V28c.1.2.1.3 0 .4zm0-1.7v-.3c0 .1.1.2 0 .3zm-.8 38.4h.8V64H26v.1c0 .1 0 .2-.1.3 0 .1-.4 0-.4 0l-.1-.1-.1.8zm.8-58.8h-.8v.8c.2-.1.5-.2.8-.1v-.7zm0 1.9v.9c-.3-.1-.6-.3-.5-.6 0-.1.2 0 .3 0 0-.2.1-.3.2-.3zm0 1.1c-.1-.1-.2-.1-.3-.1-.1 0-.3-.1-.5-.3v.5c.2.1.5.3.6.4 0 .2.1.3.2.5v-1zm0 4v1.3c-.1 0-.2-.2-.2-.3 0 .3-.2.6-.6.9v-.5c.2-.2.2-.5.1-.7-.1-.1-.1-.1-.1 0v-.7c.1.2.1.4.4.5 0 .1.1.2.2.3 0-.1.1-.4.1-.5 0-.1 0-.2.1-.3zm0 2.1v3.2c-.2-.2-.1.1-.1.2 0 .2-.2.2-.2 0-.1-.2-.2-.2-.1.1.1.2.1.2.1.4 0 .3-.3 0-.4-.1-.1 0-.1-.1-.1-.1v-2c.4-.1.6 0 .8-.4.1-.4-.1-.9 0-1.4-.1.2 0 .1 0 .1zm0 5.2c-.1.1-.3.2-.3.2h-.3c-.2 0 .1-.2.2-.3.1-.1 0-.3.1-.4 0-.4-.3-.4-.5-.7v.8c0 .1.1.1 0 .2v3c.2.1.4.1.6.4.1.1.2.8 0 .8-.1.1-.2.1-.3.1 0-.4 0-.5-.3-.8v.7l.1.1c.1.1.1.4.4.4.4 0 .1.2.2.3V24l-.1-.1h.1l.1-3.3zm0 5.9v.3c-.1.1-.2.2-.3.2-.1-.3-.3-.4-.5-.6v-.5c.1.1.7.2.8.6zm0 .5c-.1 0-.2 0-.2.1v.1c0 .1.1.1.2.2V27zm0 1v.4c0 .1-.1.2-.1.2h-.2c-.1-.3-.3-.4-.5-.5v-.6c.2.1.3.2.6.2.1.1.2.2.2.3zm0 .7v.4c-.1 0-.2-.1-.3-.2 0-.1.2-.2.3-.2zm0 1.2c-.1-.2-.3-.3-.5-.5s-.3-.2-.3-.5v-.3 1.2c.1.1.1.2.2.3.1.2.3.3.4.5.1 0 .2-.1.3-.1l-.1-.6zm0 .8v.3s-.1 0-.1-.1 0-.1.1-.2zm0 .7v3s0-.1-.1-.1l-.7.7v-1.3c.1-.1.1-.2.1-.5 0-.1-.1-.2-.1-.3v-2c.3.1.6.3.8.5zm0 8v5.5c-.2-.9-.5-1.9-.6-2.8.1-.9.4-1.6.6-2.4v-.3zm0 7.3v.8c-.3-.2-.3-.7-.1-.9l.1.1zm0 1.3c-.1-.3-.3-.6-.8-.4v.3c.4-.2.5.3.4.5 0 0-.3.2-.4.3v.2c.3-.3.6-.2.8.1v-1zm0 1.8v2c-.1 0-.1.1 0 .2h.1v.6c-.2-.3-.5-.6-.8-.9V50h.2c.2-.3-.5-.6 0-1 .1-.2.4-.1.5 0 .2.2-.1.5-.1.8 0 .3 0 .3.2.2-.1 0-.1-.1-.1-.2zm0 4-.1-.4-.4-.6-.2-.2V53.5l.1.1V53.9l-.3.1h-.1v.3l.2-.1.4-.2v.1h-.1v.1l.1.1h.1l.3-.5zm0 .9v.3H26l-.3.1-.3.1v-.3l.7-.2zm0 1.3v.2h-.8v-.3H25.9l.2.1zm0 1.2v.3l-.1-.1h-.2l-.3-.1h-.2V57h.1l.3.1.2.1h.2zm0 .6v.8l-.6.9-.3.2v-.5l.1.1.4-.6v-.1c-.2-.1-.3-.2-.5-.3V58l.7.4v-.5l.2-.1zm0 1.8c-.2.3-.5.6-.8.9v1.4h.1c.3.1.3.2.5.3.1.2 0 .3 0 .4l-.1.1h-.3c0-.2 0-.4-.1-.6 0 0-.1 0-.1-.1v1.6h.8v-4zm-.8-42.7c.3-.3.4-.6.4-1.2 0-.1.1-.3.1-.4.1-.1.5-.5.1-.4-.1.1-.2.2-.2.4-.2.1-.3.3-.5.4l.1 1.2zm0-4.5v-.5l.1-.1c.1-.1.5-.2.6-.2.1.2 0 .1-.2.2-.1.2-.3.4-.5.6zm0-1v-.6c.1.2.3.4.4.5-.1.1-.2.2-.4.1.1.1 0 .1 0 0zm0-.9v-.4l.2.2s.4.5.3.7c-.1.1-.1 0-.2-.1 0-.1-.2-.3-.3-.4zm0-2.5v-.4c.1-.1.3-.1.4-.1.1 0 .3.2.2.3 0 .3-.2.2-.4.1-.1 0-.2 0-.2.1zm-.7 57.1h.8v-.8c-.1-.1-.1-.3-.1-.3h-.1v.1l-.1.3-.1.1c0 .1-.2 0-.3 0h-.1v.6zm.7-58.8h-.1c-.2-.1-.4-.2-.6-.2v.5c.1 0 .2 0 .3.1-.2.1-.2.1-.3.2v.8c.2-.3.5-.6.8-.6l-.1-.8zm0 1.3V8c-.3.1-.5.5-.3.7 0 .1.2.2.3.3v.5c-.3-.2-.5-.3-.8-.5v-.5c.1-.1.1-.1.1-.3.2-.2.4-.5.7-.6zm0 2.5v.4c-.2-.2-.5-.3-.8-.3v-.5h.1c.3.1.5.2.7.4zm0 .7c-.2-.2-.4-.3-.7-.3h-.1v.4c.1 0 .2.1.3.2.1 0 .3.2.4.3l.1-.6zm0 1.1v.5c-.1 0-.1.1-.1.1-.2.1-.4.1-.6.1v-.4c.1 0 .3-.1.7-.3zm0 1.4v.7c-.1.2-.2.5-.8.7v-.3c.2-.2.4-.4.4-.7 0-.3 0-.5-.2-.7-.1-.1-.2-.1-.2.1v.3-.8c.2.1.3 0 .5.2.2.1.2.3.3.5zm0 1.4v.5c-.2.1-.5.2-.8.3v-.4c.4 0 .6-.2.8-.4zm0 1.1v1.1c-.1.1-.2.2-.4.3-.5.1-.3.2-.2.5 0 .2 0 .4.1.5h.1c.3-.4.1-.8.4-.9v2l-.1.1c0 .1 0 .1.1.2v.8c-.1-.1-.2-.2-.3-.4 0 .2-.2.4-.1.7-.2.1-.2-.1-.2-.2l-.1-.1v-4.2c.2 0 .3-.1.5-.2 0-.2.1-.2.2-.2zm0 4.7c-.1 0-.2 0-.2.1-.1 0 0 .2 0 .3.1.4-.1.9-.3 1-.1.1-.2.1-.3.2v.6c.1.1.2.3.4.6.1.1.2.2.4.3v-3.1zm0 3.5v.7h-.1c.1.3.1.7 0 .9 0 .1.1.2.1.2v.5c-.1-.1-.1-.2-.2-.3 0-.2-.3-.1-.2.2.3.3.2.8.2 1.1l.1.1v.6c-.1-.1-.2-.2-.2-.4-.2-.2-.3.1-.2.2.2.1.3.4.4.6v1.2c-.1-.1-.1-.2-.2-.3-.3 0 .2.5.2.8v2.7c-.2-.5-.4-.3-.5-.6.3-.2.1-.5-.1-.7 0-.1-.1-.1-.1-.2v-7.8c.2.3.4.4.8.5zm0 9.8v1.3c-.2.2-.5.4-.7.4v-1.4h.3c.1-.2.3-.3.4-.3zm0 13.7v.3h-.1c-.1.2-.2.6-.4.8-.3 0-.3-.6-.3-1.1.3-.9.1-1.7 0-2.5v-1.2h.1c.2.8.1 1.1.5 2.3.2.5.2 1 .2 1.4zm0 1.2v.2c-.1 0 0-.1 0-.2zm0 1.4c-.1 0-.1-.1-.1-.3 0-.5-.2-.7-.5-.9-.1 0-.1 0-.1-.1v.2c0 .1.1.1.1.1 0 .3 0 .6-.1.7v1.4c.3.2.5.3.8.5l-.1-1.6zm0 2.5v.3l-.6.6V53l.4-.2v-.1H24.8v-.5l.5.4zm0 1.2v.3l-.2.1-.4.2-.2.1v-.4l.2-.1.3-.1.3-.1zm0 1.1v.3l-.3.1-.3.1h-.1v-.3l.7-.2zm0 1v.3h-.8v-.3h.8zm0 1v.3h-.1l-.3-.1h-.4v-.3h.4l.2.1h.2zm0 1.1v.3c-.2-.2-.5-.3-.8-.5v-.2l.8.4zm0 1.2v.5l-.1.1c0 .1-.4.3-.6.5v-.2c.2-.1.4-.3.6-.4l-.6-.6v-.5c.3.2.6.4.7.6zm0 1.3v1.4h-.2l.2.2v1.6h-.8v-2.8c.3 0 .6-.2.8-.4zm-.7-17v-1.8c.3.2 0 1 .1 1.6-.1 0-.1.1-.1.2zm-.1-9.8c.1.1.1.2.2.2.2.1.2-.1.3-.1 0-.2 0-.3-.1-.5-.2-.1-.3-.3-.4-.4v.8zm0-1c.1-.3.2-.5 0-.8v.8zm-.2 32.4h.3V64.1h-.1l-.2 1zm.2-59h-.3v.5H24.5v-.5zm0 .8v.8c-.1.3-.2.5 0 .8V9h-.1c-.1 0-.1-.1-.2-.1V7.5c0-.1.1-.2.1-.3.1-.1.2-.2.2-.3zm0 2.8v.5h-.2v-.5h.2zm0 .8v.4h-.3v-.3c.1 0 .2-.1.3-.1zm0 1.7v.4h-.1.1v.8c0 .2-.1.3-.2.4v-1.7c.1.1.2.1.2.1zm0 2.2v.3H24.2v-.3c.2.1.2 0 .3 0zm0 .7v.4h-.3v-.4c.2.1.2.1.3 0zm0 1v4.2c-.2-.1-.1.3-.1.3 0 .2-.1.2-.1.2v-2.2c.1-.1.1-.3.1-.4.1-.3-.1-.6-.1-.9v-1.1c.1-.1.1-.1.2-.1zm0 5.9v.6l-.1-.1h-.2V22c.2.1.3.1.3 0zm0 1.7v7.8h-.1c-.2-.1-.3 0-.1.2.1.1.1.2.2.3v1.8c-.1-.1-.1-.1-.2-.1h-.1v-8c.1-.2.1-.4.1-.8 0 0 0-.1-.1-.1v-1.2c.1-.1.2 0 .3.1zm0 10.3v1.4c-.1 0-.2.1-.3.1v-1.8c.1.2.2.3.3.3zm.1 7.7v1.8l-.3.6v-1.5c.1-.3.1-.6.3-.9-.1-.1-.1 0 0 0zm0 2.1c-.1 0-.1 0 0 0l-.1.6c0 .2 0 .4.1.6v-1.2zm0 5v.2c-.1-.1-.2-.3 0-.2zm0 1.1v1.4c-.1-.1-.2-.1-.3-.2v-2l.1.1c.1.2 0 .5 0 .9h.2c-.1-.1-.1-.1 0-.2zm0 2v.5V52.1h-.1v-.4l.1.2zm0 1.1v.5l-.1.1-.2.2v-.5l.3-.3zm0 1.1v.4l-.2.1h-.1v-.4l.3-.1zm0 1v.3l-.3.1v-.3l.3-.1zm0 .8v.3h-.3v-.3h.3zm0 .9v.3l-.2-.1-.1-.1v-.2h.1l.2.1zm0 .8v.2c-.1-.1-.2-.1-.3-.2v-.2l.3.2zm0 1v.5l-.3-.3v-.4c.1 0 .2.1.3.2zm0 1.5v.2c-.1.1-.2.1-.3.2v-.4c.1.1.2.1.3 0zm0 .9v2.8h-.3v-2.6c.1-.1.2-.1.3-.2zm-.3-12.8v-.4.4c0-.1 0 0 0 0zm0-7.5V37c.1.9.1 1.8 0 2.6v1.1zm-.1 24.4.1-1v.2l-.1.8zm.1-58.9c-.1 0-.1 0 0 0l-.1.5h.1v-.5zm0 1.4V9h-.1V7.9c0-.2 0-.3.1-.3zm0 2.1v.5h-.1l.1-.5c-.1.1-.1.1 0 0zm0 .9v.3l-.1.1.1-.4c-.1 0-.1 0 0 0zm0 1.6v1.7s-.1 0-.1.1l.1-1.8c-.1-.1-.1 0 0 0zm0 2.3v.3h-.1l.1-.3c-.1 0-.1 0 0 0zm0 .7v.4h-.1l.1-.4c-.1 0-.1 0 0 0zm0 .9v.5s0-.1-.1-.1l.1-.4zm0 .6c-.1.2 0 .4 0 .6v-.6zm0 1.9v2.2s-.1 0-.1-.1v-1.9c0-.1 0-.1.1-.2zm0 3.5v.5h-.1l.1-.5c-.1.1-.1 0 0 0zm0 1.3v1.2s-.1 0-.1-.1v-1.3c0 .1 0 .1.1.2zm0 2.1v10.1h-.1v-9.9c0-.1.1-.1.1-.2zm0 11.5v3.7c0 .2 0 .4-.1.6v-4.9c0 .2.1.4.1.6zm0 5.6v1.5c0 .1-.1.2-.1.3V43l.1-.4zm0 5.2v.4s0 .1-.1 0v-.6c0 .1.1.1.1.2zm0 1.3v2h-.1l.1-2c-.1 0 0 0 0 0zm0 2.6v.3h-.1l.1-.3zm0 1.5v.5l-.1.1.1-.6zm0 1.1v.4h-.1l.1-.4zm0 .9v.3h-.1l.1-.3zm0 .7v.3h-.1l.1-.3zm0 .9v.2h-.1l.1-.2zm0 .6v.2l-.1-.1.1-.1zm0 1v.4l-.1-.1.1-.3zm0 1.7v.4h-.1l.1-.4c-.1 0-.1 0 0 0zm0 1.1v2.6h-.1l.1-2.6zm-.7 3.9h.6v-.7c-.1 0-.3.1-.4 0-.1 0-.1-.1-.2-.1v.8zm.6-58.9c-.1 0-.2.1-.4.1-.1-.1-.2-.1-.3-.1v1.4c0-.2.1-.3.1-.4.1-.3.3-.4.5-.5l.1-.5zm0 1.6v1.1c-.1 0-.2-.1-.3-.1-.1 0-.2-.1-.3-.1v-.9c0 .2.1.5.2.6.2-.1.3-.3.4-.6zm0 2v.5c-.3.1-.5.3-.6.5V10h.1c.1-.1.3-.2.5-.2zm0 .8c-.2.1-.3.3-.4.5 0 0-.2.3-.2.4v.1h.4l.3-.7-.1-.3zm0 1.5v1.8c-.1.1-.4.2-.6.2v-.2c.5-.1.9-.9.4-1.2-.1-.1-.1-.1-.2-.1 0 .3-.1.5-.1.8V12c.1.1.3.1.5.1zm0 2.4v.2h-.6v-.2h.4c0 .1.1.1.2 0zm0 .7v.4h-.1c-.2 0-.3 0-.5-.1v-.4c.2 0 .4.1.6.1zm0 .9v.5c-.2 0-.2.4-.2.5-.3 0-.3 0-.4.2 0 0 0 .1-.1.1V16c.3.1.5.1.7.1zm0 2.6v1.9l-.1-.1c-.1-.1-.2 0-.2.2 0 .3.3.4.2.8 0 .1-.2.5-.4.4-.1.2.1.2.2.2h.2v.5c-.1 0-.2.1-.2.2.1.1.1.2.2.4v1.3c-.2-.2-.5-.4-.6-.7v-2s0-.1.1-.1c.1-.2.1-.5-.1-.7v-1.8c.1 0 .1-.1.2-.1.3-.1.4-.2.5-.4zm0 6.9v9.9c-.2 0-.1.1 0 .6V41.2c-.1.9-.4 1.7-.6 2.6v-2.6c.3-.8.7-2.5.3-3.3-.1-.5-.3-1.2-.3-1.7v-1.8c.3-.2.3-.6.2-.9 0-.1-.1-.1-.2-.1v-1.9c.1-.1.1-.2.2-.3.1-.4.1-.6 0-.8h-.2v-2.5c.1 0 .2-.1.2-.1.2-.2.4-1-.2-.9v-2.4c.1.1.2.1.3.2.1.6-.2.6-.2.7 0 .2.3.1.4.1 0 .2.1.2.1.1zm0 17.4c-.1.5-.2.9-.3 1.4l-.3 2.2v4.3l.6.3v-2c-.2 0-.5.1-.3.5.1.1.2.3.2.5-.2.1-.2.1-.4 0 .1-.1.1-.2.1-.3v-.4c-.1-.3.2-.6.3-.9-.1-.2-.1-.1-.3-.1v-.4c.2-.3.2 0 .4.1l.1.1v-.6c-.1-.1-.1-.3-.2-.7.3-.8-.2-1.6.1-2.3V43zm0 8.7v.3h-.1l-.1.4-.2.4-.2.2v-.6l.4-.5h-.2v-.4l.2.1.2.1zm0 1.6v.5l-.6.5v-.4l.1-.1.3-.3.2-.2zm0 1v.4l-.2.1-.4.2v-.3l.1-.1.2-.2.3-.1zm0 .9v.3H24l-.3.1h-.1v-.3l.6-.1zm0 .7v.3h-.6v-.3H24.2zm0 .8v.2h-.1l-.6-.1v-.2l.7.1zm0 .7v.2c-.2-.1-.4-.3-.6-.4V57l.6.4zm0 .9v.4l-.6-.6v-.3c.2.1.4.3.6.5zm0 1.8v.5l-.5.3-.1.1v-.2c.2 0 .3-.1.4-.2 0 0-.1-.2-.1-.3 0-.1-.2-.3-.3-.6v-.5c.4.5.5.8.6.9zm0 1.1v2.6h-.6v-1s0-.1.1-.1v-.2s0-.1-.1-.1v-.8c.2-.2.4-.3.6-.4zm-.9 3.9h.4v-.7h-.1v-.2h-.1v.1l-.2.8zm.3-58.9c-.1 0-.2-.1-.4-.1v.6c.1.1.1.2 0 .4v1.5h.1c.1 0 .2 0 .3.1V6.2zm0 3.8v.8c-.2.4-.3.8-.3 1.2h.3v1.4c-.1.1-.2.2-.4.2v-.5c.1 0 .1 0 .1-.1s0-.4-.1-.4v-2.5c.1.1.2 0 .4-.1zm0 3.9v.2h-.4v-.2h.4zm0 .7v.2c-.1 0-.2 0-.4-.1v-.2c.1 0 .2.1.4.1zm0 .5v.4c-.1 0-.2-.1-.4-.1v-.3h.4zm0 .9v1.4c-.1.2-.2.3-.4.5v-.7c.1-.1.1-.2.1-.3 0-.1 0-.1-.1-.1v-1c.1.1.2.2.4.2zm0 3.2V21c0-.1 0-.3-.2-.4l-.2.4v-1.8h.4zm0 2.7v2c-.2-.2-.2-.6-.3-.7v-1c.2-.1.2-.2.3-.3zm0 2.8v2.4c-.1 0-.3-.1-.3-.3v-2.3s.2.1.3.2zm0 3.3v2.5c-.1 0-.3 0-.4-.1V28c.2.1.3.1.4 0zm0 3.5v1.9c-.1 0-.2-.1-.4-.1v-1.5c.1-.1.3-.2.4-.3zm0 2.9v1.8c-.1.1-.2.1-.3.2v-.9c0-.1.1-.2.1-.3.1 0 .2-.3-.1-.2h-.1v-.5c.1 0 .2 0 .2-.1.1.1.1 0 .2 0zm0 6.9v2.6c0 .2-.1.3-.1.5-.1.5-.2.9-.1 1.4 0 .2.1.7.2.9v-.2 4.3c-.1 0-.2-.1-.4-.1v-9.5c.1.2.1.3.2.5.1-.1.1-.2.2-.4zm0 10.1v.5h-.1v-.3l.1-.2zm0 1v.6l-.1.1-.2.4v.1-.7l.1-.2.2-.3zm0 1.5v.4l-.4.3v-.4l.1-.1.3-.2zm0 .8v.3l-.4.2v-.3l.1-.1h.1l.2-.1zm0 .6v.3l-.4.1v-.3l.4-.1zm0 .6v.3h-.4V56h.2l.2-.1zm0 .6v.2l-.4-.1v-.2l.4.1zm0 .6v.2c-.1-.1-.2-.1-.4-.2v-.2l.4.2zm0 .7v.3l-.4-.4v-.3l.4.4zm0 1.2v.5c-.1-.2-.2-.3-.4-.5v-.6c.2.2.3.4.4.6zm0 1.6v.2c-.1.1-.3.1-.4.1v-.4c.1.1.3.1.4.1zm0 .9v.8-.1H23.3v-.5c.1-.2.2-.2.3-.2zm0 1.3v1h-.4v-1h.4zm-.4-28.5v-.9l.1.1c.1.3.1.5-.1.8.1 0 0 0 0 0zm0-2.7c.1-.1.1-.2.1-.3 0-.1-.1-.3-.1-.4v.7zm0-3.9v-.3c.1.1.1.2 0 .3zM23 65.1h.3v-.9c0 .1 0 .2-.1.3H23v.6zm.2-59h-.3v.5c.1 0 .2 0 .3.1v-.6zm0 1.5v1c-.3-.1-.3-.1-.1-.4 0 0 .1-.2.1-.6zm0 2.7v2.5c-.1.1-.1.3-.1.4h.1v.5c-.1 0-.2.1-.3.1v-1c.1-.1.2-.2 0-.5v-1.8c.1 0 .2-.1.3-.2zm0 3.6v.2H23c0-.3.1-.2.2-.2zm0 .6v.2c-.1 0-.2-.1-.3-.1v-.2c.1 0 .2 0 .3.1zm0 .5v.3c-.1 0-.2-.1-.3-.1v-.3c.1.1.2.1.3.1zm0 .9v1l-.3.3v-1.4c.1 0 .2 0 .3.1zm0 1.4v.7c-.1.1-.2.2-.3.2v-.6l.3-.3zm0 1.9V21l-.1.1-.2-.2v-1.6c.1 0 .2 0 .3-.1zm0 2.9v1c0-.1-.1-.1-.2-.1v-.9h.2zm0 2.4v2.3c0-.1-.1-.2 0-.3 0-.2-.1-.3-.3-.4v-1.7c.1 0 .2 0 .3.1zm0 2.9v.3c-.1.1-.2.2-.1.3h.1v2.4s-.1 0-.1-.1c-.1 0-.1-.1-.2-.1v-3.1c.2.1.3.2.3.3zm0 3.5v.7c-.1.2-.2.3-.2.3.1 0 .1 0 .2-.1v1.5c-.1 0-.2-.1-.2-.2-.1-.1.1-.2 0-.5l-.1-.1v-1.9l.3.3zm0 2.6-.3-.3v1.2c0 .1.1 0 .3-.1v-.8zm0 1v.5c-.1 0-.2-.1-.3-.2v-.3c.1 0 .2.1.3 0zm0 1v.9c-.1 0-.2.1-.3.1v-.7l.3-.3zm0 5.7v9.5c-.1 0-.2-.1-.3-.1v-4.8c0-.5.1-1.1.1-1.6 0-.2-.1-.4-.1-.5v-3.9c0 .2 0 .4.1.7.1.2.1.4.2.7zm0 10v.3H23v.1-.3l.2-.1zm0 1.8v.7l-.2.2v.1-.6l.2-.4zm0 1.2v.4l-.2.2v-.3l.1-.1.1-.2zm0 .7v.3l-.2.2v-.3h.1l.1-.1v-.1zm0 .5v.3l-.2.1v.1h.2v.2H23l.2.1v.2l-.2.2v.1l.2.1v.2c-.1 0-.2-.1-.2-.1h-.1v-1.4l.3-.1zm0 2v.3l-.3-.3v-.3l.3.3zm0 1v.6c-.1-.1-.2-.3-.3-.4V58l.3.4zm0 2.2v.4c-.1 0-.2.1-.3.1V60c0 .1.1.3.1.4l.2.2zm0 1v.5l-.1.1v.6h.1v1H23v-2.2h.2zm-.3-26c0-.1.1-.2.1-.2.1-.2 0-.3-.1-.3h-.1l.1.5zm-.2 29.5h.3v-.6H22.7v.6zm.2-59c-.1 0-.2 0-.3.1v.6c0-.1.1-.1.2-.1h.1v-.6zm0 4.5v1.7c-.1-.3-.1-.6-.2-.8-.1-.2-.1-.3 0-.5 0-.1.1-.2.2-.4zm0 2.2v1c-.1.1-.2.1-.3.2v-1.1h.1c.1 0 .2 0 .2-.1zm0 1.5v.2c-.1-.1-.2-.1-.3-.2.1-.1.1-.1.2 0h.1zm0 .6v.3c-.1-.1-.2-.1-.3-.2v-.3c.1.1.2.2.3.2zm0 .8v1.4l-.2.2c0 .1-.1.1-.1.2v-.3l.2-.2c.1 0 .2-.3.1-.4-.1 0-.2-.1-.2-.1v-1c0 .1.1.2.2.2zm0 1.9v.6c-.1.1-.2.1-.3.1v-.5c.1-.1.2-.1.3-.2zm0 1.7v1.6c-.1-.1-.1-.2-.2-.2h-.1v-1.5c.1.1.2.1.3.1zm0 2.8v.9h-.3v-.9H22.9zm0 2.2V26c-.1-.1-.2-.1-.3-.2v-1.9c.1.1.2.2.3.4zm0 2.8v3.1c-.2-.1-.2-.4-.2-.5 0 0-.1 0-.1-.1v-2.7c.1.1.2.2.3.2zm0 3.5v1.9l-.3-.3v-1.7c.1 0 .2 0 .3.1zm0 2.6v1.2-.2c-.1-.1-.2-.3-.3-.4v-.9c.1.2.2.2.3.3zm0 1.3c-.2 0-.3-.1-.3-.2v.3c.1.1.2.2.3.2v-.3zm0 .5v.6c0 .1-.1.1 0 .2v.7h-.1c0 1.1 0 2.2.1 3.3v3.9l-.3-1.2v-7.4c.1-.1.2-.1.3-.1zm0 10.8v4.8c-.1 0-.2 0-.3-.1v-.7h.1c.1-.3.1-.7-.1-1.1V47c.1-.2.2-.4.2-.6.1-.2.1-.4.1-.6zm.1 5.4v.3l-.2 1-.1.4v-1.3l.1-.3h-.1v-.2l.3.1zm0 2.3v.6l-.2.2-.1.2V54l.3-.5zm0 1-.2.2-.1.1v.2l.1-.1.2-.1v-.3zm0 .6v.3l-.1.1h.1v1.4c-.1 0-.1.1 0 .2v.3l-.3-.3v-.5c.1-.2.1-.4.1-.5 0-.2 0-.4-.1-.6v-.3h.2l.1-.1zm0 2.9v.6c-.1-.1-.2-.3-.3-.4v-.6l.3.4zm0 2v1.1c-.1 0-.2.1-.3.1V61c.1 0 .2 0 .2-.1h.1l-.3-1.3v-.5l.3.9zm0 1.7v2.2H22.7v-2.1c.1-.1.2-.1.3-.1zm-.4-53.2v-.8.1c.3.6.2.6.1.7h-.1zm-.2 56.6h.2v-.7h-.1s-.2-.3 0 0c0 0-.1-.1-.1-.2v.9zm.2-58.9c-.1 0-.2.1-.2.1v2.2h.2v-.8c-.1-.3-.1-.7 0-.9v-.6zm0 6.7V14c-.1 0-.1.1-.2.1v-1.2h.2zm0 1.9v.2c-.1-.1-.2-.1-.2-.2v-.2c.1.1.2.1.2.2zm0 .7v1c-.1 0-.2 0-.2-.1v-1.2c.1.2.1.2.2.3zm0 1.7v.3c-.1.1-.2.1-.2.1v-.3c.1 0 .1 0 .2-.1zm0 .6v.5c-.1 0-.2 0-.2.1v-.5c.1-.1.1-.1.2-.1zm0 1.4v1.5c-.1 0-.2.1-.2 0v-1.5h.2zm0 2.9v.9h-.2v-.9h.2zm0 1.8v1.9c-.1 0-.1-.1-.2-.1v-2.4c.1.2.1.4.2.6zm0 3.1v2.7c-.1-.1-.2-.1-.2-.1V27c.1-.1.1-.1.2 0zm0 3.4v1.7c-.1-.1-.2-.1-.2-.2v-1.6c.1.1.2.1.2.1zm0 2.6v.9c-.1-.1-.1-.2-.2-.2v-.8c.1 0 .2.1.2.1zm0 1.3v.3c-.1-.1-.1-.2 0-.3zm0 .7v7.4c-.1-.4-.2-.8-.2-1.2v-6.3c.1.1.1.1.2.1zm0 12.1v1.7s0-.1-.1-.1c-.1-.2-.1-.3-.2-.4v-.6c.2-.2.2-.4.3-.6zm0 2.8v.7h-.2V50l.2-.1zm0 1.2v.2h-.1v.1-.4l.1.1zm0 .5v1.3l-.2.8v-1.3l.2-.8zm.1 2.4v.5l-.1.1-.1.3v-.5l.2-.4zm0 .8-.3.2v.3c.1.1.2.2.2.3v-.3h-.1v-.5h.2zm0 1.9v.5l-.2.2.2.2v.6c-.1-.1-.2-.2-.2-.3V57c0-.1.1-.2.2-.3zm0 2.4v.5l-.2-1v-.2c0 .3.1.5.2.7zm0 1.9v.2h-.2V61h.2zm0 .7v2.1h-.2v-2.1h.2zm-.3-29.3v-.2s.1 0 0 .2zm0-10.7v-.8c.1.2.2.3.2.6-.1.2-.1.2-.2.2zM22 65.1h.4v-.8c0-.1-.1-.2-.1-.2h-.1v.5h-.1l-.1.5zm.4-58.8c-.1-.1-.3-.1-.4-.1v.6c.1 0 .2 0 .2.1.1.3.2 1.2 0 1.4-.1.1-.1.2 0 .2h.3l-.1-2.2zm0 6.6v1.2c-.1 0-.3.1-.4.1V13c.1-.1.2-.1.4-.1zm0 1.7v.2c-.1-.1-.2-.2-.2-.3.1-.1.1 0 .2.1zm0 .7c-.1-.1-.1-.2-.2-.3-.1-.1-.2-.2-.2-.3v1.4c.1.2.2.2.4.3v-1.1zm0 2v.3h-.1c-.2 0-.3-.1-.2-.4.1.1.2.1.3.1zm0 .5v.5H22v-.4c.1 0 .2 0 .4-.1zm0 1.4v1.5l-.1-.1h-.1c.1.1.1.2.2.2v.8h-.1c-.1 0-.1-.1-.3 0 0 .1 0 .2-.1.2V19c.1.2.2.2.5.2zm0 2.9v.9h-.2c.1.1.2.2.2.3v2.4c-.2-.1-.4-.3-.4-.5V22c.2-.1.2 0 .4.1zm0 4.8v2.6c-.2-.1-.3-.2-.4-.2v-2.5h.1s.2 0 .3.1zm0 3.4v1.6c-.2-.1-.3-.3-.4-.4v-1.4c.1.1.2.1.4.2zm0 1.9c-.1 0-.1.1-.2 0 0-.3-.1-.3-.2-.4v1.6l.1.1c.1.1.3.1.4.2v-.8c-.1-.2-.1-.3 0-.4l-.1-.3zm0 2.7v6.3V38c0-.6-.2-.9-.4-1.1v-3.4c.1.2 0 .5.1.7 0 .3.1.6.3.7zm0 12.8v.6-.6zm0 2.2v.6H22v-.6h.4zm0 1.2v.4-.2h-.1V51H22h.1l.3.1zm0 1.4v1.3l-.3 1.1h.1l.2-.4v.5h.1v.3c-.1-.1-.3-.2-.4-.3v-.6l.3-1.4v-.5zm0 4.5v.9c-.2-.2-.3-.4-.4-.4h-.1v-.3c.3 0 .4-.1.5-.2zm0 1.5v.2l-.1-.3c.1 0 .1.1.1.1zm0 2.5v.2H22V61c.1.1.3 0 .4 0zm0 .7v2.1H22v-2.1c.1.1.3 0 .4 0zm-.4-5.3v-.6c.1.1.1.2.1.3 0 .1 0 .3-.1.3zm-.4 8.7h.4v-.5h-.2s0-.1-.1-.1c0 0-.1 0 0 0v-.2l-.1.8zm.3-58.9c-.1 0-.3 0-.4.1v2.3c.1 0 .3-.1.4-.1.1-.3-.2-.5-.3-.9-.2-.4 0-.8.3-.9v-.5zm0 6.7v1.2c-.1 0-.3 0-.4-.1v-1.1h.4zm0 1.9v1.4c-.1 0-.1.2-.1.2s-.1.1-.3.1v-1.1c.2-.3.3-.4.4-.6zm0 3.1v.4c-.2 0-.3-.1-.4-.1v-.4h.2c.1.1.2.1.2.1zm.1 1.2v2.8h-.1c-.1-.1-.2-.1-.3-.1v-.9c.1 0 .1-.1.2-.2 0-.1 0-.1-.1-.1l-.1.1v-1.6h.4zm0 2.9v3.2c-.2-.3-.2-.7-.3-.9-.1.3.1.5.1.8 0 .3 0 .5-.2.6v-3.5h.1c0-.1.1-.2.3-.2zm0 4.7v2.5c-.2-.1-.3-.2-.4-.3v-2.6c0 .2.2.3.4.4zm0 3.4v1.4c-.1-.1-.1-.2-.2-.2l-.2.2v-1.8c.1.2.2.3.4.4zm0 1.6v1.6c-.1 0-.1-.1-.2-.1 0-.1-.1-.1-.3 0v-1.1c.1-.1.1-.1.2-.3.1-.1.1-.2.3-.1-.1 0-.1 0 0 0zm0 1.9c0-.1-.1-.1-.2-.1 0-.1-.1-.2-.2-.2 0 .1 0 .1-.1.1v1.4c.5.6 0 .6 0 1V36.6c0 .1.1.2.3.2 0 .1.1.1.1.2l.1-3.4zm0 16.3v.6h-.4v-.6h.4zm0 1.1v1.1l-.1.4V54.7h.1l.1-.3v.6h-.4v-1.8l.1-1.9-.1-.1V51H22zm0 4.8v.6c-.1.1-.2.2-.3.2h-.1v-.9h.1c.1 0 .2 0 .3.1zm0 1.4v.3c-.2 0-.3.2-.4.4v-.6h.1c.1 0 .2 0 .3-.1zm0 3.9v.2h-.4v-.2c0-.2.1-2.8.2-2.7.2.8.1 1.8.2 2.7zm0 .7v2.1h-.4v-1.4h-.1V62h.1l.4-.2zm-.5-44.3v-.2c.2.1.2-.3.3-.3.1 0 .1.5 0 .6 0 0-.1 0-.3-.1zm0-2.7c.2-.1.3-.2.1-.3l-.1.1v.2zm0-3.1v-.8c.1.1.1.2.2.4-.1.1-.1.2-.2.4zm-.2-5.4c-.1-.2-.3-.3-.6-.3v.7c.2 0 .4.2.4.4.1.5 0 1.1-.1 1.2-.1.1-.1.3 0 .3h.4V6.3h-.1zm-.5 58.8h.8v-.7c0-.1-.1-.2-.1-.3h-.1v.1s0 .1-.1.1v.1s0 .1-.1.2h-.1c-.1.1-.3-.1-.4-.1l.1.6zm.7-54.2v.8c-.2.4-.4.8-.2 1.1.1 0 .1.1.2.1V14c-.1 0-.1-.1-.1-.1-.1-.1-.3-.1-.4-.1h-.2v-.7c.1 0 .2-.2.1-.3h-.1V10c.3.1.5.5.7.9zm0 3.7v.2h-.1c-.2.1-.4.3-.7.4v-.3c.3 0 .5-.1.8-.3zm0 .7v1.1c-.3 0-.6.1-.7.4 0 .5.2.8.7 1v.4c-.3-.1-.6-.4-.8-.7v-1.7c.3-.1.6-.3.8-.5zm0 2s0-.1 0 0c-.1 0-.2-.2-.3-.2-.2.1.1.3.3.4v-.2zm0 1.8v1.6c-.1.1-.3.2-.4.3-.3 0 .1-.5-.1-.4l-.2.3s0 .1-.1.1v-1.8c.2 0 .4 0 .7-.1h.1zm0 1.8c-.2.1-.2.2-.2.4 0 .3.1.4.2.5v-.9zm0 1.3v3.5c-.1 0-.1 0-.2.1-.2.1-.4.1-.5.1v-1.3c.1-.1.3-.2.4-.5.2-.3.2-.6.3-1h-.8v-.9H21.5zm0 4.1c-.1-.2-.2-.3-.3-.5-.1.2.1.5-.1.8-.1.1-.2.3-.4.4v1c.2 0 .3-.1.4-.3.1 0 .1.1 0 .3-.1.2 0 .5.2.8 0 .1.1.2.1.2l.1-2.7zm0 3.4v1.8c-.1.1-.2.2-.4.2-.1.1-.5 0-.4.3v.3-3c.1-.1.1-.3.1-.5.1-.1.4.4.5.5.1.2.2.3.2.4zm0 2.4h-.1c-.3.1-.6.3-.7.6v.7c0 .1 0 .1.1.1l-.1.1v.4h.1c.1-.1.4-.2.4-.3-.1-.1.1-.3.3-.4v-1.2zm0 1.3v1.4c-.2.5-.4 1.2-.7 1.3l-.1.1v-2c.5 0 .7-.4.8-.8zm0 2.5c0 .2-.1.5 0 .7v-.7zm.1 14v.6c-.3 0-.5 0-.8.1v-.7h.8zm0 1.1v.3h-.2v.1h-.6v-.3l.7-.1h.1zm0 2.2-.1 1.6-.7-3.4v1.8l.1.4.1.4.1.4.1.5-.1.1-.4-.7v.7l.1.2h-.1v.4c.2-.3.5-.4.8-.4l.1-2zm0 2.5v.9c-.2 0-.4-.2-.4-.5 0-.2.2-.4.4-.4zm0 1.6v.6c-.4.6-.7 1.9-.8 2.6v-1.3c.1-.5.3-1.1.5-1.6 0-.1-.2.2-.5.6v-.5l.2-.2-.2-.2v-.4c.2.2.4.4.8.4zm0 3.8v.2l-.8-.1V61c.2 0 .6.1.8.1zm0 .7v.5H21.3s0 .1-.1.1l-.1.1v.1s0 .1.1.1h.5v1h-.8v-2.1c.1.1.4.1.7.2zm-.9-47.1c.3-.1.7-.2.6-.4-.2.1-.4.1-.6.1v.3zm0-.4v-.2h.3c.2 0 .1 0 .1.2h-.4zm0-5.8v-.3c.1.2.1.2 0 .3zm0-2.5h-.2v.8h.2V6zm-.1 59.1h.2v-.7c-.1 0 0-.3-.1-.3V64l-.1 1.1zm.1-56.9v.3l-.2.1v-.8c.1.2.2.3.2.4zm0 1.7v2.8h-.1c-.1 0 0 .1 0 .2s.1.2.1.1v.7c-.1 0-.1 0-.2-.1v-2h.1c0-.1 0-.1-.1-.1v-.3h.1c0-.2-.1-.4-.1-.5v-1c.1.1.2.1.2.2zm0 4.2v.2h-.2V14c.1 0 .2 0 .2.1zm0 .3v.3c-.1 0-.1 0-.2.1v-.3c.1 0 .2 0 .2-.1zm0 .6v.3c-.1 0-.1 0-.2.1v-.3c.1-.1.2-.1.2-.1zm0 .9v1.7c-.1-.1-.1-.2-.2-.3V16c.1-.1.2-.1.2-.1zm0 3.4v1.8c-.1 0-.1-.3-.1-.4h-.1v-1.4c.1-.1.2 0 .2 0zm0 2.8v.9h-.1s-.1 0-.1.1v-1.2l.2.2zm.1 2.4v1.3c-.1 0-.1.1-.2.1v-1.3s.1 0 .2-.1zm0 2.5v1h-.2v-.9s.1-.1.2-.1zm0 2.2v3s0 .1-.1.1c0 .1-.1.2-.1.2v-3.1l.2-.2zm0 3.5v.7c-.1-.2-.1-.5 0-.7-.1.1 0 0 0 0zm0 .9v.4c-.1 0-.1 0-.2.1v-.5h.2zm0 .8v1.9c-.1.1-.1.2-.2.4v-1.9c0-.2.1-.3.2-.4zm0 15.5v.7h-.2v-.7h.2zm0 1.2V53v-.2l-.1-.4-.1-.4v-.9h.2zm0 3.1v.7l-.1-.3-.1-.1v-.7l.2.4zm0 .9-.2-.2v.9c0-.2.1-.3.2-.4v-.3zm0 1.7v.4l-.2.2v-.9c0 .1.1.2.2.3zm0 .9v.5c-.1.1-.1.2-.2.3V58c.1-.1.1-.2.2-.3zm0 1.5v1.3c0 .2-.1.3-.1.4v.1h.2v.2h-.2v-1.1c0-.4 0-.6.1-.9zm0 2.5v2.1h-.2v-2.2c.1.1.1.1.2.1zM20.5 6c-.1 0-.2.1-.3.1v2.6c.1 0 .2-.1.3-.1v-.8c-.2-.4-.4-.8-.1-1l.1-.1V6zm-.2 59.1h.3V64c-.1-.1-.2-.1-.2 0-.1.2 0 .5-.1.5v.6zm.2-55.3v1c-.1-.2-.2-.3-.3-.4v-.7c.1 0 .2 0 .3.1 0-.1 0 0 0 0zm0 1.5c0-.1 0-.1 0 0-.2-.2-.3-.4-.3-.5v.8h.3v-.3zm0 .4v2c-.2-.1-.3-.2-.3-.4v-.6c0-.1.1-.4.2-.4-.1 0-.1.1-.2.1v-.6c.1 0 .2-.1.3-.1zm0 2.3v.3h-.1c-.1 0-.2 0-.2-.1v-.5l.3.3zm0 .5v.3h-.3v-.4c.1.1.2.1.3.1zm0 .5v.3c-.1 0-.2.1-.3.1v-.3c.1 0 .2 0 .3-.1zm0 1v1.3-.1c-.1 0-.2-.2-.3-.3v-.8c.1-.1.2-.1.3-.1zm.1 3.2v1.4c-.1.1-.2.3-.3.5v-2c0 .1.1.1.3.1zm0 2.7v1.2l-.3.3v-2c0 .2.1.4.3.5zm0 2.7v1.3c-.1 0-.2.1-.3.1v-1.3c0-.1.1-.1.3-.1zm0 2.5v.9h-.1l-.2.1v-.8s.1-.1.3-.2c-.1 0-.1 0 0 0zm0 2.4v3.1s-.1.1-.2.1c0 .1-.1.1-.1.2v-3.1l.1-.1c0-.1.1-.1.2-.2zm0 4.1v.5h-.2l-.1.1v-.9c0 .1.1.2.3.3zm0 1.1v.6c-.2-.2-.1-.4 0-.6zm0 .6v1.3c-.2.4-.2.6-.2.9-.1.7 0 .9.1 1.3.1 1.5.1 2.9-.2 4.3v-7.7s.1 0 .3-.1c-.1 0 0 0 0 0zm0 14.6v.7c-.1 0-.2 0-.3.1v-1.6c0 .2.2.3.3.8zm0 1.2v.9-.1l-.1-.4h-.1v.2-.4l.2-.2zm0 2.7v.7l-.1-.3-.2-.4v-.7l.3.7zm0 1-.1-.1-.3-.3v.4l.1.1.3.3v-.4zm0 .5v1.6l-.3.2v-.3l.2-.1v-.2h-.2v-.3h.1V56h-.1v-.3h.1v-.1l-.1-.1h-.1v-.3h.2l-.2-.1v-.4l.4.6zm0 1.8-.3.4v.3c.1-.1.2-.3.3-.4v-.3zm0 .9v.5l-.3.6v-.5c.1-.3.2-.5.3-.6zm0 2v1.1l-.3-.1v-.2c.1 0 .1.1.2.1 0-.3 0-.6.1-.9zm0 1.6v2.2h-.3v-2.2h.3zm-.4-13.2v-.2c.1.1.1.1 0 .2zm0-42.3-.1.1v1.6s.1.4 0 .6v.3h.1V6.1zm-.1 59h.1v-.6h-.1v.6zm.1-55.4v.7l-.1-.1v-.6h.1zm0 1v.8c-.1 0-.1-.1-.1-.1v-.8l.1.1zm0 1.1v.6l-.1.1v-.7c0 .1.1.1.1 0zm0 1v.5-.5zm0 .9v.5s-.1 0-.1-.1v-.7c0 .2.1.3.1.3zm0 .8v.4h-.1v-.4c0-.1.1 0 .1 0zm0 .6v.3h-.1v-.3h.1zm0 1v.8c0-.1-.1-.1-.1-.2v-.6h.1zm0 3v1.3c0-.1-.1 0-.1 0V19c0 .1.1.1.1.1zm0 1.5v2.9s-.1.1-.1.2v-.8s.1 0 .1-.1h-.1V21c0-.2.1-.3.1-.4zm0 4.1V26c-.1 0-.1.1-.1.1v-1.4h.1zm0 2.6v.8h-.1c.1.3 0 .6-.1.7v-1.4c.1 0 .2 0 .2-.1zm0 2.5v3.1c-.1.1 0 .3 0 .4v.9c0 .1-.1.1-.1.2v-4.5l.1-.1zm0 5.5V43c0 .2-.1.4-.1.7v-7.2c0-.2.1-.4.1-.5h-.1v-.7h.1zm0 12.9v.2c-.1.3-.1.5 0 .7v1.6h-.1v-3c.1.1.1.3.1.5zm0 3v.4-.5.1zm0 2v.7l-.1-.3v-.7l.1.3zm0 1.2v.4l-.1-.1v-.5l.1.2zm0 .7v.4l-.1-.1V55l.1.1zm.1.4v.3h-.1v-.3h.1zm0 .5v.3h-.1V56h.1zm0 .4v.3h-.1v-.3h.1zm0 .5v.3l-.1.1V57c0-.1 0-.1.1-.1zm0 .6v.3l-.2.2v-.3l.2-.2zm0 1v.5c0 .1-.1.1-.1.2v-.5s0-.1.1-.2zm0 2.3v.2h-.1v-.3c0 .1 0 .1.1.1zm0 .8v2.2h-.1v-2.2c0-.1 0 0 .1 0zm-.2-35v-.3.3zm0-20.4s-.1 0 0 0h-.3v.7c.2.2.2.3.3.5V6.2zm-.2 58.9h.3v-.6H19.9v.6zm.2-56.7v.3c-.1 0-.2.1-.3.1v-.4c0 .1.1.1.1.1.1 0 .1 0 .2-.1zm0 1.2v.6c-.1 0-.1-.1-.2-.1h-.1v-.5h.3zm0 .9v.8c-.1-.1-.1-.2-.2-.3l-.1-.1v-.5s.1 0 .1.1c.1-.1.1 0 .2 0zm0 1.4v.7c-.1 0-.1.1-.1.2v.3c0 .1 0 .3.1.4v.7c-.1-.1-.2-.2-.3-.2v-2c.1 0 .2 0 .3-.1zm0 2.5v.4c-.1 0-.2 0-.3-.1v-.4c.1.1.2.1.3.1zm0 .7v.3H19.8V15H20.1v.1zm0 1v.5h-.2c.1.3 0 .6 0 .8v-1.3c0 .1.1.1.2 0zm0 3v1.4c0 .1-.1.2-.1.2 0 .1-.1.1-.1.1v-2c0 .1 0 .2.2.3zm0 1.8v1.8h-.3v-1.4s0-.1.1-.2c.1 0 .1-.1.2-.2zm0 1.8v.8c-.1.1-.2.3-.3.4V23l.3-.3zm0 2.1v1.4s-.1.1 0 .1v.4c0 .1-.1.3-.3.4v-1.3c.1 0 .2 0 .2-.1-.1-.3-.2-.6.1-.9-.1 0 0 0 0 0zm0 2.6v1.4c-.1.1-.1.2-.2.3v-.5l.1-.1c0-.1-.1-.1-.1-.1v-.7c0-.1.1-.2.2-.3zm0 2.5v4.5c-.1.2-.1.5-.1.7 0 .1 0 .1.1.2v.7c-.1 0-.2-.1-.3-.2v-5h.1c0-.3 0-.5.2-.9-.1.1 0 0 0 0zm0 6.6v7.2c-.1.2-.1.5-.2.7-.1.9.3 1.4.1 2-.2.8 0 1 .1 1.3v3c-.1 0-.2.1-.3.1v-9.9c.3-1.2.1-3 .3-4.4zm0 14.7v.5-.5zm0 1.7v.7l-.1-.1-.2-.4v-.8l.3.6zm0 1.4v.5l-.1-.2-.2-.2v-.5l.1.1.2.3zm0 .7v.4H20l-.2-.2v-.4l.2.1.1.1zm0 .5v.3l-.2-.1v-.3h.1l.1.1zm0 .5v.3h-.3V56h.3zm0 .4v.3h-.3v-.3h.3zm0 .6v.3l-.3.1v-.3c.1 0 .2-.1.3-.1zm0 .6v.3l-.3.3v-.3l.3-.3zm0 1.2v.5c-.1.2-.2.3-.3.5v-.5c.1-.2.2-.4.3-.5zm0 1.9v.3H20l-.2-.1v-.3c.1 0 .2.1.3.1zm0 .8v.6-.1h-.2v-.7c0 .2.1.2.2.2zm0 .7v1.6h-.3V62.3l.1-.1h.2zm-.3-46.3v-.2c.1 0 .1 0 .1.1 0 0 0 .1-.1.1zm0-9.7c-.1 0-.2-.1-.4 0V7H19.7l.1-.8zm-.3 58.9h.4v-.6c-.1 0-.1-.1-.1-.1v-.1l-.1-.2h-.1l-.1 1zm.3-56.7v.4c-.1 0-.2.1-.4.1v-1c.2.1.3.4.4.5zm0 1.2v.5h-.4v-.4c.2 0 .3-.1.4-.1zm0 .8v.5c-.1-.1-.2-.1-.4-.1v-.5c.2 0 .3 0 .4.1zm0 1.6v.3h-.4V12h.4zm0 .4-.4.2v.6c.1.3.2.5.3.7l.1-1.5zm0 1.9v.4c-.1 0-.3-.1-.4-.2v-.6c.2.2.3.4.4.4zm0 .8v.4c-.1 0-.3 0-.4-.1V15c.2 0 .3.1.4.1zm0 .6v.2c-.1 0-.2.1-.4.1v-.3h.4zm0 .5v1.3c-.1.3-.2.6-.1 1 0 .1.1.2.1.3v2c-.1 0-.1 0-.1-.2s-.2-.1-.2 0v-4.3c.1 0 .2 0 .3-.1zm0 5.1v.4-.4zm0 .7v.7h-.4V22c.2.1.4.1.4 0zm0 1v.9c-.2.4-.3.8-.4 1.2v-1.7c.2-.1.3-.3.4-.4zm0 2.7V27c-.1.1-.2.1-.4.1v-1.9.1c.1.3.3.4.4.4zm0 1.9v.7c-.1-.2-.3-.3 0-.7 0 .1 0 .1 0 0zm0 .9v.5c-.2.1-.3.2-.4.4v-1c.2.2.3.2.4.1zm0 2.3v5c-.2-.2-.2-.4-.3-.3v-2.3c0-.1.1-.2.1-.2 0-.1 0-.2-.1-.2v-2.3c0 .1.1.1.1.1 0 .1.1.2.2.2zm0 10.1v9.9c-.1 0-.2.1-.4.1v-2.3c.1 0 .1-.2 0-.3v-5.7c.2-.4.3-1.1.4-1.7 0 .1 0 .1 0 0zm0 10.4v.3l.3.6v.8l-.2-.4-.2-.4v-.8l.1-.1zm0 2.6v.5l-.1-.1-.2-.3v-.5l.2.2.1.2zm0 .9v.4l-.1-.1-.2-.1v-.4l.2.1.1.1zm0 .6v.3l-.4-.1v-.3h.1l.3.1zm0 .6v.3h-.4V56h.4zm0 .5v.3c-.1 0-.2 0-.4.1v-.3l.4-.1zm0 .6v.3l-.4.2v-.3c.2-.1.3-.1.4-.2zm.1.8v.3c-.1.1-.2.3-.4.4v-.4l.1-.1.3-.2zm0 1.3v.5c-.2.3-.3.5-.4.6v-.5c.1-.1.2-.3.4-.6zm0 1.4v.3l-.4-.1v-.3c.1 0 .2.1.4.1zm0 .9v.7h-.5v-1c.2.2.3.2.5.3zm0 1.1v1.2h-.4v-1.1h.2l.2-.1zm-.5-56.5c-.1 0-.2 0-.2.1v1.5l.1.1h.1c-.1-.3-.1-.5-.1-.8 0 0 .1-.1.2-.1l-.1-.8zm-.1 59h.2v-1c-.1.1-.1.2-.1.3v.1l-.1.1v.5zM19.4 8v.3V8zm0 .7V9h-.2v-.5c.1.2.2.2.2.2zm0 1v.4c-.1 0-.2.1-.2.1v-.4l.1-.1h.1zm0 .6v.5c-.1 0-.2 0-.2.1v-.4c.1-.1.2-.1.2-.2zm0 1.7v.3h-.2V12h.2zm0 .6v.6c-.2 0-.2.2-.2.3 0 .2.1.4.2.5v.6l-.2-.2v-1.6l.2-.2zm0 2.4v.4c-.1 0-.2-.1-.2-.1v-.5c.1.1.2.1.2.2zm.1.7v.3h-.2v-.4c0 .1.1.1.2.1zm0 .6v4.3c-.1.2-.2 0-.2-.2v-2.1h.1c0-.3.2-.5.1-.8-.1 0-.2-.1-.2-.2v-1c0-.1.1 0 .2 0zm0 5.7v.7h-.2v-.8c0 .1.1.1.2.1zm0 1.4v3.7h-.1c-.1 0-.1.1-.2.2v-3.5c.1-.2.2-.3.3-.4zm0 5.1v1.2c-.1.2-.1.6 0 .8v2.3l-.2.2v-4.6c-.1 0 0 .1.2.1zm0 4.6v.3s-.1-.2 0-.3zm0 .4v2c-.1 0-.2.1-.2.1v-1.8c0-.1.1-.2.2-.3zm0 9v5.7c0-.1-.2-.1-.2-.1v-7.6.4c0 .5 0 1.3.1 1.8 0 0 0-.1.1-.2zm0 6.1v2.3c-.1 0-.2.1-.2.1v-2.5s.1.1.2.1zm0 2.9v.8l-.1-.4h-.1v-.2l.2-.2zm0 2v.5-.1l-.2-.2v-.5l.1.2.1.1zm0 1v.4l-.1-.1-.1-.1v-.5l.2.3zm0 .8v.3l-.2-.1v-.3l.2.1zm0 .7v.3h-.2V56h.2zm0 .6v.3c-.1 0-.2 0-.2.1v-.3l.2-.1zm0 .7v.3l-.2.1v-.3s.1-.1.2-.1zm0 1v.4c-.1.1-.2.2-.2.3v-.5l.1-.1.1-.1zm0 1.6V60.8h-.1l-.2-.1v-.3c.1-.1.2-.3.3-.5zm0 1.4V63.6h-.2V61c0 .3.1.3.2.3zm-.3-55.1c-.1.1-.3.2-.4.3-.1-.1-.3-.1-.4-.1v.7c.3.1.6.5.8.7V6.2zm-.7 58.9h.8v-.6c-.2 0-.4-.1-.5-.1v-.3h-.2l-.1 1zm.7-56.6V9c-.3.1-.5.2-.8.4v-1l.4.4c.1-.1-.2-.7-.4-.9v-.2c.2.1.3.2.5.4.1.1.2.3.3.4zm0 1.3v.4c-.3.1-.5.4-.8.6v-.3c.3-.2.5-.4.8-.7zm0 .7c-.3.2-.5.4-.8.6v.4c.1 0 .2-.1.3-.1.2-.2.3-.3.5-.4v-.5zm0 1.5v.4H19l-.6-.3v-.4c.3 0 .5.2.8.3zm0 .7v1.6c-.1-.2-.3-.3-.4-.5-.1.1-.1.1-.1.2 0 .3.2.6.5.8v.5c-.1-.1-.3-.1-.5-.3-.1.2.2.4.5.6v.4h-.1c-.3-.2-.5-.5-.6-.8v-1.4l.3-.3c0-.3.2-.6.4-.8zm0 3.5c-.1 0-.2-.1-.2-.1-.2-.2-.4-.4-.6-.7V17c.1.1.3.1.4.2.2-.1.3 0 .4.1v-1.1zm0 2v2.1c0-.2-.1-.3-.2-.3 0 .1-.2.3-.3.1-.1-.1.1-.3-.2-.3h-.1v-.2c.1 0 .1-.1.2-.2s0-.3 0-.4h-.1l-.2.2v-1.8h.1c.5 0 .3.6.6.8h.2zm0 3.7v.8H19c-.2.2-.2.5-.4.8-.1 0-.1.1-.2.1v-2.7c.1.1.2.1.2.2.3.1.3.5.6.8zm0 1.8v3.5c-.1.2-.1.6 0 1v3c-.2.2-.3.2-.6.3 0 .2 0 .4-.2.5v-2c.1-.1.3-.1.4-.1.4-.3-.1-.7-.1-1.2h-.2v.2-1.7c.3-.1.5-.3.5-.7-.2-.3-.1-1.1-.3-.9 0 .1-.1.2-.1.3v-1.2c.1 0 .2.1.3.1-.1-.3-.1-.6.1-.8 0 .1.1-.1.2-.3zm0 7.6c-.1.3-.1.6-.1.9-.1 0-.4.2-.7.4v.7c.2 0 .5-.2.8-.4v-1.6zm0 2.5v1c-.1 0-.1 0-.2.1-.5 0-.5-.4-.2-.7l.4-.4zm0 1c-.4.4-.5 0-.8 0V36c.2.4.3.7.3 1 .3-.2 0-1.2.4-1.4l.1-.8zm0 5.8v7.6h-.1c-.1 0-.2.3-.3.2 0-.3.1-.5.3-.8-.2-.1-.3.1-.4.1-.1 0-.2 0-.1-.3.1-.2.2-.5.1-.6-.2-.1-.2-.4-.3-.5v-1.4l.3 1.2c.2-.1.2-.6.2-.7.1-.6-.2-1.3-.3-2 .2 0 .2.5.3.4.2-.7-.5-1.7-.6-3v-1.6c0-.5.1-1 .3-1.6.3 1.1.6 2 .6 3zm0 7.9V51c-.3.1-.5.3-.8.4v-1.6h.1c.2-.3.2-.6.2-1 .2-.1.4-.2.5-.3zm0 3.1v.5h-.6l-.1.1v.1l.3.3.3.3.2.2v.5l-.1-.1-.3-.3-.3-.2-.1-.2v-.7l.5-.3.2-.2zm0 2.7v.5l-.2-.1-.3-.3-.3-.2v-.4l.2.1.2.1.4.3zm0 .9v.3l-.2-.1-.4-.1-.2-.1v-.3l.3.1.5.2zm0 .7v.3h-.8v-.3h.8zm0 .7v.3c-.2.1-.5.1-.7.2v-.3h.2l.4-.1.1-.1zm.1.8v.3l-.8.4v-.2l.4-.2c.1-.1.2-.2.4-.3zm0 1.1v.5c-.3.4-.6.7-.8.8v-.4l.1-.1.1-.2.2-.2.1-.2.3-.2zm0 1.8v.3l-.3-.2-.4-.3v-.3c.1.1.5.5.7.5zm0 .9v2.6h-.8v-1.5c.1 0 .3-.2.3-.2h-.3v-1.2c.2 0 .5.2.8.3zm-.8-11.5c.1-.2.1-.6 0-.8v.8zm0-15.8s0-.1 0 0c.6-.5.2-.5 0-.4v.4zm-.1-27.5c-.3 0-.6.1-.9.2h-.2v.8c.2 0 .3 0 .4.1.3 0 .2-.4.3-.4.1-.1.3-.1.4 0v-.7zm-1.1 58.7h1.2V64h-.1s-.1 0-.1.1-.1.2 0 .2c0 0 0 .1-.1.2-.1 0-.2 0-.3-.1 0 0-.2-.1 0 0l-.2-.1s0-.2 0 0c0 0 0-.2-.1-.2V63.8l-.3 1.3zm1.1-57.4v.2c-.1-.1-.1-.1-.2-.1 0-.1 0-.2.1-.2l.1.1zm0 .8v1c-.1 0-.1.1-.2.1-.5.3-.6.5-.7.8.2.7-.1 1-.3 1.3v-1.5l.3-.3c.4-.3.5-.4.6-.9v-.3c0-.2-.2-.4-.4-.5-.1 0-.1-.2 0-.2.2 0 .4.1.5.2.1.1.1.2.2.3zm0 2.1-.4.4c.1.1.1.1.3-.1 0 0 .1 0 .1-.1v-.2zm0 .5c-.1.1-.3.2-.4.3.1.2.2.2.4.1v-.4zm0 .5c-.1 0-.2-.1-.4-.1-.3 0-.3 0-.2.1.2 0 .4.1.6.3v-.3zm0 2.1v1c-.2-.2-.2-.7 0-1zm0 1.7V17c-.1 0-.2-.1-.2-.1-.2-.4-.1-.4-.1-.8v-.6c-.1-.1-.4-.2-.3-.4 0-.1.2-.1.3-.1.1.1.2.3.3.4zm0 1.9c-.4 0-.6.1-.7-.6-.1-.5.1-.6.1-.9 0-.4-.3-.4-.4-.8 0-.3.7-.3.7-1-.1-.6-.5-.8-.9-1.2v2.9c.1.1.2.2.1.5.1.5-.2.5-.1 1V17.8c.1.4.3.9.4 1.3h.1c.1 0 .1-.4.2-.5.3-.2.2.3.2.4 0 .4.1.3.3.1v-1.8zm0 2.3v.2c-.2.1-.3.5-.2.7 0 .1.1.1.2.2v2.7c-.4.3-.5 1 0 1.3v1.2c-.3.5-.8.7-.9 1.3 0 .5-.1 1 .4 1.2.5 0 .2-.2 0-.2-.2-.3-.1-.6.1-.8.1 0 .2-.1.3-.1V29c-.1.5-.6.5-.8 1.1-.1.2-.2.4 0 .6.2.3.2-.2.2-.2.1-.2.3-.3.6-.4v2c-.1.3-.2.4-.5.5-.1.3-.1.9.4.9h.1v.4c-.1.2-.3.5 0 .9V36c-.2-.6-.5-.4-.9-1.1h-.2v-10h.1c0-.1-.1-.2-.1-.3v-1.4c.1-.1.2-.2.3-.4.1-.2 0-.5-.1-.9-.1.1-.2.1-.2.2v-1.6c.1.1.3.2.5.3v-.2c0-.3.1-.8.5-.9.1 0 .2 0 .2-.1zm0 13.1c-.2.2-.3.4-.2.6 0 0 .1.1.2.1v-.7zm.1 6.5v1.6-.8c-.1-.3-.1-.5 0-.8zm0 5.8v1.4h-.1c-.2.3-.2.7-.2 1.1-.1.1-.2.1-.4-.1-.1 0-.3.1-.5.1v-.3c.3-.3.4-.8.4-1.6 0-.2-.1-.5 0-.6.1 0 .2 1.1.4 1.6.1-.2.2-.5.2-1 0-.2 0-.5.2-.6zm0 3.9v.8c0 .1-.1.1-.1.1s0 .1.1.1v1.6c-.4.3-.8.7-1.2 1.1v-3.5c.2-.1.5 0 .5.2.1.2 0 .4-.1.6 0 .1.1.2.2 0 .1-.3.1-.7-.1-1l-.3-.1c-.2-.2.5-.3.5-.9h.2c.1.3 0 .6.1.8.1 0 .1.1.2.2zm0 3.2-.5.5-.4.5-.3.5v.8h.2v-.5l.1-.1h.1v-.2h.4v-.5h.2l.1.2.1-1.2zm0 1.7v.4h-.1l-.3-.3-.3-.3h.2l.2.1.3.1zm0 1.2v.3l-.2-.1-.4-.1-.4-.2h-.1v-.3l.2.1.4.1.4.1.1.1zm0 .9v.3h-1.2V56h.8l.4-.1zm0 .9v.3l-1.2.3v-.3h.1l.4-.1.4-.1.3-.1zm0 1.1v.2l-.9.5v.2h.1l.1.1h.1l.2.5.1-.1.1-.1v.7l-.3-.2-.4-.5-.3-.5v-.9s.1 0 .1.1v.4l.1.2 1-.6zm0 2.9c-.4-.3-.8-.6-1.2-1.1v4h1.2v-1.5c-.1.2-.1.4-.1.6h-.3l-.1-.1c0-.1-.1-.2 0-.4.2-.2.2-.2.5-.3v-1.2zM17.3 9.1c.2 0 .5 0 .5-.2.1-.2 0-.3 0-.4-.1-.1-.1-.2-.2-.2-.1-.1-.2-.1-.3 0v.3c.1.1.1.2.1.4 0 0-.1 0-.1.1zm0-2.5h-.9v1.1c.2-.3.5-.3.9-.3v-.8zm-.9 58.5h.9v-1.3h-.2v.6h-.5c0-.1-.1-.1-.1-.2V64l-.1 1.1zm.9-56.9v.3c0-.1-.3-.1-.3 0 0-.3 0-.3.3-.3zm0 .7v.2h-.2s0-.1.1-.1l.1-.1zm0 1.2v1.5c-.2.2-.4.5-.2 1.1l.2.2v2.9l-.1-.1c.1.4 0 .7-.1 1.1-.1 0-.1-.1-.1-.2 0-.3-.2-.7-.1-1.1l.1-.2c-.2.2-.2.5-.4.6 0 0-.1 0-.1.1v-.6l.3-.3c0-.1.2-.5.2-.4 0 0 .1.4.2 0 .1-.5-.3-.9-.4-1.3-.3-.7 0-1.3.3-1.8.1-.2.1-.3 0-.6s0-.6.2-.9zm0 7.3v.4c-.2 0-.4.8-.5.9h-.1l-.2-.3v-.6c.1.1.2.2.2.3.2-.2.5-.3.6-.7zm0 3.1v1.6c-.1.1-.3.2-.4.3-.2.1-.4.2-.5.3v-3.6c.2.2.5.2.5.6 0 .5.2.7.4.8zm0 2.8v1.4c-.1-.2-.1-.4-.1-.6-.3.2-.5.4-.7.7v-.9l.1.1c-.1-.2.1-.4.3-.5 0-.1.2-.2.4-.2zm0 1.6v10h-.9v-1c.1.1.2.2.4.2.1 0 .2 0 .3-.1-.3 0-.5-.1-.4-.4.1-.6.4-.8.5-1v-.2c-.2.2-.4.5-.6.5 0 0-.1.1-.1.2v-.8c.1-.2.3-.4.5-.5v-.9c-.1.1-.4.1-.6-.1v-.4c.1-.2.2-.4.4-.6V29c-.1 0-.3.3-.4.6V28c.1-.1.2-.2.3-.2.1-.1.2-.3.2-.5v-.7c-.2.1-.4.3-.6.4v-1.3c.3-.4.6-.5 1-.8-.1.1-.1.1 0 0zm0 22.3v.3c-.2.3-.1.9-.3 1.1.1.2-.2.5-.1 1.1.1.3.1.4.4.3 0-.2-.2-.4-.1-.6 0-.1.1-.2.2-.2v3.5c-.4.4-.7.9-.9 1.5V49.8c.1-.4.3-.5.3-.9.1-.4 0-.9.5-1.4-.1-.2-.1-.3 0-.3zm0 6.4-.3.7-.2.7-.1.7v.7l.1.7.2.7.3.7.1.1v-.9c-.1-.1-.2-.2-.2-.3.1 0 .2 0 .2-.1V57l-.4.3v-.5h-.1l-.1-.1V56.4h.4V56h-.3l-.1-.1v-1l.2.1v-.3h-.1v-.1l.4-1zm0 6.1v4h-.9v-5.5c.2.6.5 1.1.9 1.5zm-.9-12.2c.1 0 .2 0 .3-.2.5-.7.5-1.2.5-2-.2-.1-.2 1.3-.8 1.7v.5zm0-1.1v-6.3c.1.4.1.7.2 1-.1 1.8 0 3.5-.1 5.3 0 .1-.1.1-.1 0zm0-15c0-.1.1-.1.1-.2.1-.1.2-.2.1-.3h-.2v.5zm0-17.3c.1 0 .1-.1.1-.1.2-.2 0-.5-.1-.7v.8zm0-3.5c.1.2.1.3.1.5 0 .3-.1.5.2 0 .1-.2.1-.2.2-.5.1-.6-.4-.8-.3-1.3 0-.2.2-.3.3-.5 0-.2.1-.2-.1-.2-.1 0-.2.2-.3.2l-.1 1.8zm0-4c-.1 0-.1 0-.2.1v3.5s.1 0 .1.1.1.2.1.2V8.7c-.1.1-.1 0-.1-.3v-.5c0-.1.1-.2.1-.2V6.6zm-.2 58.5h.2V63.8h.1v-5.5c-.1-.2-.1-.4-.2-.6v3c.1.2.2.4.1.8h-.1l-.1 3.6zm.2-51.8v.9c-.1.1-.2.1-.2 0v-1.1l.2.2zm0 2.1v.6c-.1 0-.1.1-.2.1v-.5c0-.2.1-.2.2-.2zm0 2.5v.6l-.2-.2v-.7c0 .1.1.2.2.3zm0 1.2v3.6c0 .1-.1.1-.1.2-.1.2-.1.6.1.8v.9l-.2.2v-6c0 .2.1.2.2.3-.1 0 0 0 0 0zm0 6.5v1.3l-.2.2v-.8s.1 0 .1.1c-.1-.2-.1-.5 0-.6 0-.1.1-.2.1-.2zm0 2.3v1.6c-.1.1-.1.3-.2.4v-1.1h.1v-.5c0-.2 0-.3.1-.4zm0 2.4v.4c-.1-.2 0-.3 0-.4zm0 .6v.5c-.1.1-.2.2-.2.5v-1.1l.1.1h.1zm0 1.3v.8c-.1.2-.1.4-.1.7 0 .1.1.1.1.2v1h-.2v-2.6c0 .1 0 .2.1.3 0-.2 0-.3.1-.4zm0 8v6.3c0-.1-.1-.2-.1-.3 0 0 0 .1-.1.1V39c.1.4.1.8.2 1.2zm0 6.8v.4h-.2V47h.2zm0 2.6v.2-.2zm0 .3V54c-.1.2-.1.4-.2.6v-1.8h.1c.2-.1.2-.6 0-.8v-2.1h.1zm-.2-.5v-1.2h.2l-.2 1.2c0 .1 0 .1 0 0zm0-42.7c-.4.1-.6.4-.7.8v1c.1.5.2.9.2 1.3-.1.1-.1.2-.2.2v1.3c.1-.3.2-.6.4-.8.1-.1.2-.3.2-.2l.1-3.6zm-.6 58.4h.7v-3.7h-.7v3.7zm.6-52.1v1l-.2-.2c-.1-.1-.1-.2-.1-.4h.1c0-.1-.3-.5-.4-.5h-.1v-.8c.1.3.3.6.7.9-.1 0-.1 0 0 0zm0 2.5v.5h-.1c-.2.1-.5 0-.6.1v-.7h.2c.2.2.3.1.5.1zm0 2.1v.7l-.3-.4c-.1.4.1.8.3 1.1v6c-.1 0-.1 0-.2.1-.2.4-.4 1 .1 1.2v.8l-.3.3c-.2.4-.1 1 .3 1.2v1.1c0 .1-.1.2-.1.2-.1.2-.1.6.1.8v4.1c-.1.3-.1 1.6-.1 1.9 0 .8.1 1.6.2 2.3v7.3c-.1.2-.3.7-.3.8.1.2.2 0 .3 0v.4c-.1 0-.2.1-.3.2 0 .1-.1.5 0 .6.1.1.2 0 .4 0v1.2c-.1-.1-.1-.8-.5-.8-.1 0-.1-.1-.2-.1v-1c.1-.1.2-.2.2-.4h-.2v-.5s.1-.1.2-.1c.7-.7.3-1.9.1-2.7-.1-.5-.1-.9-.1-1.3 0-.3.1-.6.2-.8l-.2-.5c-.2.5-.1 1.1-.2 1.7V37.6c0-.3 0-.6.1-.9 0-.5.1-1.7-.1-2.1v-1c0-.3.1-.7.2-1-.1-.1-.2-.1-.2-.1v-1c.4-.4.3-.5 0-.7v-6.7l.2-.2-.2-.5v-7c0 .2.1.5.2.6h.2c0 .3.1.4.2.6zm0 32.3h-.4l.1-.8c-.1-.2-.3-.3-.4-.2v2.9h.4l-.1.1c-.1.1 0 0 0 .2v.3c-.1 0-.2.1-.2.1v.3c.3-.2.6-.4.6-.9h.1l-.1-2zm0 3v1.8c-.1.5-.2 1-.2 1.5s.1 1 .2 1.5v3c-.1-.2-.3-.4-.5-.7 0 .1-.1.2-.2.2v-4c.1-.1.1-.2.1-.2h-.1v-.2c.1-.1.1-.2.2-.3.1-.2-.1-.1-.2-.1v-.2l.1-.1c.2-.1.1-.1.2-.4h-.2c-.1-.3.4-.5.4-.7-.1-.1-.2 0-.4 0 0-.2 0-.2.3-.2.2-.1.2-.1.2-.3 0-.1.1-.2-.1-.2-.1 0-.2-.1-.3-.1 0-.1.3-.2.5-.3zm-.6 8.2c0-.1.1-.1.2-.2.1 0 .1-.2 0-.2 0-.1-.1-.2-.2-.3v.7zm-.1-46.2v-.8l.1.1c0 .2.2.7-.1.7zm0-7.4c-.1.2-.1.5-.1.8 0 .1 0 .2.1.2v-1zm0 2.5c-.1.1-.2.2-.2.3V23.6c.1-.1.2-.1.2-.2v-8c-.2-.1-.2-.2-.2-.4.1 0 .1-.1.1-.1v-.8c-.1-.2-.2-.3-.2-.5-.1-.2 0-.5.1-.7l.1-.1V12c-.1-.2-.1-.5 0-.8l.1-1.2zm-.2 55.1h.2V62c-.1.3 0 .6-.2.8v2.3zm.2-40.9v6.7l-.2.2v-6.8c.1.1.1 0 .2-.1zm0 7.5v.9c-.1 0-.2.3-.2.5v-1c.1-.1.2-.2.2-.4zm0 2v1s0-.1-.1-.1c-.1.1-.1.2-.2.3v-1.7c.1.3.2.5.3.5zm0 4v1.2-1.2zm0 1.2c-.1-.3-.2-.5-.2-.9v5.9c.1-.3.2-.6.2-.9v-4.1zm0 7.9v.5h-.2v-.5h.2zm0 .8v1c-.1 0-.2 0-.2.1v-.5s0-.1.1-.1c-.1-.2 0-.3.1-.5zm0 1.3v2.9h-.2V50h.2c0-.1-.1-.3-.2-.5v-.3s0-.1.1-.1c0-.1.1-.1.1-.2zm0 3.7v.3c-.1.1-.2.1-.2.2v-.4.1h.1s.1-.1.1-.2zm.1 2.5v.2h-.1c0-.1 0-.2.1-.2zm0 .5v.2c-.1 0-.2.1 0-.2-.1.1-.1.1 0 0zm0 .4v3.3l-.1-.1h-.1v-3l.2-.2zm0 3.5v.5c-.1 0-.1-.1-.1-.4l.1-.1zm0 1v.6c-.1.1-.1.2-.1.3h.1v.6c-.1 0-.2.1-.2.1v-2c-.1.1.1.2.2.4zm-.3-50.2v9-9zm0 54.8v-2.3 2.3zm0-45.7v1.1-1.1zm0 1.3v3-3zm0 3.7v3.9-3.9zm0 4.3v2.5-2.5zm0 3.4V35v-2.9zm0 6v2.2-2.2zm0 2.2V44v-3.7zm0 7v-.5.5zm0 .9v.5-.5zm0 1v.3V49.2zm0 2.6V50v1.8zm0 .9v.4-.4zm0 3.6v3-3zm0 3.8v.5-.5zm0 .8v1.2-1.2zm0-50.6-.3.6v1.7c0 .1.1.2.1.3H15l-.1.1v1.5c0 .1 0 .1.1.1 0 .2 0 .3-.1.3v1.2c.1.1.1.2 0 .4v3.2s.1 0 .1-.1c.1-.2 0-.5 0-.6.1.1.2.2.2.3l.1-9zM15 65.1h.3v-2.3s-.1 0-.1.1c-.1 0-.2-.1-.2-.1v2.3zm.3-45.6v1.1c-.1-.4-.2-.8 0-1.1zm0 1.2v3c-.1.1-.2.2-.2.3 0 .1-.1.1-.1.2v-2.9c0-.3.1-.4.3-.6zm0 3.7v3.9l-.3.3v-2.1c.1-.1.2-.3.3-.3v-.8l-.3.3v-.9c0-.1.1-.2.3-.4zm0 4.6v2.2c-.1.3-.1.6-.2.6 0 .2.1.3.2.4v-.1 2.8c-.1.1-.1.3-.2.5-.1.8 0 1.7.2 2.5v2.2c-.1-.4-.2-.8-.3-1.3v-9.5c.1-.1.2-.1.3-.1V29zm0 11.3V44c0 .5-.1 1.3-.3 1.9v-3.7c0-.1 0-.1.1-.1 0-.5.1-1.2.2-1.8zm0 6.5v.5c-.2 0-.3.1-.3.4v-.9h.3zm0 1.4v.5c-.3.4-.3.9-.3 1.3h.3v1.8H15v-3.2c.1-.2.1-.2.3-.4zm0 1.1v.2-.2zm0 3.4v.4c-.1.1-.2.2-.2.3 0 .1-.1.2-.1.2v-.4l.3-.3c0-.1-.1-.1-.1-.2-.1-.1-.1 0 .1 0 0-.1 0-.1 0 0zm0 3.6v2.9c-.1 0-.2 0-.3-.1v-2.7s.1 0 .1-.1c.1.1.1 0 .2 0zm0 3.8v.4c-.1-.2-.2-.3-.3-.5v-.3c.1.1.2.2.3.4zm0 .8V62c-.1.1-.2.1-.3.2v-.9l.1-.1c0 .1.1-.1.2-.3zM14.9 11c0 .1-.1.3-.1.5l-.1.1c0-.1-.1-.1-.2-.2v.5c.2.2.4.5.5.8l-.1-1.7zm-.5 54.1h.6v-2.4c-.1-.1-.1-.2-.2-.3 0-.1.1-.2.2-.2v-.9c-.2.1-.4.1-.5.1l-.1 3.7zm.5-52.1v1.5c-.1-.2-.1-.7 0-1 0-.1-.2-.3-.5-.5v-.5c.1 0 .1.1.2.1.1.1.2.2.3.4zm0 1.9v1.2c0-.1-.1-.1-.1-.2 0-.8.1-.9.1-1zm0 1.6s0 .1 0 0c-.1.3-.1.4-.1.5-.1-.4-.3-.8-.4-1.1v3c.1.1.2.3.3.4 0 0 .1.3.2.4v-3.2zm0 4.7v2.9c-.2.3-.1.5-.1.8 0 0 0 .2.1.2 0-.1 0-.2.1-.3v.9c-.2.3-.3.8-.3 1.1 0 .2 0 .3.2.1 0-.1.1-.3.1-.4v2.1c-.1.1-.2.3-.3.5-.1.3-.2 1-.1 1 .1-.2.2-.5.3-.6 0-.1.1-.1.1-.1v9.5c-.1-.5-.2-1-.3-1.6-.3-.8-.1-1.9 0-2.8l-.3-.3V22.4l.1-.1c0-.1.2-.3.3-.3 0-.3 0-.4.1-.7v-.1zm0 21v3.7c-.1.2-.1.4-.3.5-.1.2-.1.7-.3 1.2v-4.2c.3-.5.5-.8.6-1.2zm.1 4.6c-.4.2-.4.9-.5 1.4v.4c.3-.1.5-.4.5-.7 0-.1 0-.2.1-.3l-.1-.8zm0 1.8v3.2h-.5v-2.9c.2.1.3.3.2.6-.1.2-.1.4-.1.5h.2c0-.5-.1-1 .1-1.3 0 0 0-.1.1-.1zm0 4.7v.4c-.2.4-.3.4-.2.8 0 .5.2.7.2 1.1-.1.1-.1.3-.2.4-.1.1-.2.1-.3.2v-.3h.1c.1-.3 0-.3 0-.5v-.8c0-.2 0-.3.1-.5l.2-.2c-.1 0-.1-.1-.2-.1h-.2v-.1h.1c0-.1.1-.1.2-.1h.1v.1c-.1-.3 0-.4.1-.4zm0 3.2v2.7c-.2-.1-.4-.3-.5-.5v-2.1c.1 0 .2 0 .5-.1zm0 3.2v.3c-.2-.2-.3-.3-.5-.4v-.3c.1.1.3.3.5.4zm-.6 1.6c.2-.1.3-.3.4-.6 0-.3-.1-.6-.4-.8v1.4zm0-40.1c0 .1.1.2.1.2.1.1.1 0 .1 0 .2-.5 0-.8-.1-1.2l-.1-.1v1.1zm0-9.8c-.2-.1-.5-.2-.8-.3v1.5c.2.1.5.2.7.4v-.5c-.3-.2-.4-.4-.7-.9.3.1.5.2.7.3v-.5h.1zm-.7 53.7h.8v-3.7h-.1c-.1.4-.6.2-.4.6 0 .1.2.3.2.4-.1 0-.4 0-.5-.1v2.8zm.7-49.2v3c-.1-.1-.1-.2-.1-.4-.1.1-.1.2-.2.4-.3.2.1.6.1.8 0 .2 0 .4.2.6v1c-.1-.2-.3-.4-.3-.5 0 0-.2 0-.3.2.1.4.3.9.3 1.3 0 .3 0 .5-.1.8h-.1c0-.4-.2-.6-.3-1 0-.1.1-.2.1-.4-.1-.1-.1 0-.1.1v-1.7c.2-.1.3-.3.3-.5 0-.1 0-.5-.2-.5h-.1v-.8c.2-.2.4-.5.2-.8h-.2v-.6c.1-.1.2-.2.3-.2.1-.2.2-.4 0-.9-.1-.1-.2-.2-.3-.2v-.3c.4 0 .6.3.8.6zm0 6.5c-.2.3-.2.7-.1 1 0 .2-.2.4-.2.4-.3.4-.5.8-.3 1.3l-.1.1v8.3c.1-.2.2-.5.2-.9l.3.3c-.1.5 0 .9.2 1.2V22.4zm0 21v4.2c-.1.4-.4.7-.8.5v-3.6c.1-.2.1-.3.2-.5.1.3-.1.5 0 .8 0 .1.1.1.2.1.1-.6.2-1.1.4-1.5zm0 4.9v.4h-.1c-.2 0-.4 0-.5.3-.1.3 0 .6.1.9v-.7c.1-.2.2-.4.5-.4v2.9h-.7v-3c.1-.2.4-.4.7-.4zm0 5.1v.1l-.1.1c-.1 0-.1-.1-.1-.2 0 0 .1-.1.2 0zm0 2.4v.3c-.2.1-.5 0-.8-.1v-.4l.8.2zm0 .8v2.1l-.1-.1c-.2-.2-.2-.4-.2-.6-.1 0-.1.1-.2.1-.1-.3-.1-.6 0-.7 0-.1-.2-.2-.2-.4 0-.1-.1-.1-.1-.2v-.1c.1-.1.3 0 .3-.1s.1-.2.2-.2c.2.1.2.2.3.2zm0 2.7v.3c-.3-.2-.6-.3-.8-.4V59c.1 0 .2.1.3.1.3.1.4.2.5.2zm0 .6v1.4l-.1.1c-.1.4-.4.1-.2 0 .1 0 0-.3 0-.3.1-.2.2 0 .3-.3v-.3c-.3.2-.4-.1-.1-.2 0-.1-.1-.2-.1-.2-.1 0-.2 0-.2-.1l-.1-.1c0 .1 0 .1-.1.2v-.5c.2.1.3.2.5.3 0-.1.1-.1.1 0zm-.7-16.8v-1.6l.1-.4.1-.9.2-.9.1-.9.1-.9.1 3.2-.1.4-.1.5-.1.5-.1.5-.3.5zm-.1-28.3v-.7s.1 0 .1.1c.2.2.2.4.2.7-.1-.1-.2-.1-.3-.1zm0-3.7c-.2-.1-.5-.1-.8-.2v.7c.2.1.4.3.6.4v.1h-.6v.3c.3 0 .6.1.8.2v-1.5zm-.7 54h.8v-2.8s-.3-.1-.3-.4c0-.1.2-.3.1-.3s-.4.2-.4.3c0 .1.2.4.2.5-.1.1-.2.1-.3-.1l-.1 2.8zm.7-51v.7c-.3 0-.5 0-.8-.1V14c.3 0 .6 0 .8.1zm0 1.2v.3c-.1-.1-.1-.2 0-.3zm0 1.6v.6c-.2 0-.4 0-.5-.3-.1-.3.1-.5-.2-.5v-.8c.1 0 .2.1.3.1.3.1.3.2.4.4 0 .1 0 .3-.1.4 0 0-.1.1 0 .1 0 .1.1.1.1 0zm0 1.4v.8c-.2 0-.7-.2-.8-.5v-.9c.4.2.4.6.3.7 0 0-.1 0-.1.1.1.2.5-.1.6-.2 0 .1 0 .1 0 0zm0 1.8v1.7c0 .1-.1.2-.1.4-.1.1-.2.2-.3.2.2.1.2 0 .2.2.1.4-.1.6.1 1v.7h-.2l-.2-.2c-.1-.1.1-.5-.1-.4 0 .1-.2.1-.2.2l.4 1.8s-.4.3-.4 0V21.8c.4-.1.6-.4.7-.7 0-.2 0-.5-.2-.6-.2-.1-.3-.2 0-.2.1 0 .2-.1.3-.2zm0 5.1c-.2.2-.3.4-.3.5 0 .2-.1.5.1.7.1.4-.5.1-.2 1.5.1.1.1.2.2.3 0 0-.1.1-.2.1l-.2-.4v-.5h-.1v2.2c.1-.1.2-.3.2-.6.1-.1.2.5.3.5 0 .1-.2.2-.3.6 0 .4 0 .3.2.7.2.2.1.4.2.7.2.5-.5.1-.3-.1.2-.3-.1-.5-.1-.7v-.6c0-.2-.1-.5-.2-.3v2c0-.1.2.1.2.1 0 .1.1.2.1.3.1.3 0 .6-.2.7 0 0-.1.1-.2.1v.8c.3-.1.6-.4.8-.7v-7.9zm.1 16.3V43.2l-.2.5-.2.4-.3.5.2-.9.2-.9.2-.9.1-.4zm0 2.9c-.3.7-.3 1.6-.5 2.4-.2.1-.2.2-.3.3v4.7h.8v-3c-.2.2-.3.5-.3.8-.1-.4 0-.8 0-1.2-.1-.2-.2-.5.2-.4h.1v-3.6zm0 11.2v.4h-.1c-.2-.1-.4-.1-.6-.2v-.4.2h.7zm0 3.4v.2h-.4c.1.1.2.1.3.2v.5c-.1.1-.2 0-.2-.2-.1-.1-.3-.2-.6-.2v-.6h.1c.2 0 .5 0 .8.1zm-.8 2.7v-.2.2zm0-28.8v-.1.1c0-.1 0 0 0 0zm0-5.6v-.8c.1.1.1.2.2.4-.1.2-.1.3-.2.4zm0-5.7c.1-.2.1-.3 0-.4v.4zm0-1.5h.2v-.5l-.2-.1v.6zm0-9.2c-.3-.1-.5-.1-.8-.1 0-.2-.1-.3-.2-.4v3.4c.1-.1.2-.3.3-.5.1-.2.2-.5.2-.8 0-.1.3-.1.5 0v-.3h-.6c-.1-.2-.1-.6.1-.7.2 0 .3.1.5.2v-.8zm-1 54.3h1v-2.9c-.1-.1-.2-.3-.3-.3-.2-.3.2-.1.3-.3v-.2c0-.1-.1-.1-.1-.1-.2-.1-.5-.1-.2.1 0 .1-.1.2-.2.2-.1.1-.2.2-.1.3.1.1.1.1.1.2-.2.1-.4 0-.5-.2v3.2zm1-51.2v.7c-.1 0-.2-.1-.3-.2-.2-.1-.7-.9-.4-1 .1.3.2.5.7.5zm0 1.9c-.7-.3-.6-.7-1-.6v-.1l.2-.2c.1-.4.1-.8-.2-1.2V17c.2-.4.4-.9.1-1.5.2.1.3.4.2.6.1.4.4.6.7.6v-.8zm0 1.8v.9-.1c-.5-.1-.8-.3-1-.6v-.8c.1.4.3.4.6.5.1 0 .3.1.4.1zm0 1.8v.6h-.7l-.1-.1-.1-.2-.2-.1V19l.1.1.2.1.2.1.2.1.4.1zm0 1.7v.4c-.1.1 0 0-.3-.1-.3-.2-.5-.1-.8-.2v-.6c.2.2.6.2.9.3.1.1.2.1.2.2zm0 .6v.7-.3c-.1-.2-.3-.2-.3-.4 0-.1.2 0 .3 0zm0 1v2.9c0-.1 0-.1-.1-.1-.1.1-.2.2-.2.3 0 .1 0 .3.1.4.1.1.2.1.2.2v.8l-.2.2c-.1 0 0 .1.1.2h.2v2.2l-.1.1c-.3.1-.7-.3-.9-.2 0 .1 0 .1-.1.2v-3.2c.1-.1.2-.2.2-.4s-.1-.4-.2-.5v-.6c.1 0 .2 0 .3-.1.2-.1.2-.1.3-.3.2-.3 0-.6-.1-1-.1-.1-.3-.1-.5-.2v-.4c.1.1.2.2.4.2.4-.1.5-.4.6-.7zm0 7.3v2c-.1.1 0 .5 0 .6v.1c0 .2 0 .4-.3.5 0 0-.4.2-.2.2.1 0 .3-.1.5-.1v.8h-.1c-.2.2 0 .4-.4.7-.1.1-.4.1-.5.2v-2.2c.1-.1.2-.1.3-.3.1-.2.1-.5 0-.8l-.3-.3V30c.2 0 .2 0 .4.1.4.2.4.7.1 1-.1.1-.2 0-.2.2h.3c.5-.4.4-.8.4-1.1v-.1zm0 17v4.7l-1 .1v-2.4h.3c.3-.2.4-.5.5-.9-.2 0-.2.4-.4.4h-.4v-.2c0-.1.1-.1.1-.2.6-.3.7-1 .9-1.5zm0 8.2v.4c-.5-.1-.5 0-.9.3h-.1v-.7c.1 0 .2.1.2.1-.1.2-.1 0-.1.1-.1.1 0 .1.2 0H12.5c0-.1 0-.2.1-.2.1-.1.2.1.2.1h.1l.1-.1h-.1zm0 3.6v.6c-.2-.1-.4-.1-.5-.2-.3.2-.4 0-.3-.2 0 0-.1-.1-.1-.2h-.1v-.8c.3.4.6.6 1 .8zm-1 2.9v-.2l.1-.1c.3-.1.6 0 .2.1-.1.1-.2.1-.3.2zm0-14c.1-.1.1-.2.2-.4.1-.4.3-.8.3-1.3 0-.2.1-.2-.1-.2-.1.3-.1.6-.3.9 0 .1-.1.1-.2.2l.1.8zm0-7.1v-3.2c0 .2.1.3.1.5-.1.9-.1 1.8-.1 2.7zm0-7.9v-.5.5zm-.1-9.8c0 .1.1.1.1.2.1.1.3-.2.3-.5 0-.1-.2-.3-.4-.4v.7zm0-12.7c-.2-.2-.5-.4-.8-.5v.9c.2.1.3.3.4.6.1.4.3.9.4 1.4v-2.4zm-.7 54.8h.7v-3l-.2-.2c0-.1.1-.1.2-.1v-.2l-.1.1c-.2.1-.5.2-.2.5 0 0 .2.2-.1.2-.1.1-.2 0-.3 0v2.7zm.7-51.9v4.7c-.1-.1-.1-.3-.2-.4-.1.2 0 .7-.5 1.4 0 .2.3.9.4 1.1 0 .4.2.6.3.7v.6c-.1-.1-.3-.3-.4-.6h-.1c-.1 0-.2.2-.3.3.2.4.2 1.1.5 1.2.1.1.2.1.3.2v.7c-.2-.3-.4-.5-.5-.4-.1.1-.1.2-.2.4v-5c.1-.2.1-.6 0-1v-.7l.1.1c.3.1.3-.5.3-.8 0-.2-.1-.4-.2-.5-.1-.2-.5-.7-.1-.4.3.2.3.1.3-.2 0-.2-.3-.4-.2-.6 0-.1.2 0 .2 0 .2-.5.3-.6.3-.8zm0 5.8-.1-.3v-.3l-.1.3v.2l.1.2v.2l.1.2v.1-.6zm0 4.2v.4c-.1-.1-.2-.2-.2-.4h.2zm0 2.1v.6c-.2-.2-.4-.3-.6-.5 0-.3.3 0 .6-.1zm.1 1.5v4.9c-.2-.2-.3-.4-.4-.6-.1 0-.3 0-.4.1v-.8c.2-.2.3-.4.2-.7 0-.2-.1-.3-.2-.4v-.6c.1 0 .2-.1.3-.3.3-.6-.1-.9-.4-1.2V27c.1 0 .3.1.4 0 .2 0 .3-.1.5-.2zm0 5.5c-.1-.2-.3-.4-.4-.5l-.3-.3v1.3c.2.2.4.5.5.4l.1-.1c0-.1.1-.2.1-.3v-.5zm0 .8v2.2c-.2 0-.3.1-.3.4.1.9.2 1.3.3 1.9V40.9c-.2 1-.5 1.9-.8 2.9v-3.6c.1.2.1.4.2.6 0-.7.1-1.7.2-2.5 0-1.1-.1-1.6-.4-2.3v-1.8c.1 0 .3-.2.4-.3.1-.1 0-.3.1-.4 0-.3.1-.4.3-.4zm0 13.9v.8c-.2.2-.3.3-.6.4h-.2v-.9c.2-.2.3-.7.4-1 0-.3-.1-.8.1-.7.1.3.1.7 0 .9-.1.5-.2.7-.3.7.3 0 .4-.1.6-.2zm0 1.9v.2h-.1c0-.1 0-.1.1-.2zm0 .6v2.4h-.8v-2.2c.2-.1.4-.2.8-.2zm0 5.8v.7c-.1 0-.1 0-.2-.1-.1-.3-.3-.1-.6-.1v-.2c.1 0 .2 0 .2-.1s0-.1.1-.2c0-.3-.1-.1-.2 0V55c0-.1.1-.2.1-.3 0 0 0-.1-.1-.1v-1c0 .1 0 .3.1.4l.1.1.2.1v.7c0 .2.1.2.3.4-.1 0 0 0 0 0zm0 2.9v.8h-.8v-.3c.2 0 .3-.1.5-.2.1-.1 0-.4.3-.3-.1 0 0 0 0 0zm-.8 3.5v-.2c.2-.1.5.1.3.2h-.3zm0-15.5c.1-.4.1-.8.1-1.3h-.1v1.3zm0-12.4v-.6c.1.2.1.4 0 .6zm0-7.1h.2c.1-.4.1-.4-.1-.8l-.1-.1v.9zm0-2c.4.5.6.2.7.1-.1-.3-.1-.5-.4-.6-.1-.1-.2-.2-.3-.2v.7zm0-14.9c-.3-.1-.6-.1-.9-.1v1c.1 0 .2-.1.4-.1s.4 0 .5.1v-.9zm-.9 25.8v1.7c.2 1.7.7 4.1.6 4.9-.3.5-.1 3-.6 4.3v1.4c.3.1.5.3.9.3v-.9c-.1.1-.2.1-.2-.1.1-.3.2-.5.2-.8v-1.2c-.1.5-.2 1.3-.4 1.2 0-.9.2-1.7.4-2.5v-3.6c-.2-.9-.4-2.2-.4-3.2 0-.4 0-.8.1-1.3h.2c0 .1 0 .1.1.2v-1.8h-.2c0-.1.1-.2.2-.2v-.6c-.1-.1-.2-.3-.4-.3-.1-.1 0-.3.1-.4.1-.1.2 0 .3.2v-1.3s-.1-.1-.2-.1c0-.1.1-.1.2-.1v-.8H11c-.1.1-.6.2-.6.2-.1 0-.1-.1 0-.1.2-.1.4-.2.4-.4.2-.5-.3-.7-.7-.9V31c0 .1.1.1.1.2.1.1.1.3.1.5.1.2 0 .3-.1.4-.1-.1-.1-.1-.2-.1v1.8c.1 0 .3.3.3.4-.1.3.3.7-.1.9h-.1l.1.5zm0 29.3c.3.1.6.2.9.2v-2.9c-.2-.1-.4-.3-.4-.4v-.1l.4-.1v-.2c-.1.1-.2.3-.3 0-.1-.1-.2.1-.2.1l.1.1c-.2.1-.4.3-.2.4 0 .1.1.2.1.2-.1.1-.2 0-.4-.2v2.9zm.9-48.7v.6c-.1-.2-.4-.8-.7-.8 0 0-.1-.1 0-.2.2 0 .5.3.7.4zm0 1.7v1.7c0-.2-.2-.3-.2-.5h-.2c-.2-.2-.5-.6-.3-.9h-.2v-.9c.3 0 .6.3.5.7 0 .1-.1.2-.2.3-.2.4.3.2.4 0 .1-.2.1-.3.2-.4zm0 1.8v3.2l-.3.3c-.1.2.1.5.3.6v.8l-.1-.1c0-.1-.1-.2-.2-.3l-.5.8c.2.3.5.5.8.7v.9c-.2 0-.4-.1-.6-.3 0 0-.1-.2-.2-.1 0 0-.1.1-.1.2v-2c.1-.2.2-.4.2-.5.1-.2 0-.5-.2-.6v-.6c.1 0 .2 0 .3-.1.1 0 .4-.2.5-.4.2-.4.1-.9 0-1.2-.2 0-.7.1-.7-.4.1 0 .3.1.4 0 .4-.1.4-.4.4-.9zm0 7.3v.2c0-.1-.1-.1 0-.2-.1.1 0 0 0 0zm0 1.7v.6c-.1-.1-.3-.2-.5-.3v-.1c.2-.2.3-.2.5-.2zm0 21v2.2h-.6c.1.1.3.1.4.1l.1.1.1.1-.2.2c.1.1.1.2.1.4V53.4l.1.1v1c-.1.1-.6.3-.3 0 .1-.1.4-.3.2-.6-.1 0-.3.2-.3 0 0-.1.2-.3 0-.5-.1.1-.3.2-.4.2 0-.2.4-.3.3-.7 0-.2-.3.2-.4.1-.1-.1.2-.3.2-.5v-.2c0-.2-.2 0-.3.1v-2.2c.1-.1.3-.2.3-.3.3.2.4.2.7-.2zm0 5.3v.3H11c-.3.1-.1-.1 0-.2l.1-.1zm0 .6v.2H11c-.1 0-.1-.1-.1-.2h.2zm0 3.1v.3c-.3 0-.6 0-.9-.1V58c.2.2.4.3.7.4.3.1 0 .2 0 .3h.2zm-.9 2.9v-.2h.1c.1.2 0 .2-.1.2zm0-11.9v-.2.2zm0-.6v-.2c.1.1.3.1.2.2h-.2zm0-14.5v-.5c.1.1.1.2 0 .3v.2zm0-6.3v-1.1l.3.3c.2.1.4.2.5.6 0 .5-.5.5-.7.6 0-.1 0-.1-.1-.1.1-.2.1-.3 0-.3zm0-6c.1-.2.2-.3.2-.5s-.1-.4-.2-.6v1.1zm0-2.1c.1.2 0 .5.2.4.1-.2.3-.2.4-.5.1-.2-.3-.6-.5-.9l-.1 1zm0-3.7V16c.1.1.1.2.1.4-.1 0-.1 0-.1.1zm0-1.4v-2.2c.3.3.5.7.5 1.3-.1.4-.3.7-.5.9zm0-5.4c-.1 0-.3.1-.4.1v1.1c.1-.1.2-.2.4-.3v-.9zm-.4 25.7c.1.1.3.1.4.2V35c-.2 0-.4 0-.3-.2.1 0 .3-.1.3-.2v-.5c-.1-.2-.4-.3-.2-.4h.2v-1.8s-.1 0-.1.1c-.1 0-.2.1-.3.1v3.3zm.4.4c-.1.3-.1.9 0 1.5v-1.5zm0 10.7c-.1.2-.2.4-.4.6v.6c.1 0 .1.1.2.1-.1.1-.2.2-.2.3v1h.4v-.2c-.1-.1-.1-.1-.1-.3 0-.2 0-.5.1-.7v-1.4zm-.4 18.2c.1.1.3.1.4.2V62l-.2-.2c-.1-.1 0-.2.1-.2h.1v-.2h-.4v3.3zm.4-51.9v.6c-.1-.3-.2-.5-.4-.6v-.3c.1.1.2.2.4.3zm0 1.3v.9c-.1.1-.3.1-.4.2v-.6c.2 0 .3-.2.4-.5zm0 1.9v.5c-.1.1-.1.2-.2.2s-.1 0-.2-.1v-.8c.1 0 .3 0 .4.2zm0 1.2v.9c-.2 0-.3 0-.4-.1v-.9c.1.1.2.1.4.1zm0 2v1l-.4-.4v-1c0 .1.1.1.1.2 0 0 .1.1.3.2-.1-.1-.1-.1 0 0zm0 2v1.1c-.1.2-.3.3-.3.3.1.1.2.2.3.2v.6c-.1 0-.3-.1-.4-.3v-2.3c.1.2.3.3.4.4zm0 3.2v2c-.1.1-.1.2-.2.2 0 .2.1.4.2.5v1.1c-.2-.1-.3-.2-.4-.3v-1.6c.2-.2.3-.4.3-.6-.1-.3-.1-.4-.3-.5v-.6s.1 0 .2-.1c0 0 .1 0 .2-.1zm0 4.8v1.6c-.1-.2-.3-.3-.4-.4v-1.5c.1.2.2.3.4.3zm0 20.3v.2c0 .2-.1.4-.3.7h.3v2.2c0-.1-.1-.4 0-.5-.1 0-.1-.1-.1-.1 0 .1-.1.2-.2.2v-2.1s0-.1.1-.2c0-.2 0-.4.1-.6h.2c-.1.1-.1.2-.1.2zm0 8.5v.9c-.1 0-.2 0-.2-.1h-.2v-1.2c.1.2.3.3.4.4zm-.4-26.1V31c.2.1.3.3.3.5 0 .1 0 .2-.1.2l-.2.2zm0-7.7v-.4.4zm0-14.4c-.3.1-.5.3-.7.6h-.6v.5c.2 0 .6.3.8.5h.1c.1-.2.2-.3.4-.5V9.8zM8.5 32.7c-.1.9.4 1.3 1 1.3-.1.9.1 1.3.3 1.5v-3.4c-.2 0-.1.2-.1.3.1.1 0 .4 0 .4 0 .2-.2.3-.3.3-.1.1-.7.2-.4-.1.3 0 .4-.3.4-.5s-.1-.3-.2-.3c-.3-.1-.6-.5-.7-.9v1.4zM9.8 47c-.1 0-.1.1-.2.1-.4-.1-.8-.2-1.1 0v.2c.1-.1.2-.1.3 0-.1.2-.2.4-.2.6v.5c0 .1-.1.1-.1.2v.6c.3 0 .4.5.5-.1v-.3c0-.1-.1-.4 0-.6 0-.3.3-.6.5-.7h.3V47zM8.5 62.5c.2 0 .5 0 .7.1-.4.8-.2 1.7.6 2.2v-3.3h-.4v-.2c0-.2.1-.4-.2-.4-.3 0-.4.4-.4-.1 0-.2.2-.7-.1-.7h-.2v.7c.1.1.2.4.2.5-.1 0-.2 0-.3-.1l.1 1.3zm1.3-50v.3c-.1-.1-.3-.2-.5-.2-.3-.1.3-.2.4-.2 0 .1 0 .1.1.1zm0 2.2v.6c-.2 0-.4.1-.6.1-.1 0-.1.2-.1.2.2.1.4.1.6.2v.8c-.1-.1-.2-.2-.3-.1-.1 0-.1.2-.1.3 0 .3.2.4.4.5v.9c-.1 0-.2-.1-.3-.3 0 0-.3-.4-.3-.5-.2.3.3 1 .6 1.5v1c-.1-.1-.2-.2-.4-.3l-.1-.1c-.2.4.1 1.1.4 1.4l.1.1v1.3c-.1-.3-.4-.6-.5-.6-.1 0-.3.3-.3.6-.1.4 0 .8.2 1.1.2.2.5.3.6.6v.4l-.1.1c-.1.1-.3.1-.4.1-.1-.5-.4-.7-.6-.7-.1 0-.1 0-.2.1v-2.9h.2c.1-.2-.1-.6 0-1 0-.3.2-.6.4-.9-.2-.3-.2-.4-.3-.8 0-.4 0-.8.1-1.2.2-.1.4-.8 0-1-.1 0-.1-.4-.4-.6v-.9c.2-.1.3-.2.4-.3-.1-.3-.2-.3-.4-.4v-.7c.5.1 1.2.2 1.2.7 0 .4-.6.7-.6.9v.1c0 .1.4 0 .8-.3zm0 7.6h-.2c-.1-.1-.1-.2-.2-.3-.2.4.1.8.4 1v-.7zm0 2.3v.6c-.1 0-.1-.1-.2-.1-.1-.1-.2-.2-.3-.4.1-.2.1 0 .5-.1zm0 1.7v1.6c-.4.1-.2.7-.1 1 0 0 .1.1.1.2v1.5c-.1-.2-.2-.3 0-.5l-.5-.5c-.2.5-.1 1 .3 1.4 0-.1.1 0 .2 0v.9c-.2.1-.4 0-.6-.1-.2-.1-.5-.7-.7-.7v-1.9c.2-.1.3-.2.3-.4.1-.2-.1-.5-.3-.7-.1-.2.2-.1.3-.1.2 0 .3-.1.5-.3.3-.3 0-.6-.1-.9-.1-.1-.9-.7-.5-.7.2.1.3.3.5.3.2.1.4 0 .6-.1zm0 21.7v1c-.3.1-.2.6-.2.9.1.1.2.1.2.1v2.1h-.1c0-.1-.1-.4-.3-.5h-.6c-.2 0-.3.1-.3.1v-2.1c.1-.3.2 0 .3.1-.1.3-.3.7-.2.8.2.1.5-.4.6-.5-.1-.5-.1-.7.3-1 .3-.1.2-.2.1-.4 0-.2.1-.4.2-.6zm0 9.6v1.2c-.1 0-.2 0-.2.1-.1.1 0 .4-.3.5-.1 0-.3-.3-.4 0 0 .1 0 .5-.2.5h-.3v-.6c.2 0 .6-.2.7-.4.2-.1.3-.3.4-.5v-.9c.1-.1.1 0 .1.1.1-.1.2 0 .2 0zm-1.3.9s0-.1.1-.1c0-.1 0-.1-.1-.2v.3zm0-1.8v-.3h.1c.1-.1.3-.1 0 .2l-.1.1zm0-1.8V53.2c.1.2.1.5.1.8 0 .3-.1.6-.1.9zm0-26.1v-.1.1zm0-1c.1 0 .2-.1.3-.2.1 0 .2-.3 0-.5-.1-.1-.2-.2-.3-.4v1.1zm0-2.4c.1.1.1.2.2.2v.1c0 .3.3.3.5.2.3-.2 0-.7-.2-1-.2-.2-.4-.4-.5-.7v1.2zm0-13.9v-.2c.2.1.4.2.4.4 0 .3-.1 0-.2-.1-.1 0-.2 0-.2-.1zm0-1.1h-.1v.6h.1v-.6zm-.1 22.2s.1 0 .1.1v-2.3c0 .1-.1.1-.1.2v2zm.1 14.5h-.1v.3c0-.1.1-.1.1-.1v-.2zm-.1 15.4h.1v-1.3h-.1v1.3zm.1-51.2v.2h-.1v-.3s0 .1.1.1zm0 1.8v.7h-.1v-.6c0-.1 0-.1.1-.1zm0 1.5v.9l-.1-.1v-.8h.1zm0 6.3v4.5c0-.1-.1-.1-.1-.1v-4.4h.1zm0 5.8v1.1h-.1v-1.3c0 .1 0 .1.1.2zm0 1.9v.2s0 .1-.1.1v-.5c0 .1.1.2.1.2zm0 .6v.8c0-.1-.1-.2-.1-.3v-.5h.1zm0 19.4v.6h-.1v-.4c0-.1.1-.2.1-.2zm0 1v2.1s-.1.1-.1.2V50c.1-.1.1-.2.1-.4zm0 3.7v.6c0-.1-.1-.3-.1-.4v-.3c0-.1.1 0 .1.1zm0 .7v.9c-.1.5-.2 1.1 0 1.5v.3c0 .1-.1.1-.1.2v-2.7c.1 0 .1-.1.1-.2zm0 4.2v.3c0 .1-.1.1-.1.1V58c0 .2.1.2.1.2zm0 .9v.6c-.1-.1 0-.2-.1-.2v-.4h.1zm0 .9v.6c-.1-.1-.1-.3 0-.6zm-.1-43v-.2c.1-.1.1 0 0 .2zm0-6.6c-.3.1-.5.2-.7.4V12c.1-.3.4-.5.7-.5v-1.1zm-.7 12.2c.1-.3.2-.4.3-.5.2-.5.4-.3.3.2-.2.3.1.4-.1.6-.1.3-.3.3-.5 1v2.9c.1 0 .3.3.3.5.3.3 0 .6.2.6h.1v-1.3c-.1-.3-.3-.6-.4-.9 0-.2-.1-.7.1-.8.1.1.2.3.3.4v-4.4c-.2 0-.4.1-.5.2-.1.1-.1.2-.2.4l.1 1.1zm0 9.3c.2.3.4.5.7.7v-2.1c-.1.1-.2.1-.3.1-.1 0-.2 0-.3-.1l-.1 1.4zm.7 15.2c-.3.2-.6.5-.7 1v.9h.2c0-.5.4-.8.4-1.2 0-.2 0-.3.1-.4v-.3zm-.7 15.3c.2 0 .4.1.7.1v-1.3c-.1-.1-.2-.1-.3-.2-.1 0-.2 0-.4-.1v1.5zm.7-49.3v.6c-.2-.1-.5-.2-.7-.3v-.9c.1.3.3.5.5.5 0 .1.1.1.2.1zm0 1.5v.8s-.1 0-.2-.1-.3-.1-.5-.1v-.4c.2 0 .4-.1.5-.1.1-.1.1-.1.2-.1zm0 2.1v.3c-.2.3-.3.5-.7.7v-.5h.2l.4-.4.1-.1zm0 11.8v.5c-.1 0-.3 0-.3.1s.1.1.1.1h.2v.5c0-.1-.1-.1-.1-.2-.2-.2-.4-.3-.4-.5 0-.1 0-.2-.1-.3v-.9c0 .2.4.4.6.7zm0 20.2v.4c-.1 0-.2.1 0 .3 0 0-.2.4 0 .6v1.9c-.1 0-.2 0-.2.1-.1.1 0 .3 0 .4-.2.1-.4.1-.2.5 0 .3-.4.2-.1.6 0 .1-.1.3-.1.4 0 .1-.1.1-.1.2v-3.3c.2-.1.3-.3.3-.5-.1-1.1.2-1.3.4-1.6zm0 4.4s0-.1 0 0c-.2-.1-.1.1 0 .3v-.3zm0 1.2v2.6c-.1.2-.1.4-.1.6 0 .1-.1.5 0 .5 0 0 .1 0 .1.1v.6c-.3-.2-.3 0-.5.1-.1.1-.1.1-.2.1v-.7h.2l.2-.9H8c-.1 0-.2 0-.2.1v-2.7.1s.1.2.2.2c.4.3.2-.2.3-.4-.1-.2 0-.2.1-.3zm0 4.8v.4h-.1c-.2.2.1.4.1.7 0 .2-.2.3-.2.2-.2-.2-.2-.5-.2-.8 0-.1-.1-.3 0-.4.1-.1.2-.2.3-.2 0 .1 0 .1.1.1zm-.7-9.2c0-.1 0-.1.1-.2 0 0 0-.1-.1-.2v.4zm0-19.4v-1.2l.1.1c.2.2.4.5.4.9 0 .1-.1.3-.3.3-.1 0-.1 0-.2-.1zm0-10.2v-1.5c.3.2.6.5.4 1 0 .2-.2.4-.4.5zm0-9.5c0 .1-.1.2-.1.2-.3.3-.5.7-.6 1.2-.2.4-.5.6-.7.7v.7c.3-.2.6-.4.9-.8h.1c.2.2.4.4.6.5v-.9c-.1-.2-.1-.3 0-.5v-.1l-.2-1zM6.2 22.7c.5.5 1.3.3 1.5-.1v-1.1.2c0 .1-.1.1-.1.2-.1-.2.1-.3-.2-.3 0 .2-.1.5-.4.6-.1.1-.6.1-.6-.1 0-.3.1-.5.2-.6.1-.3 0-.2-.3-.1l-.1 1.3zm1.5 1.2c0 .1-.1.3-.1.4 0 .4-.9.6-.5 1.8-.5.5-.8 1.2-.2 2.1-.3.7 0 1.3.3 1.8 0 .5.1.8.3 1 0 .4.1.7.3.9v-1.3c-.1 0-.1-.1-.1-.1-.1-.1 0-.1.1 0v-1.2c-.1-.1-.2-.2-.2-.4-.1-.2-.1-.5.1-.3 0 0 .1 0 .1.1v-.9c-.2-.2-.2-.5-.1-.9 0-.1.1-.1.2-.1l-.2-2.9zm0 24.3v.2c-.1.2-.8.3-.9 1.3 0 .5.1.9.3 1.1-.2.1-.7.3-.9.7v3.4c.3.9.3 2 0 3v4c.4.3 1 .5 1.5.5v-1.6c-.3-.3-.2-.4-.2-.8 0-.2-.1-.6-.1-.8.1-.2.1-.2.3-.3v-.7h-.4V58l.3-.6v-2.7c-.2-.4-.1-.5 0-.5v-3.3h-.2c-.2-.2-.4-.8-.4-1v-.2c.1.2.1.4.2.6.1.1.3.3.4 0 .1-.1 0-.3.1-.4v-.4c-.2-.1-.4-.2-.2.1 0 .2-.1.4 0 .6-.2-.1-.3-.4-.2-.6 0-.2.1-.1.1-.2s0-.2.1-.3c0-.1.1 0 .2 0v-.9zm0-33.4v.4H7c0-.2.4-.3.7-.4zm0 2.4v.5c-.5.1-.6-.4-1-.3-.2.1-.2-.1-.1-.2.1 0 .2-.1.3-.1-.2-.1-.4 0-.6.1v-.5c.4-.1.9.2 1.3 0-.1.3-.4.3-.3.4.1.1.3.1.4.1zm0 1.6s-.1-.1 0 0c-.4-.4-.4-.7-.6-1-.2-.3-.6-.4-.9-.2v.5c0-.1.1-.1.2-.1s.4.2.5.3c.3.5.4.7.7 1.1 0 .1.1.1.1.2v-.8zm0 1v.4s-.1 0-.1.1c-1-.2-1 .7-1.4.8v-.4c.3-.3.5-.6.9-.7.1 0 .3-.1.3-.2.2 0-.1.2.1.3 0-.2.1-.2.2-.3zm-1.5.2c.3-.2.1-.2 0-.3v.3zm0-.5v-1.3c.1.1.4-.1.5 0 0 .4.3.6.5.7.1.3.1.3.1.6-.1.2-.6.3-1 .6-.2-.2.5-.4.3-.6 0-.1-.1-.2-.2-.2l-.2.2zm0-4v-1.1c.3.2.4.5.7.8 0 0 0 .1-.1.1-.2.1-.4.1-.6.2zm0-2.5c-.2 0-.3.1-.5.2v.7c.2-.1.3-.1.5-.2V13zm-.5 8.9c.1.1.1.2.2.3.1.2.1.4.3.5v-1.4c-.1 0-.2.1-.4.1 0-.1.2-.2.3-.3v-.4c-.1.1-.3.2-.5.3l.1.9zm.5 29.5c0 .1-.1.2-.1.3h-.4v2c.2.3.4.7.5 1.1v-3.4zm-.4 9.9c.1.2.3.4.5.5v-4c-.1.4-.3.7-.5 1.1v2.4zm.4-46.9v1.1c-.1.1-.3.1-.4.3-.2.3 0 .3 0 .6 0 .1 0 .1-.1.2v-1.4c.2.2.3.3.4.1 0-.2-.1-.4-.4-.4v-.4h.2c.1-.1.2-.1.3-.1zm0 2.3v.5c-.1 0-.2.1-.3.1h-.2v-.4c.1-.1.3-.1.5-.2-.1 0 0 0 0 0zm0 .8v.5c-.1.1 0 .2 0 .2V19.9s-.1 0-.1-.1-.3-.2-.2 0v.4h-.1c-.1-.1-.1-.2-.1-.3v-1.8c.1-.2.3-.4.5-.6zm-.5-4.3-.6.3v.6l.6-.3v-.6zm-.6 8.1.1.1c.1.1.1.3.3.4.1 0 .2 0 .2.1V21c-.3.1-.3.2-.3-.1 0-.2.2-.1.1-.3l-.2-.1c-.1-.1-.1-.2-.2-.3v1.1zm.7 30.4c-.4.2-.6.8-.5 1.3-.1.1-.1.2-.2.2v2.7c.3 0 .2 1 .1 1.2h-.1v2.7c.1.4.2.7.4 1 .1.2.1.4.2.5v-2.4c0 .1-.1.1-.1.2l-.1-5.4h.1l.1.1.1-2.1zm-.1-37.3v.4h-.1c-.1.1-.3.1-.2.2 0 .1.2.1.4.1v1.4c-.1.1-.3.2-.3.3-.1 0-.2.1-.3.1v-.3c.2 0 .2-.2.3-.2.1-.3 0-.5.2-.8.1-.4-.2-.3-.2-.1l-.1.2h-.1v-1.2c.1-.1.3 0 .4-.3h.1c-.2.1-.1.2-.1.2zm0 2.5c-.2.2-.4.4-.6.5v.4c.1 0 .2-.1.2-.1l.4-.4v-.4zm0 1.3V20c-.1-.3-.1-.3-.3-.6-.2-.2-.2.2-.2.3.1.2 0 .4.2.4s.1.2 0 .2c0 .1-.1 0-.2 0-.1-.1-.2-.1-.2-.3v-.9c.1-.2.2-.5.4-.7.2 0 .2-.1.3-.2zm-.6.6v-.2.2zm0-5.3c-.5.3-.9.8-.9 2-.3.6-1.3 1.3-1.4 2.3 0 .8.3 1 .7 1.2.1.2.3.8.4.8.3.5.7 0 .8.6.1.3.2.7.4 1v-1c-.1-.3-.2-.4-.2-.5H5v.2-.9c0 .1-.1.2-.2.3h-.2c-.1-.3.1-.4.3-.6v-.2h-.2c-.2.2-.3.5-.5.7-.1 0-.1 0-.1-.1.1-.3.2-.6.5-.8.1-.1 0-.2-.1-.1-.3.1-.4.3-.6.5 0 .1 0 .1-.1.1 0-.4.2-.6.5-.8.2-.2.4-.2.6-.3v-.4c-.1.1-.2.1-.2-.1 0-.1.1-.3.2-.3v-.3c-.5.2-.8.5-.8 1.2-.1 0-.4.3-.5.3-.1-.2-.3-.4-.4-.5-.1-.2 0-.3.1-.6.2-.5.7-.9 1.1-1.2.2-.2.2-.4.2-1.2 0-.2.1-.4.4-.6l.1-.7zm0 39.8c-.1.3-.1.7-.1 1.3-.1.3-.1.6 0 1.1-.3.1-.6.3-.6 1 0 .5.1.8.5.7.1.9.1 1.7.2 2.4v-2.7c-.3-.2-.2-1 0-1.1v-2.7zm0-38.8v1.2s0-.1-.1-.1c-.2-.7.1-.6.1-1.1 0 .1 0 .1 0 0zM5.5 69.9v5H5v-2.7H3.6l-.4-.4H5V70H3.1v1.8c-.1 0-.1.1-.1.2s-.1.2-.2.3c-.1.1-.2.1-.3.1H2l.6 1 .3.4.5.6.2.2-.4.4c-.1-.1-.3-.2-.5-.5l-1.2-1.9-.4-.6-.1-.3-.2-.3.4-.3.3.6c.1.2.3.3.6.3h.2c.1 0 .1-.1.1-.1l.1-.2V69.9H.1v-.4h6.1v.4h-.7z" fill="#4B4B4B"/><path d="M3.2 75.1c-.3-.1-.4-.3-.7-.6l-1.2-1.9-.5-.8-.3-.5.7-.5.4.8c.1.1.1.3.5.3h.2V70.2H-.1v-.8h6.5v.8h-.8v5h-.9v-2.7H3.4l-.2-.5c0 .1-.1.2-.3.4-.1.1-.3.1-.4.2h-.2l.4.7.3.3.5.6.3.3-.6.6zm1.9-.4h.2v-5h.8v-.1H.3v.1h2.4v2.1l-.1.2c-.1.1-.1.2-.2.2h-.5.5c.1 0 .2-.1.3-.1.1-.1.1-.1.1-.2s.1-.2.1-.3l-.1-.1h.1v-1.8h2.2v2.2H3.5l.1.1h1.5v2.7zM1 71.4l.3.5.3.5 1.2 1.9c.2.2.3.4.3.4l.2-.2-.1-.1-.5-.6-.3-.4-1-1.5h.1c-.1-.1-.2-.2-.2-.3l-.2-.4-.1.2zm2.2.2h1.5v-1.5H3.2v1.5z" fill="#4B4B4B"/><path d="M6.2 69.9v-.4H9v.4H6.2zm1.6 1.6c-.1 0-.2 0-.3.1-.2.1-.3.2-.3.5 0 .6.2 1.1.7 1.7l.5.6c.1.1.2.2.3.2l-.3.3-.5-.4c-.2-.2-.4-.5-.7-.8-.1-.2-.2-.3-.3-.5-.1-.3-.2-.6-.2-.9 0-.3.1-.6.2-.8.1-.2.4-.3.6-.3h2.3v.4l-2-.1z" fill="#4B4B4B"/><path d="m8.3 75.1-.6-.6c-.2-.2-.4-.5-.7-.8-.1-.2-.2-.4-.3-.5-.1-.3-.2-.7-.2-1 0-.3.1-.6.2-.9.3-.3.5-.4.9-.4H10v.7H7.6c-.1 0-.2.1-.2.4 0 .5.2 1 .7 1.6l.5.6c.1.1.2.1.2.1l.2.1-.7.7zm-.7-3.8c-.2 0-.4.1-.5.2-.1.2-.2.4-.2.7 0 .3.1.6.2.8.1.1.1.3.2.5.2.3.4.6.6.8l.3.3.1-.1-.1-.1-.5-.6c-.5-.6-.7-1.2-.7-1.8 0-.5.2-.6.4-.7.1 0 .2-.1.3-.1h1.8v-.1l-1.9.2zm1.5-1.2H6v-.8h3.1v.8zm-2.8-.4h2.4v-.1l-2.4.1z" fill="#4B4B4B"/><path d="M13.3 69.9v5h-.5v-1.6c-.3.3-.7.5-1.2.5-.8 0-1.4-.4-1.8-1.2-.1-.2-.1-.5-.1-.8H10c.6 0 .9-.3.9-.9 0-.1 0-.2-.1-.4 0-.1-.1-.3-.2-.4l-.1-.1-.2-.2H8.9v-.4H14v.4l-.7.1zm-.6 0h-1.8l.1.2.1.2c.1.1.1.2.2.4l.1.3c0 .5-.2.8-.6 1.1l-.2.1-.3.1.1.2.1.1c.3.5.6.8 1.1.8.4 0 .7-.2 1.1-.5l.2-.3-.2-2.7z" fill="#4B4B4B"/><path d="M13.4 75.1h-.9v-1.4c-.3.2-.6.3-1 .3-.9 0-1.6-.4-2-1.3-.1-.2-.2-.5-.2-.9v-.3l.5.2h.2c.5 0 .7-.2.7-.7 0-.1 0-.2-.1-.3 0-.1-.1-.2-.1-.3l-.2-.3H8.8v-.8h5.4v.8h-.7l-.1 5zm-.5-.4h.2v-5h.7v-.1H9.1v.1h1.3l.3.4c.1.1.2.3.2.4.1.2.1.3.1.5 0 .7-.4 1.1-1 1.1h-.2c0 .2.1.4.1.5.3.7.9 1.1 1.6 1.1.4 0 .8-.1 1.1-.4l.3-.3v1.7zm-1.4-1.2c-.6 0-1-.3-1.3-.9l-.2-.4.5-.1.2-.1c.3-.2.5-.5.5-.9l-.1-.3c0-.2-.1-.3-.1-.3l-.1-.2-.2-.5h2.2v2.9l-.2.4c-.4.2-.8.4-1.2.4zm-1.1-1.1.1.2c.2.4.5.7 1 .7.3 0 .7-.2 1-.5l.2-.3v-2.4h-1.3l.1.1c.1.1.1.3.2.5l.1.3c0 .6-.2 1-.7 1.3l-.3.1h-.4z" fill="#4B4B4B"/><path d="M18.1 69.9v5h-.5v-2.7h-1.8V73.1l-.1.1h-.1c-.1 0-.2 0-.2-.1l-.4-.4c-.1-.1-.2-.3-.3-.4 0-.1-.1-.2-.1-.3v-.1l.1-.1H15.3v-1.9H14v-.4h4.9v.4h-.8zm-.5 0h-1.8v1.9h1.8v-1.9z" fill="#4B4B4B"/><path d="M18.3 75.1h-.9v-2.7h-1.5v.7c0 .1 0 .1-.1.2l-.1.1h-.2c-.1 0-.3-.1-.4-.2l-.4-.4c-.1-.1-.2-.3-.3-.4-.1-.1-.1-.2-.1-.3l.1-.2.2-.2.2-.1h.3v-1.5h-1.3v-.8H19v.8h-.7v5zm-.5-.4h.2v-5h.7v-.1h-4.5v.1h1.3v2.2h-.7c0 .1 0 .1.1.2s.2.2.3.4l.4.4.1.1h.1v-1H18l-.2 2.7zm0-2.8h-2.2v-2.2h2.2v2.2zm-1.9-.3h1.5v-1.5h-1.5v1.5z" fill="#4B4B4B"/><path d="m17.5 69.4-2.1-2.3.4-.4 2.1 2.7h-.4z" fill="#4B4B4B"/><path d="M18.2 69.6h-.8l-2.2-2.4.6-.7 2.4 3.1zm-2.5-2.4 1.3 1.4-1.2-1.6-.1.2zM22.5 69.9v5H22v-1.7l-.5.3-.3.1h-.3c-.5 0-.9-.2-1.2-.6-.1-.1-.1-.2-.2-.3-.1-.2-.1-.4-.1-.6 0-.4.1-.7.4-1.1.1-.1.3-.3.4-.3.2-.1.4-.1.5-.1H21.4l.1.6-.1-.1h-.1L21 71h-.3c-.4 0-.6.2-.8.6v.4c0 .3.1.6.2.8l.3.3c.1 0 .3.1.4.1.3 0 .6-.1.9-.4l.2-.2v-2.8h-3.3v-.4h4.8v.4l-.9.1z" fill="#4B4B4B"/><path d="M22.7 75.1h-.9v-1.5l-.2.2-.4.1h-.3c-.6 0-1.1-.2-1.4-.7-.1-.1-.1-.2-.2-.3-.1-.2-.1-.4-.1-.7 0-.4.1-.8.4-1.2.1-.2.3-.3.5-.4.2-.1.4-.1.6-.1h.2l.4.1H21.6l.2 1-.5-.3-.3.1h-.2c-.2 0-.4.1-.6.5v.4c0 .3.1.5.2.7.1.1.1.2.2.2s.2.1.3.1c.3 0 .6-.1.8-.4l.1-.2v-2.5h-3.3v-.8h5.1v.8h-.9v4.9zm-.5-.4h.2v-5h.9v-.1h-4.4v.1h3.3v3l-.2.3c-.5.5-1 .6-1.5.4-.2-.1-.3-.2-.4-.3-.2-.2-.3-.5-.3-.9l.1-.4c.2-.6.7-.7 1-.7h.3l.2.1v-.1L21 71h-.2c-.1 0-.3 0-.4.1-.2.1-.3.2-.4.3-.2.3-.4.6-.4 1 0 .2 0 .4.1.5 0 .1.1.2.1.2.3.4.6.6 1.1.6h.3l.3-.1.7-.5v1.6zM32.7 69.9v5h-.5v-3.3h-1.6l.1.2.2.5.1.4v.3c0 .6-.2 1-.7 1.2-.2.1-.3.1-.5.1-.4 0-.9-.2-1.3-.8-.2-.2-.3-.4-.4-.6 0-.1-.1-.2-.1-.3-.1-.1-.1-.3-.2-.5l-.2-.5v-.2l.4-.3V71v.1l.2.6c.1.4.3.8.6 1.3.2.3.3.4.5.6.2.1.4.2.5.2.2 0 .3-.1.5-.2l.1-.3V73c0-.2 0-.4-.1-.6l-.3-.6-.3-.4-.2-.2h2.4v-1.3h-5.1v-.4h6.5v.4h-.6z" fill="#4B4B4B"/><path d="M32.8 75.1h-.9v-3.3h-1.1l.2.4.1.4.1.3c0 .7-.3 1.1-.8 1.3-.2.1-.4.1-.6.1-.5 0-1-.3-1.4-.8-.2-.2-.3-.4-.4-.6 0-.1-.1-.2-.1-.3-.1-.1-.1-.3-.2-.5l-.2-.6-.1-.4.8-.6v.5l.2.6c.1.4.3.8.6 1.3.1.2.3.4.4.5.3.2.5.2.8 0l.1-.2v-.3c0-.1 0-.3-.1-.5s-.2-.4-.3-.5l-.3-.4-.1-.1-.3-.4h2.7v-1h-5.1v-.8h6.8v.8h-.8v5.1zm-.5-.4h.2v-5h.8v-.1h-6.1v.1h5.1v1.7h-2.2l.2.3.3.6c.1.2.1.5.1.7l-.1.4-.2.3c-.4.4-.8.3-1.2.1-.2-.1-.4-.3-.5-.6-.3-.5-.5-.9-.6-1.4l-.2-.5-.1.1v.1l.2.5c.1.2.2.4.2.5 0 .1.1.2.1.3.1.2.2.4.4.6.4.5.8.7 1.2.7.2 0 .3 0 .4-.1.4-.2.6-.5.6-1v-.3l-.1-.4-.2-.4-.3-.4h2.1l-.1 3.2z" fill="#4B4B4B"/><path d="M37.8 69.9v5h-.5v-1.6c-.3.3-.7.5-1.2.5-.8 0-1.4-.4-1.8-1.2-.1-.2-.1-.5-.1-.8h.4c.6 0 .9-.3.9-.9 0-.1 0-.2-.1-.4 0-.1-.1-.3-.2-.4H35l-.2-.2h-1.4v-.4h5.1v.4h-.7zm-.6 0h-1.8l.1.2.1.2c.1.1.1.2.2.4l.1.3c0 .5-.2.8-.6 1.1l-.3.1-.3.1.1.2.1.1c.3.5.6.8 1.1.8.4 0 .7-.2 1.1-.5l.2-.3-.1-2.7z" fill="#4B4B4B"/><path d="M37.9 75.1H37v-1.4c-.3.2-.6.3-1 .3-.9 0-1.6-.4-2-1.3-.1-.2-.2-.5-.2-.9v-.3l.5.2h.1c.5 0 .7-.2.7-.7 0-.1 0-.2-.1-.3 0-.1-.1-.2-.1-.3l-.2-.4h-1.5v-.8h5.4v.8h-.7v5.1zm-.5-.4h.2v-5h.7v-.1h-4.7v.1h1.3l.3.4c.1.1.2.3.2.4.1.1.1.3.1.4 0 .7-.4 1.1-1 1.1h-.2c0 .2.1.4.1.5.3.7.9 1.1 1.6 1.1.4 0 .8-.1 1.1-.4l.3-.3v1.8zm-1.5-1.2c-.6 0-1-.3-1.3-.9l-.2-.5.6-.1.2-.1c.3-.2.5-.5.5-.9l-.1-.3c0-.2-.1-.3-.1-.3l-.1-.2-.2-.5h2.2v2.9l-.2.4c-.4.3-.8.5-1.3.5zm-1-1.1.1.2c.2.4.5.7 1 .7.3 0 .6-.2 1-.5l.2-.3v-2.4h-1.3l.1.1c.1.1.1.3.2.5l.1.3c0 .6-.2 1-.7 1.3l-.3.1h-.4z" fill="#4B4B4B"/><path d="M42.7 69.9v5h-.5v-3.5h-1.9c-.1 0-.2 0-.3.1-.1.1-.3.2-.3.4v.3c0 .5.1 1 .4 1.4.2.3.3.5.4.6.2.3.4.4.6.4l-.4.4s-.1 0-.1-.1l-.3-.3-.5-.6-.3-.5c-.1-.2-.2-.4-.3-.7-.1-.2-.2-.5-.2-.8 0-.3.1-.6.2-.8.2-.2.4-.4.7-.4h2.2v-1h-3.8v-.4h5.2v.4l-.8.1z" fill="#4B4B4B"/><path d="M40.6 75.1h-.1s-.1 0-.2-.1l-.3-.4-.4-.5-.3-.5c-.1-.2-.2-.5-.3-.8-.1-.2-.1-.5-.1-.8 0-.3.1-.6.3-.9.2-.3.5-.4.8-.4h2V70h-3.8v-.8h5.6v.8h-.9v5H42v-3.5h-2c-.1 0-.2.1-.2.3v.2c0 .4.1.9.4 1.3.2.3.3.5.4.6.2.3.4.3.4.3h.4l-.8.9zm1.7-.4h.2v-5h.9v-.1h-4.9v.1h3.8v1.4h-2.4c-.2 0-.4.1-.5.3-.1.2-.2.4-.2.7 0 .3 0 .5.1.7.1.3.2.5.3.7l.3.5.4.5.2.3.1-.1c-.1-.1-.3-.2-.4-.4-.1-.1-.2-.3-.4-.6-.3-.5-.4-1-.5-1.5v-.3c.1-.2.3-.4.4-.5.1 0 .2-.1.4-.1h2.1l.1 3.4z" fill="#4B4B4B"/><path d="m42.2 69.4-2.1-2.3.4-.4 2.1 2.7h-.4z" fill="#4B4B4B"/><path d="M42.9 69.6h-.8l-2.2-2.4.6-.7 2.4 3.1zm-2.5-2.5 1.3 1.4-1.2-1.5-.1.1z" fill="#4B4B4B"/><path d="M56.3 0h-1v81h1V0z" fill="#BEBEBE"/></g><defs><clipPath id="a"><path fill="#fff" d="M0 0h147.8v81H0z"/></clipPath></defs></svg>